<svg width="749" height="1024" viewBox="0 0 749 1024" fill="none" xmlns="http://www.w3.org/2000/svg">
<rect width="768" height="1117" transform="translate(-19 -49)" fill="#ECF3EE"/>
<circle cx="226.5" cy="879.5" r="12.5" fill="#3C8350" fill-opacity="0.35"/>
<circle cx="710.5" cy="441.5" r="12.5" fill="#3C8350" fill-opacity="0.35"/>
<circle cx="382.5" cy="849.5" r="17.5" fill="#3C8350" fill-opacity="0.63"/>
<circle cx="64.5" cy="280.5" r="12.5" fill="#3C8350" fill-opacity="0.35"/>
<circle cx="214.5" cy="205.5" r="17.5" fill="#3C8350" fill-opacity="0.63"/>
<circle cx="680.5" cy="648.5" r="17.5" fill="#3C8350" fill-opacity="0.63"/>
<path d="M469.738 327.53H260.226V650.23H469.738V327.53Z" fill="white"/>
<path d="M476.862 657.296H253.159V320.475H476.862V657.296ZM267.35 643.164H462.73V334.608H267.292L267.35 643.164Z" fill="#37474F"/>
<path d="M469.738 449.574H260.226V456.711H469.738V449.574Z" fill="#37474F"/>
<path d="M469.738 396.366H260.226V403.503H469.738V396.366Z" fill="#37474F"/>
<path d="M412.384 341.05V451.682H418.861V341.05H412.384Z" fill="#37474F"/>
<path d="M361.743 341.05V451.682H368.22V341.05H361.743Z" fill="#37474F"/>
<path d="M311.102 341.05V451.682H317.579V341.05H311.102Z" fill="#37474F"/>
<path d="M482.857 319.286H247.105V345.125H482.857V319.286Z" fill="#37474F"/>
<path d="M482.857 319.286H247.105V337.305H482.857V319.286Z" fill="#263238"/>
<path d="M491.772 306.367H238.202V332.205H491.772V306.367Z" fill="#37474F"/>
<path d="M253.159 345.136H148.415V657.296H253.159V345.136Z" fill="#DBDBDB"/>
<path d="M243.879 355.594H157.695V361.341H243.879V355.594Z" fill="#C7C7C7"/>
<path d="M243.879 366.17H157.695V371.917H243.879V366.17Z" fill="#C7C7C7"/>
<path d="M243.879 376.746H157.695V382.493H243.879V376.746Z" fill="#C7C7C7"/>
<path d="M243.879 387.31H157.695V393.057H243.879V387.31Z" fill="#C7C7C7"/>
<path d="M243.879 397.885H157.695V403.632H243.879V397.885Z" fill="#C7C7C7"/>
<path d="M243.879 408.461H157.695V414.208H243.879V408.461Z" fill="#C7C7C7"/>
<path d="M243.879 419.037H157.695V424.784H243.879V419.037Z" fill="#C7C7C7"/>
<path d="M243.879 429.612H157.695V435.36H243.879V429.612Z" fill="#C7C7C7"/>
<path d="M243.879 440.188H157.695V445.935H243.879V440.188Z" fill="#C7C7C7"/>
<path d="M243.879 450.764H157.695V456.511H243.879V450.764Z" fill="#C7C7C7"/>
<path d="M243.879 461.328H157.695V467.075H243.879V461.328Z" fill="#C7C7C7"/>
<path d="M243.879 471.903H157.695V477.651H243.879V471.903Z" fill="#C7C7C7"/>
<path d="M243.879 493.055H157.695V498.802H243.879V493.055Z" fill="#C7C7C7"/>
<path d="M243.879 503.631H157.695V509.378H243.879V503.631Z" fill="#C7C7C7"/>
<path d="M243.879 514.206H157.695V519.953H243.879V514.206Z" fill="#C7C7C7"/>
<path d="M243.879 524.782H157.695V530.529H243.879V524.782Z" fill="#C7C7C7"/>
<path d="M243.879 535.346H157.695V541.093H243.879V535.346Z" fill="#C7C7C7"/>
<path d="M243.879 545.922H157.695V551.669H243.879V545.922Z" fill="#C7C7C7"/>
<path d="M243.879 556.497H157.695V562.245H243.879V556.497Z" fill="#C7C7C7"/>
<path d="M243.879 567.073H157.695V572.82H243.879V567.073Z" fill="#C7C7C7"/>
<path d="M243.879 577.649H157.695V583.396H243.879V577.649Z" fill="#C7C7C7"/>
<path d="M243.879 588.224H157.695V593.972H243.879V588.224Z" fill="#C7C7C7"/>
<path d="M243.879 598.8H157.695V604.547H243.879V598.8Z" fill="#C7C7C7"/>
<path d="M243.879 609.376H157.695V615.123H243.879V609.376Z" fill="#C7C7C7"/>
<path d="M243.879 619.94H157.695V625.687H243.879V619.94Z" fill="#C7C7C7"/>
<path d="M243.879 630.516H157.695V636.263H243.879V630.516Z" fill="#C7C7C7"/>
<path d="M243.879 641.091H157.695V646.838H243.879V641.091Z" fill="#C7C7C7"/>
<path d="M581.548 345.136H476.804V657.296H581.548V345.136Z" fill="#DBDBDB"/>
<path d="M572.268 355.594H486.084V361.341H572.268V355.594Z" fill="#C7C7C7"/>
<path d="M572.268 366.17H486.084V371.917H572.268V366.17Z" fill="#C7C7C7"/>
<path d="M572.268 376.746H486.084V382.493H572.268V376.746Z" fill="#C7C7C7"/>
<path d="M572.268 387.31H486.084V393.057H572.268V387.31Z" fill="#C7C7C7"/>
<path d="M572.268 397.885H486.084V403.632H572.268V397.885Z" fill="#C7C7C7"/>
<path d="M572.268 408.461H486.084V414.208H572.268V408.461Z" fill="#C7C7C7"/>
<path d="M572.268 419.037H486.084V424.784H572.268V419.037Z" fill="#C7C7C7"/>
<path d="M572.268 429.612H486.084V435.36H572.268V429.612Z" fill="#C7C7C7"/>
<path d="M572.268 440.188H486.084V445.935H572.268V440.188Z" fill="#C7C7C7"/>
<path d="M572.268 450.764H486.084V456.511H572.268V450.764Z" fill="#C7C7C7"/>
<path d="M572.268 461.328H486.084V467.075H572.268V461.328Z" fill="#C7C7C7"/>
<path d="M572.268 471.903H486.084V477.651H572.268V471.903Z" fill="#C7C7C7"/>
<path d="M572.268 493.055H486.084V498.802H572.268V493.055Z" fill="#C7C7C7"/>
<path d="M572.268 503.631H486.084V509.378H572.268V503.631Z" fill="#C7C7C7"/>
<path d="M572.268 514.206H486.084V519.953H572.268V514.206Z" fill="#C7C7C7"/>
<path d="M572.268 524.782H486.084V530.529H572.268V524.782Z" fill="#C7C7C7"/>
<path d="M572.268 535.346H486.084V541.093H572.268V535.346Z" fill="#C7C7C7"/>
<path d="M572.268 545.922H486.084V551.669H572.268V545.922Z" fill="#C7C7C7"/>
<path d="M572.268 556.497H486.084V562.245H572.268V556.497Z" fill="#C7C7C7"/>
<path d="M572.268 567.073H486.084V572.82H572.268V567.073Z" fill="#C7C7C7"/>
<path d="M572.268 577.649H486.084V583.396H572.268V577.649Z" fill="#C7C7C7"/>
<path d="M572.268 588.224H486.084V593.972H572.268V588.224Z" fill="#C7C7C7"/>
<path d="M572.268 598.8H486.084V604.547H572.268V598.8Z" fill="#C7C7C7"/>
<path d="M572.268 609.376H486.084V615.123H572.268V609.376Z" fill="#C7C7C7"/>
<path d="M572.268 619.94H486.084V625.687H572.268V619.94Z" fill="#C7C7C7"/>
<path d="M572.268 630.516H486.084V636.263H572.268V630.516Z" fill="#C7C7C7"/>
<path d="M572.268 641.091H486.084V646.838H572.268V641.091Z" fill="#C7C7C7"/>
<path d="M387.97 496.824C387.334 517.657 390.067 542.754 379.727 561.785C371.636 576.671 356.326 585.94 340.792 591.451C306.639 603.57 260.202 601.945 239.51 567.379C231.266 553.565 231.761 526.16 247.848 517.315C256.092 512.805 265.514 512.334 274.653 510.603C286.641 508.341 295.616 502.359 301.869 491.877C314.105 471.385 313.175 455.628 316.955 432.745C317.674 428.505 318.993 424.372 323.492 421.086C327.554 417.649 332.477 415.385 337.73 414.538C342.266 412.965 347.121 412.536 351.862 413.29C361.979 415.127 371.059 425.29 378.502 431.744C385.945 438.198 389.242 444.769 389.101 454.839C389.019 468.841 388.394 482.833 387.97 496.824Z" fill="#263238"/>
<path d="M389.796 506.81C389.16 487.661 388.135 468.571 387.24 449.445C387.24 449.327 387.063 449.315 387.063 449.445C387.334 465.202 387.405 480.948 387.888 496.706C388.359 512.145 389.902 527.985 389.065 543.425C387.087 578.061 350.449 589.438 321.16 585.504C319.829 585.327 319.699 587.471 321.054 587.6C346.869 590.25 378.407 583.761 388.359 556.238C393.764 541.176 390.326 522.486 389.796 506.81Z" fill="#263238"/>
<path d="M318.851 431.061C318.837 430.994 318.801 430.935 318.749 430.892C318.696 430.849 318.63 430.825 318.562 430.825C318.494 430.825 318.429 430.849 318.376 430.892C318.323 430.935 318.287 430.994 318.274 431.061C315.918 450.022 315.035 472.28 302.964 488.085C296.994 495.814 288.83 501.561 279.539 504.573C272.179 506.928 264.583 506.61 256.998 507.517C227.368 511.05 224.023 550.444 244.138 567.438C244.55 567.791 245.186 567.085 244.774 566.696C230.748 553.659 227.462 531.648 240.852 516.691C251.593 504.691 270.059 510.167 283.909 504.302C312.609 492.148 317.332 458.725 318.851 431.061Z" fill="#263238"/>
<path d="M321.901 511.886C291.128 543.083 252.417 608.716 259.625 622.013C267.668 636.84 310.525 593.1 310.36 590.545C310.23 588.613 325.316 548.748 336.752 519.753C348.187 490.758 329.521 504.125 321.901 511.886Z" fill="#F7A9A0"/>
<path d="M310.643 590.545C311.962 586.281 332.477 533.721 338.342 517.092C344.207 500.463 338.766 495.328 322.019 510.555C305.272 525.783 268.552 576.636 260.179 603.593C252.1 629.597 265.49 629.597 283.155 617.608C297.617 607.845 310.643 590.545 310.643 590.545Z" fill="#7CAC8A"/>
<path d="M340.545 508.118C340.545 508.424 340.486 508.73 340.439 509.06C340.34 509.202 340.207 509.318 340.054 509.398C339.9 509.478 339.729 509.52 339.555 509.519C339.363 509.519 339.175 509.466 339.012 509.366C338.848 509.266 338.715 509.123 338.627 508.952C338.538 508.782 338.499 508.59 338.512 508.399C338.525 508.207 338.591 508.023 338.701 507.866C338.812 507.71 338.964 507.586 339.14 507.51C339.316 507.433 339.509 507.406 339.699 507.432C339.889 507.458 340.069 507.536 340.218 507.657C340.367 507.778 340.48 507.937 340.545 508.118ZM305.626 530.117C305.415 530.115 305.209 530.175 305.033 530.291C304.857 530.406 304.719 530.572 304.637 530.766C304.556 530.96 304.534 531.174 304.574 531.381C304.615 531.587 304.716 531.777 304.865 531.926C305.014 532.075 305.204 532.176 305.41 532.217C305.617 532.257 305.831 532.236 306.025 532.154C306.219 532.072 306.385 531.934 306.5 531.758C306.616 531.582 306.676 531.376 306.674 531.165C306.674 530.887 306.564 530.621 306.367 530.424C306.17 530.227 305.904 530.117 305.626 530.117ZM322.585 530.117C322.375 530.117 322.169 530.179 321.995 530.296C321.82 530.413 321.684 530.58 321.604 530.774C321.525 530.968 321.504 531.182 321.546 531.388C321.588 531.594 321.69 531.783 321.84 531.931C321.989 532.078 322.179 532.178 322.385 532.218C322.592 532.257 322.805 532.235 322.999 532.153C323.192 532.071 323.357 531.933 323.472 531.757C323.587 531.581 323.647 531.375 323.645 531.165C323.645 531.026 323.617 530.889 323.564 530.761C323.51 530.633 323.432 530.517 323.334 530.42C323.235 530.322 323.118 530.245 322.989 530.193C322.861 530.141 322.723 530.115 322.585 530.117ZM314.105 519.247C313.895 519.247 313.69 519.309 313.515 519.426C313.341 519.543 313.205 519.71 313.125 519.904C313.045 520.098 313.025 520.312 313.067 520.518C313.109 520.724 313.211 520.913 313.36 521.06C313.51 521.208 313.699 521.308 313.906 521.348C314.112 521.387 314.326 521.365 314.519 521.283C314.713 521.201 314.877 521.063 314.992 520.887C315.107 520.711 315.168 520.505 315.165 520.295C315.165 520.156 315.138 520.019 315.084 519.891C315.031 519.763 314.953 519.647 314.854 519.55C314.756 519.452 314.639 519.375 314.51 519.323C314.382 519.271 314.244 519.245 314.105 519.247ZM331.076 519.247C330.865 519.245 330.659 519.305 330.483 519.421C330.307 519.536 330.169 519.702 330.087 519.896C330.006 520.09 329.984 520.304 330.024 520.511C330.065 520.717 330.166 520.907 330.315 521.056C330.464 521.205 330.654 521.306 330.86 521.347C331.067 521.387 331.281 521.365 331.475 521.284C331.669 521.202 331.835 521.064 331.95 520.888C332.066 520.712 332.126 520.506 332.124 520.295C332.124 520.017 332.014 519.75 331.817 519.554C331.62 519.357 331.354 519.247 331.076 519.247ZM288.679 552.811C288.468 552.809 288.262 552.869 288.086 552.985C287.91 553.1 287.772 553.266 287.69 553.46C287.608 553.654 287.587 553.868 287.627 554.075C287.668 554.282 287.769 554.472 287.918 554.621C288.067 554.769 288.257 554.871 288.463 554.911C288.67 554.952 288.884 554.93 289.078 554.848C289.272 554.766 289.438 554.629 289.553 554.453C289.669 554.276 289.729 554.07 289.727 553.859C289.727 553.721 289.7 553.583 289.646 553.455C289.593 553.328 289.514 553.211 289.416 553.114C289.317 553.016 289.2 552.94 289.072 552.888C288.943 552.836 288.806 552.81 288.667 552.811H288.679ZM305.638 552.811C305.427 552.809 305.221 552.869 305.044 552.985C304.868 553.1 304.731 553.266 304.649 553.46C304.567 553.654 304.545 553.868 304.586 554.075C304.626 554.282 304.728 554.472 304.876 554.621C305.025 554.769 305.215 554.871 305.422 554.911C305.629 554.952 305.843 554.93 306.037 554.848C306.231 554.766 306.397 554.629 306.512 554.453C306.628 554.276 306.688 554.07 306.686 553.859C306.686 553.721 306.658 553.583 306.605 553.455C306.552 553.328 306.473 553.211 306.375 553.114C306.276 553.016 306.159 552.94 306.031 552.888C305.902 552.836 305.765 552.81 305.626 552.811H305.638ZM322.597 552.811C322.386 552.811 322.181 552.874 322.006 552.991C321.832 553.108 321.696 553.274 321.616 553.468C321.536 553.663 321.516 553.876 321.558 554.082C321.6 554.288 321.702 554.477 321.851 554.625C322.001 554.773 322.191 554.873 322.397 554.912C322.603 554.952 322.817 554.929 323.01 554.847C323.204 554.765 323.369 554.627 323.484 554.451C323.599 554.276 323.659 554.069 323.656 553.859C323.656 553.72 323.629 553.581 323.574 553.453C323.52 553.324 323.441 553.207 323.341 553.11C323.241 553.012 323.123 552.935 322.993 552.884C322.863 552.833 322.724 552.808 322.585 552.811H322.597ZM297.158 541.941C296.948 541.939 296.741 541.999 296.565 542.115C296.389 542.23 296.251 542.396 296.17 542.59C296.088 542.784 296.066 542.998 296.106 543.205C296.147 543.411 296.248 543.601 296.397 543.75C296.546 543.899 296.736 544.001 296.943 544.041C297.149 544.082 297.363 544.06 297.558 543.978C297.752 543.896 297.917 543.759 298.033 543.582C298.148 543.406 298.209 543.2 298.206 542.989C298.206 542.851 298.179 542.713 298.126 542.585C298.072 542.457 297.994 542.341 297.895 542.244C297.797 542.146 297.68 542.069 297.551 542.017C297.423 541.965 297.285 541.939 297.146 541.941H297.158ZM314.117 541.941C313.907 541.941 313.702 542.004 313.527 542.121C313.352 542.238 313.217 542.404 313.137 542.598C313.057 542.792 313.037 543.006 313.078 543.212C313.12 543.418 313.222 543.607 313.372 543.755C313.521 543.902 313.711 544.002 313.918 544.042C314.124 544.081 314.337 544.059 314.531 543.977C314.724 543.895 314.889 543.757 315.004 543.581C315.119 543.405 315.179 543.199 315.177 542.989C315.177 542.85 315.149 542.711 315.095 542.583C315.041 542.454 314.962 542.337 314.862 542.24C314.762 542.142 314.644 542.065 314.514 542.014C314.384 541.963 314.245 541.938 314.105 541.941H314.117ZM288.667 575.482C288.456 575.479 288.25 575.54 288.074 575.656C287.898 575.771 287.76 575.936 287.678 576.131C287.597 576.325 287.575 576.539 287.615 576.746C287.656 576.952 287.757 577.142 287.906 577.291C288.055 577.44 288.245 577.541 288.451 577.582C288.658 577.622 288.872 577.6 289.066 577.519C289.261 577.437 289.426 577.299 289.542 577.123C289.657 576.947 289.718 576.741 289.715 576.53C289.715 576.252 289.605 575.985 289.408 575.789C289.212 575.592 288.945 575.482 288.667 575.482ZM305.626 575.482C305.415 575.479 305.209 575.54 305.033 575.656C304.857 575.771 304.719 575.936 304.637 576.131C304.556 576.325 304.534 576.539 304.574 576.746C304.615 576.952 304.716 577.142 304.865 577.291C305.014 577.44 305.204 577.541 305.41 577.582C305.617 577.622 305.831 577.6 306.025 577.519C306.219 577.437 306.385 577.299 306.5 577.123C306.616 576.947 306.676 576.741 306.674 576.53C306.674 576.252 306.564 575.985 306.367 575.789C306.17 575.592 305.904 575.482 305.626 575.482ZM280.188 564.635C279.978 564.635 279.772 564.698 279.598 564.815C279.423 564.932 279.287 565.098 279.207 565.292C279.127 565.487 279.107 565.7 279.149 565.906C279.191 566.112 279.293 566.301 279.442 566.449C279.592 566.597 279.782 566.697 279.988 566.736C280.195 566.776 280.408 566.753 280.602 566.671C280.795 566.589 280.96 566.451 281.075 566.275C281.19 566.1 281.25 565.893 281.248 565.683C281.248 565.545 281.22 565.407 281.167 565.28C281.113 565.152 281.035 565.036 280.936 564.938C280.838 564.841 280.721 564.764 280.592 564.712C280.464 564.66 280.326 564.634 280.188 564.635ZM297.158 564.635C296.948 564.633 296.741 564.693 296.565 564.809C296.389 564.925 296.251 565.09 296.17 565.284C296.088 565.478 296.066 565.692 296.106 565.899C296.147 566.106 296.248 566.296 296.397 566.445C296.546 566.594 296.736 566.695 296.943 566.735C297.149 566.776 297.363 566.754 297.558 566.672C297.752 566.59 297.917 566.453 298.033 566.277C298.148 566.101 298.209 565.894 298.206 565.683C298.206 565.545 298.179 565.407 298.126 565.28C298.072 565.152 297.994 565.036 297.895 564.938C297.797 564.841 297.68 564.764 297.551 564.712C297.423 564.66 297.285 564.634 297.146 564.635H297.158ZM314.117 564.635C313.907 564.635 313.702 564.698 313.527 564.815C313.352 564.932 313.217 565.098 313.137 565.292C313.057 565.487 313.037 565.7 313.078 565.906C313.12 566.112 313.222 566.301 313.372 566.449C313.521 566.597 313.711 566.697 313.918 566.736C314.124 566.776 314.337 566.753 314.531 566.671C314.724 566.589 314.889 566.451 315.004 566.275C315.119 566.1 315.179 565.893 315.177 565.683C315.177 565.544 315.149 565.405 315.095 565.277C315.041 565.148 314.962 565.031 314.862 564.934C314.762 564.836 314.644 564.759 314.514 564.708C314.384 564.657 314.245 564.632 314.105 564.635H314.117ZM271.72 598.2C271.513 598.202 271.312 598.265 271.141 598.382C270.97 598.498 270.838 598.663 270.76 598.855C270.683 599.046 270.664 599.257 270.705 599.459C270.747 599.662 270.848 599.848 270.995 599.993C271.142 600.138 271.329 600.237 271.532 600.276C271.735 600.316 271.945 600.295 272.136 600.215C272.326 600.135 272.489 600.001 272.604 599.829C272.719 599.657 272.78 599.455 272.78 599.248C272.78 599.107 272.752 598.968 272.697 598.838C272.642 598.709 272.562 598.592 272.461 598.494C272.359 598.396 272.24 598.32 272.108 598.269C271.977 598.218 271.837 598.195 271.696 598.2H271.72ZM288.691 598.2C288.483 598.2 288.281 598.261 288.108 598.376C287.936 598.491 287.802 598.655 287.722 598.847C287.643 599.038 287.622 599.249 287.663 599.452C287.703 599.656 287.803 599.842 287.949 599.989C288.096 600.135 288.283 600.235 288.486 600.276C288.689 600.316 288.9 600.295 289.092 600.216C289.283 600.137 289.447 600.002 289.562 599.83C289.677 599.658 289.739 599.455 289.739 599.248C289.739 599.108 289.711 598.97 289.657 598.841C289.603 598.712 289.523 598.596 289.424 598.498C289.324 598.4 289.205 598.324 289.075 598.272C288.946 598.221 288.807 598.196 288.667 598.2H288.691ZM280.188 587.329C279.978 587.329 279.772 587.392 279.598 587.509C279.423 587.626 279.287 587.792 279.207 587.986C279.127 588.181 279.107 588.395 279.149 588.6C279.191 588.806 279.293 588.995 279.442 589.143C279.592 589.291 279.782 589.391 279.988 589.43C280.195 589.47 280.408 589.447 280.602 589.365C280.795 589.283 280.96 589.145 281.075 588.97C281.19 588.794 281.25 588.588 281.248 588.378C281.248 588.239 281.22 588.102 281.167 587.974C281.113 587.846 281.035 587.73 280.936 587.632C280.838 587.535 280.721 587.458 280.592 587.406C280.464 587.354 280.326 587.328 280.188 587.329ZM297.158 587.329C296.948 587.327 296.741 587.388 296.565 587.503C296.389 587.619 296.251 587.784 296.17 587.978C296.088 588.172 296.066 588.387 296.106 588.593C296.147 588.8 296.248 588.99 296.397 589.139C296.546 589.288 296.736 589.389 296.943 589.429C297.149 589.47 297.363 589.448 297.558 589.366C297.752 589.285 297.917 589.147 298.033 588.971C298.148 588.795 298.209 588.588 298.206 588.378C298.206 588.239 298.179 588.102 298.126 587.974C298.072 587.846 297.994 587.73 297.895 587.632C297.797 587.535 297.68 587.458 297.551 587.406C297.423 587.354 297.285 587.328 297.146 587.329H297.158ZM271.708 620.894C271.501 620.896 271.3 620.96 271.129 621.076C270.958 621.193 270.826 621.357 270.748 621.549C270.671 621.741 270.652 621.951 270.694 622.154C270.735 622.356 270.836 622.542 270.983 622.687C271.13 622.833 271.317 622.931 271.52 622.971C271.723 623.01 271.933 622.989 272.124 622.909C272.315 622.829 272.478 622.695 272.592 622.523C272.707 622.351 272.768 622.149 272.768 621.942C272.768 621.802 272.74 621.664 272.686 621.535C272.632 621.407 272.553 621.29 272.453 621.192C272.353 621.095 272.235 621.018 272.105 620.967C271.975 620.915 271.836 620.891 271.696 620.894H271.708ZM263.229 610.024C263.018 610.021 262.812 610.082 262.636 610.197C262.46 610.313 262.322 610.478 262.24 610.672C262.158 610.867 262.137 611.081 262.177 611.287C262.218 611.494 262.319 611.684 262.468 611.833C262.617 611.982 262.807 612.083 263.013 612.124C263.22 612.164 263.434 612.142 263.628 612.06C263.822 611.979 263.988 611.841 264.103 611.665C264.219 611.489 264.279 611.282 264.277 611.072C264.277 610.933 264.25 610.796 264.196 610.668C264.143 610.54 264.064 610.424 263.966 610.326C263.867 610.229 263.75 610.152 263.622 610.1C263.493 610.048 263.356 610.022 263.217 610.024H263.229ZM280.188 610.024C279.978 610.024 279.772 610.086 279.598 610.203C279.423 610.32 279.287 610.486 279.207 610.681C279.127 610.875 279.107 611.089 279.149 611.295C279.191 611.501 279.293 611.689 279.442 611.837C279.592 611.985 279.782 612.085 279.988 612.125C280.195 612.164 280.408 612.141 280.602 612.059C280.795 611.977 280.96 611.84 281.075 611.664C281.19 611.488 281.25 611.282 281.248 611.072C281.248 610.933 281.22 610.796 281.167 610.668C281.113 610.54 281.035 610.424 280.936 610.326C280.838 610.229 280.721 610.152 280.592 610.1C280.464 610.048 280.326 610.022 280.188 610.024Z" fill="white"/>
<path d="M298.477 638.3L301.55 619.869L305.967 587.165C305.967 587.165 295.568 569.004 301.597 555.979C304.648 549.372 331.37 508.353 342.605 500.109C353.204 492.442 368.514 500.651 374.191 506.645C396.166 529.775 406.53 575.706 414.421 638.265L298.477 638.3Z" fill="#F7A9A0"/>
<path d="M302.329 614.087L305.968 587.176C305.968 587.176 295.569 569.016 301.598 555.979C304.649 549.372 331.371 508.353 342.606 500.109C353.205 492.454 368.515 500.651 374.192 506.657C393.223 526.678 403.551 563.823 411.101 614.051L302.329 614.087Z" fill="#7CAC8A"/>
<path d="M347.434 586.623C342.303 586.173 337.146 586.106 332.006 586.423C329.462 586.611 326.93 586.917 324.398 587.282C323.138 587.459 321.878 587.6 320.606 587.73C319.284 587.895 317.947 587.895 316.625 587.73C316.611 587.724 316.595 587.723 316.58 587.725C316.565 587.727 316.551 587.732 316.538 587.741C316.526 587.749 316.516 587.761 316.509 587.774C316.502 587.788 316.498 587.803 316.498 587.818C316.498 587.833 316.502 587.848 316.509 587.862C316.516 587.875 316.526 587.887 316.538 587.895C316.551 587.904 316.565 587.91 316.58 587.912C316.595 587.913 316.611 587.912 316.625 587.906C317.855 588.19 319.102 588.39 320.358 588.507C321.578 588.589 322.801 588.589 324.021 588.507C326.612 588.342 329.191 588.048 331.782 587.859C336.999 587.459 342.216 587.07 347.457 587.047C347.513 587.044 347.566 587.018 347.604 586.976C347.641 586.934 347.66 586.879 347.657 586.823C347.654 586.767 347.629 586.714 347.587 586.677C347.545 586.639 347.49 586.62 347.434 586.623Z" fill="#263238"/>
<path d="M359.093 593.312C355.013 592.135 350.868 591.192 346.68 590.486C344.584 590.132 342.488 589.92 340.368 589.744C339.355 589.661 338.342 589.602 337.33 589.555C336.317 589.508 335.092 589.555 333.973 589.555C333.855 589.555 333.82 589.72 333.973 589.732C335.021 589.838 336.058 590.109 337.094 590.274L340.227 590.745C342.323 591.063 344.419 591.404 346.516 591.71C350.708 592.311 354.889 592.947 359.058 593.689C359.282 593.701 359.329 593.371 359.093 593.312Z" fill="#263238"/>
<path d="M301.551 619.869C302.14 614.405 302.729 608.928 303.423 603.476C304.118 598.023 304.719 592.547 305.449 587.094L305.555 587.483C303.992 585.257 302.706 582.848 301.728 580.31C300.724 577.794 299.997 575.176 299.561 572.502C299.137 569.819 299.018 567.097 299.207 564.388C299.513 561.683 300.186 559.032 301.209 556.509C303.245 551.557 305.774 546.822 308.758 542.377C311.671 537.896 314.848 533.594 318.274 529.493C315.106 533.78 312.138 538.219 309.359 542.754C306.557 547.244 304.157 551.973 302.187 556.886C301.218 559.32 300.592 561.876 300.326 564.482C300.179 567.099 300.309 569.724 300.715 572.314C301.115 574.913 301.798 577.46 302.752 579.91C303.672 582.366 304.89 584.7 306.379 586.858L306.497 587.035V587.235C305.767 592.688 304.907 598.117 304.142 603.57C303.376 609.023 302.434 614.44 301.551 619.869Z" fill="#263238"/>
<path d="M309.359 542.353C309.421 541.62 309.568 540.897 309.795 540.198C310.01 539.501 310.266 538.816 310.561 538.149C310.855 537.489 311.161 536.83 311.515 536.194C311.866 535.553 312.26 534.935 312.692 534.345C312.245 535.746 311.668 537.065 311.102 538.384C310.537 539.703 309.913 540.999 309.359 542.353Z" fill="#263238"/>
<path d="M213.931 730.431H516.033L527.292 673.808H202.672L213.931 730.431Z" fill="#7CAC8A"/>
<path opacity="0.12" d="M202.684 673.808L206.711 694.052H523.252L527.28 673.808H202.684Z" fill="black"/>
<path d="M197.018 687.104H532.944V669.874H197.018V687.104Z" fill="#7CAC8A"/>
<path d="M529.141 664.433C528.115 665.439 526.817 666.123 525.407 666.4C526.088 668.113 526.227 669.993 525.806 671.787C525.385 673.581 524.424 675.203 523.052 676.434C523.449 677.327 523.58 678.317 523.429 679.283C523.277 680.249 522.85 681.151 522.198 681.88C521.546 682.609 520.697 683.134 519.754 683.392C518.811 683.65 517.813 683.631 516.881 683.335C516.051 684.899 514.902 686.272 513.509 687.364C512.116 688.457 510.509 689.246 508.793 689.68C507.076 690.114 505.288 690.183 503.543 689.883C501.798 689.584 500.135 688.922 498.662 687.94C497.882 689.331 496.771 690.508 495.427 691.367C494.083 692.226 492.548 692.74 490.958 692.863C489.368 692.987 487.772 692.716 486.312 692.075C484.851 691.434 483.572 690.442 482.586 689.188C479.541 691.399 475.791 692.417 472.045 692.05C468.3 691.683 464.818 689.957 462.259 687.198C460.845 688.5 459.057 689.324 457.148 689.553C454.793 689.954 452.32 689.683 450.011 690.236C446.737 691.026 444.77 693.381 442.238 695.348C439.706 697.314 435.172 698.056 432.734 696.054C430.094 700.734 426.346 704.694 421.818 707.587C417.29 710.48 412.122 712.218 406.766 712.648C397.568 713.355 386.109 708.962 383.931 699.54C381.606 701.547 378.835 702.969 375.849 703.687C372.863 704.405 369.749 704.399 366.766 703.668C363.783 702.937 361.018 701.503 358.702 699.486C356.386 697.47 354.586 694.928 353.452 692.074C346.233 695.089 336.882 697.102 332.253 690.142C330.31 692.387 327.607 693.835 324.662 694.208C321.717 694.582 318.738 693.856 316.296 692.168C308.947 699.952 295.768 709.35 287.077 699.057C279.634 705.735 267.209 710.14 260.803 700.235C254.573 703.898 246.67 707.195 239.816 703.592C235.294 701.236 232.373 696.408 233.115 691.473C231.361 691.803 229.549 691.61 227.903 690.919C226.258 690.228 224.851 689.069 223.858 687.587C220.914 688.988 219.242 685.914 216.922 683.948C212.458 680.12 206.558 682.911 201.906 679.637C194.369 674.349 200.846 665.894 206.888 663.149C206.612 661.241 206.813 659.293 207.473 657.482C208.134 655.67 209.233 654.05 210.672 652.766C212.112 651.483 213.847 650.577 215.723 650.128C217.598 649.679 219.556 649.702 221.421 650.195C220.982 647.223 221.457 644.188 222.782 641.492C224.107 638.796 226.219 636.565 228.84 635.097C236.872 630.574 246.199 634.52 252.088 640.667C254.996 636.248 259.013 632.668 263.737 630.285C268.461 627.902 273.727 626.8 279.01 627.088C285.581 627.442 294.32 631.305 297.5 637.429C299.665 636.184 302.002 635.267 304.436 634.708C309.019 633.635 313.81 633.848 318.279 635.323C322.749 636.799 326.725 639.479 329.769 643.07C333.661 641.632 337.873 641.286 341.949 642.071C346.024 642.856 349.806 644.741 352.887 647.521C354.781 644.89 357.296 642.768 360.209 641.344C363.122 639.92 366.342 639.239 369.582 639.361C372.822 639.484 375.982 640.406 378.779 642.045C381.577 643.685 383.925 645.991 385.615 648.758C388.704 645.157 392.575 642.309 396.932 640.431C401.29 638.554 406.018 637.696 410.757 637.923C415.497 638.15 420.121 639.456 424.279 641.742C428.437 644.028 432.017 647.233 434.748 651.113C440.519 640.903 452.155 640.314 463.307 641.562C466.84 641.939 469.196 641.916 472.399 640.444C473.577 639.914 474.59 639.148 475.756 638.642C478.187 637.558 480.782 636.889 483.434 636.663C488.772 636.193 494.128 637.342 498.803 639.961C500.864 641.138 502.972 644.106 504.951 644.919C507.436 645.932 512.017 644.483 514.879 644.86C520.013 645.555 525.478 647.969 528.811 652.103C531.649 655.754 532.827 660.983 529.141 664.433Z" fill="#455A64"/>
<path d="M237.555 659.64C239.91 654.752 237.555 646.014 231.395 643.505C225.236 640.997 216.851 645.755 215.485 651.137C214.119 656.519 220.007 665.517 224.836 666.164C230.229 666.847 235.812 663.232 237.555 659.64Z" fill="#7CAC8A"/>
<path opacity="0.12" d="M212.906 652.432C217.275 656.177 224.529 659.499 230.465 659.251C228.144 662.116 225.504 664.708 222.598 666.977C222.433 667.118 222.598 667.424 222.822 667.295C229.629 662.761 236.33 654.564 236.624 646.096C236.624 645.979 236.471 645.979 236.459 646.096C236.171 648.47 235.499 650.781 234.469 652.939C232.114 647.875 225.448 644.071 220.337 642.87C220.304 642.859 220.268 642.861 220.237 642.877C220.206 642.892 220.183 642.919 220.172 642.952C220.161 642.985 220.164 643.021 220.179 643.052C220.194 643.082 220.222 643.106 220.254 643.117C221.818 643.75 223.348 644.465 224.836 645.26C222.009 647.757 219.878 652.621 220.513 656.354C217.935 655.202 215.487 653.777 213.212 652.103C213.059 651.926 212.705 652.268 212.906 652.432ZM230.724 658.957C228.28 658.788 225.868 658.297 223.552 657.497C227.051 657.696 230.523 656.781 233.468 654.882C232.651 656.303 231.734 657.665 230.724 658.957ZM234.257 653.327C234.069 653.716 233.869 654.093 233.657 654.505C231.357 655.673 228.869 656.426 226.308 656.731C228.741 655.203 230.638 652.955 231.737 650.301C232.667 651.232 233.51 652.245 234.257 653.327ZM231.596 650.124C230.659 651.779 229.524 653.313 228.216 654.694C227.733 654.588 227.262 654.446 226.791 654.293C227.551 653.724 228.163 652.978 228.573 652.121C228.983 651.264 229.18 650.32 229.146 649.37C229.806 649.453 230.477 649.571 231.16 649.712L231.596 650.124ZM226.579 649.229C226.794 649.573 226.968 649.94 227.097 650.324C227.205 650.799 227.248 651.286 227.226 651.773C226.442 651.885 225.644 651.853 224.871 651.679C225.05 650.865 225.323 650.075 225.684 649.323C226.013 649.253 226.284 649.241 226.579 649.229ZM227.014 649.229C227.672 649.228 228.329 649.267 228.981 649.347C228.81 650.133 228.557 650.898 228.227 651.632L227.321 651.761C227.461 651.343 227.506 650.899 227.453 650.461C227.4 650.023 227.25 649.602 227.014 649.229ZM228.086 651.902C227.646 652.745 227.055 653.499 226.343 654.128C225.913 653.958 225.493 653.765 225.083 653.551C224.866 653.039 224.781 652.48 224.836 651.926C225.345 652.163 225.901 652.284 226.464 652.28C227.026 652.276 227.58 652.147 228.086 651.902ZM225.024 645.343C227.035 646.424 228.916 647.732 230.63 649.241C227.964 648.359 225.062 648.527 222.516 649.712C223.145 648.146 223.99 646.676 225.024 645.343ZM222.374 650.053C223.368 649.676 224.404 649.419 225.46 649.288C225.001 649.819 224.681 650.454 224.527 651.138C224.373 651.822 224.39 652.534 224.577 653.21C223.598 652.637 222.729 651.896 222.009 651.019C222.127 650.713 222.256 650.395 222.374 650.077V650.053ZM221.833 651.537C222.592 652.475 223.531 653.25 224.595 653.819C225.659 654.387 226.826 654.737 228.027 654.847C227.343 655.544 226.599 656.179 225.801 656.743C224.765 656.884 223.693 656.978 222.563 657.084C221.986 656.861 221.385 656.637 220.831 656.389C221.011 654.752 221.346 653.135 221.833 651.561V651.537Z" fill="black"/>
<path d="M340.473 657.814C342.829 652.915 340.473 644.189 334.314 641.668C328.155 639.148 319.758 643.929 318.392 649.3C317.025 654.67 322.926 663.691 327.813 664.315C333.183 664.987 338.73 661.454 340.473 657.814Z" fill="#7CAC8A"/>
<path opacity="0.12" d="M315.824 650.607C320.194 654.34 327.437 657.673 333.384 657.426C331.063 660.291 328.423 662.882 325.517 665.152C325.352 665.293 325.517 665.587 325.741 665.47C332.548 660.935 339.249 652.727 339.543 644.271C339.543 644.249 339.535 644.228 339.519 644.213C339.504 644.197 339.483 644.189 339.461 644.189C339.439 644.189 339.418 644.197 339.403 644.213C339.387 644.228 339.378 644.249 339.378 644.271C339.088 646.644 338.416 648.955 337.388 651.113C335.033 646.049 328.367 642.245 323.256 641.044C323.223 641.033 323.187 641.036 323.156 641.051C323.125 641.067 323.102 641.094 323.091 641.127C323.08 641.159 323.082 641.195 323.098 641.226C323.113 641.257 323.141 641.28 323.173 641.291C324.738 641.922 326.268 642.637 327.755 643.435C324.928 645.932 322.796 650.784 323.432 654.517C320.852 653.374 318.403 651.952 316.131 650.277C315.919 650.101 315.624 650.43 315.824 650.607ZM333.619 657.131C331.174 656.959 328.763 656.464 326.447 655.659C329.944 655.872 333.416 654.956 336.352 653.045C335.545 654.474 334.632 655.84 333.619 657.131ZM337.153 651.502C336.964 651.891 336.764 652.268 336.552 652.68C334.252 653.847 331.764 654.601 329.203 654.906C331.636 653.377 333.533 651.13 334.632 648.475C335.576 649.4 336.428 650.414 337.176 651.502H337.153ZM334.479 648.287C333.554 649.95 332.422 651.489 331.111 652.868C330.628 652.76 330.152 652.622 329.686 652.456C330.447 651.886 331.058 651.141 331.468 650.284C331.879 649.427 332.075 648.483 332.041 647.533C332.701 647.612 333.372 647.729 334.055 647.887L334.479 648.287ZM329.474 647.404C329.684 647.75 329.858 648.117 329.992 648.499C330.1 648.974 330.144 649.461 330.122 649.947C329.337 650.055 328.539 650.019 327.766 649.842C327.949 649.029 328.222 648.239 328.579 647.486C328.909 647.427 329.203 647.404 329.498 647.404H329.474ZM329.91 647.404C330.567 647.408 331.223 647.447 331.876 647.521C331.709 648.31 331.452 649.076 331.111 649.806C330.817 649.806 330.51 649.912 330.216 649.947C330.361 649.527 330.411 649.08 330.362 648.638C330.313 648.196 330.167 647.77 329.933 647.392L329.91 647.404ZM330.981 650.089C330.539 650.929 329.948 651.683 329.238 652.315C328.809 652.144 328.388 651.951 327.978 651.738C327.762 651.225 327.677 650.666 327.731 650.112C328.245 650.351 328.805 650.472 329.372 650.466C329.939 650.46 330.497 650.327 331.005 650.077L330.981 650.089ZM327.919 643.529C329.93 644.607 331.811 645.911 333.525 647.415C330.858 646.537 327.955 646.71 325.411 647.898C326.047 646.327 326.899 644.853 327.943 643.517L327.919 643.529ZM325.27 648.24C326.262 647.857 327.299 647.599 328.355 647.474C327.897 648.005 327.576 648.64 327.422 649.325C327.268 650.009 327.285 650.72 327.472 651.396C326.504 650.823 325.646 650.081 324.94 649.206L325.27 648.24ZM324.728 649.724C325.489 650.659 326.429 651.433 327.492 652.002C328.556 652.57 329.722 652.92 330.923 653.033C330.236 653.727 329.491 654.361 328.697 654.929C327.66 655.059 326.589 655.165 325.458 655.259H325.399C324.822 655.047 324.221 654.823 323.668 654.576C323.872 652.931 324.235 651.31 324.751 649.735L324.728 649.724Z" fill="black"/>
<path d="M419.002 680.014C424.326 678.836 429.755 671.641 427.976 665.258C426.198 658.874 417.271 655.141 412.183 657.355C407.096 659.569 403.598 669.756 406.071 673.972C408.827 678.648 415.104 680.838 419.002 680.014Z" fill="#7CAC8A"/>
<path opacity="0.12" d="M409.58 656.13C409.309 661.866 411.135 669.627 414.962 674.173C411.28 674.093 407.618 673.599 404.045 672.701C403.821 672.701 403.715 673.007 403.927 673.077C411.677 675.668 422.264 675.927 429.154 670.969C429.164 670.953 429.169 670.934 429.169 670.915C429.168 670.896 429.161 670.877 429.15 670.862C429.138 670.846 429.122 670.835 429.104 670.829C429.086 670.823 429.066 670.823 429.048 670.828C426.995 672.058 424.756 672.945 422.417 673.454C425.008 668.52 423.889 660.888 421.711 656.119C421.7 656.086 421.676 656.059 421.645 656.043C421.614 656.028 421.579 656.025 421.546 656.036C421.513 656.047 421.486 656.071 421.47 656.102C421.455 656.132 421.452 656.168 421.463 656.201C421.946 657.823 422.339 659.47 422.641 661.136C418.931 660.429 413.796 661.736 411.229 664.527C410.54 661.786 410.146 658.979 410.051 656.154C410.04 655.883 409.592 655.859 409.58 656.13ZM415.339 674.184C413.979 672.148 412.89 669.943 412.101 667.625C414.08 670.513 416.932 672.692 420.238 673.843C418.616 674.075 416.978 674.189 415.339 674.184ZM421.97 673.537C421.546 673.631 421.122 673.702 420.698 673.76C418.363 672.663 416.242 671.16 414.432 669.321C417.131 670.307 420.069 670.43 422.841 669.674C422.672 670.986 422.38 672.279 421.97 673.537ZM422.865 669.462C420.986 669.744 419.079 669.792 417.188 669.603C416.974 669.156 416.79 668.696 416.635 668.225C417.551 668.473 418.514 668.495 419.441 668.29C420.368 668.085 421.231 667.658 421.958 667.048C422.303 667.629 422.621 668.229 422.912 668.849C422.9 669.061 422.888 669.262 422.865 669.462ZM420.509 664.951C420.365 665.332 420.18 665.695 419.956 666.035C419.659 666.42 419.301 666.754 418.896 667.024C418.331 666.477 417.872 665.83 417.542 665.116C418.293 664.753 419.083 664.476 419.897 664.292L420.509 664.951ZM420.78 665.305C421.183 665.819 421.552 666.358 421.887 666.918C421.168 667.276 420.409 667.549 419.626 667.731L418.955 667.095C419.371 666.95 419.751 666.715 420.064 666.405C420.378 666.095 420.619 665.719 420.768 665.305H420.78ZM419.332 667.79C418.394 667.966 417.431 667.966 416.493 667.79C416.362 667.349 416.26 666.901 416.187 666.447C416.469 665.957 416.875 665.551 417.365 665.269C417.484 665.808 417.722 666.313 418.06 666.749C418.398 667.184 418.828 667.54 419.32 667.79H419.332ZM422.629 661.348C423.005 663.596 423.124 665.88 422.983 668.155C422.049 665.511 420.135 663.326 417.636 662.054C419.255 661.587 420.932 661.35 422.617 661.348H422.629ZM417.259 662.16C418.172 662.706 419.011 663.367 419.756 664.127C419.055 664.089 418.356 664.226 417.722 664.523C417.087 664.821 416.535 665.272 416.117 665.835C415.971 664.707 416.026 663.563 416.281 662.455L417.259 662.16ZM415.763 662.643C415.486 663.817 415.448 665.035 415.65 666.225C415.853 667.414 416.292 668.551 416.941 669.568C415.971 669.455 415.013 669.254 414.079 668.967C413.337 668.225 412.595 667.448 411.83 666.612C411.641 666.011 411.476 665.434 411.312 664.822C412.718 663.951 414.205 663.217 415.751 662.631L415.763 662.643Z" fill="black"/>
<path d="M500.275 667.036C494.963 665.858 489.522 658.662 491.301 652.279C493.079 645.896 502.006 642.163 507.094 644.389C512.181 646.615 515.679 656.778 513.206 660.994C510.462 665.67 504.173 667.86 500.275 667.036Z" fill="#7CAC8A"/>
<path opacity="0.12" d="M509.238 643.176C509.138 646 508.743 648.807 508.06 651.549C505.504 648.758 500.358 647.463 496.648 648.157C496.951 646.492 497.344 644.845 497.826 643.223C497.831 643.207 497.833 643.189 497.832 643.172C497.831 643.155 497.826 643.139 497.819 643.123C497.811 643.108 497.8 643.094 497.788 643.083C497.775 643.072 497.76 643.063 497.743 643.058C497.727 643.053 497.71 643.05 497.693 643.052C497.676 643.053 497.659 643.057 497.644 643.065C497.629 643.073 497.615 643.083 497.604 643.096C497.592 643.109 497.584 643.124 497.578 643.14C495.4 647.91 494.293 655.542 496.872 660.476C494.533 659.967 492.294 659.08 490.241 657.85C490.232 657.844 490.222 657.839 490.211 657.837C490.2 657.835 490.189 657.835 490.178 657.837C490.167 657.839 490.156 657.844 490.147 657.85C490.138 657.856 490.13 657.864 490.124 657.873C490.117 657.883 490.113 657.893 490.111 657.904C490.109 657.915 490.109 657.926 490.111 657.937C490.113 657.948 490.118 657.959 490.124 657.968C490.13 657.977 490.138 657.985 490.147 657.991C497.025 662.961 507.612 662.702 515.373 660.099C515.574 660.029 515.468 659.675 515.256 659.734C511.677 660.62 508.012 661.114 504.327 661.206C508.154 656.649 509.991 648.888 509.709 643.152C509.685 642.881 509.238 642.905 509.238 643.176ZM499.039 660.841C502.345 659.69 505.197 657.511 507.177 654.623C506.392 656.943 505.303 659.149 503.938 661.183C502.299 661.195 500.662 661.089 499.039 660.865V660.841ZM496.448 656.672C499.22 657.429 502.158 657.305 504.857 656.319C503.04 658.158 500.916 659.665 498.579 660.771C498.156 660.7 497.732 660.629 497.319 660.535C496.908 659.302 496.616 658.032 496.448 656.743V656.672ZM496.365 655.86C496.672 655.235 496.99 654.682 497.331 654.058C498.058 654.669 498.921 655.095 499.848 655.3C500.775 655.505 501.738 655.483 502.654 655.235C502.494 655.704 502.31 656.164 502.101 656.613C500.206 656.802 498.295 656.754 496.413 656.472C496.389 656.283 496.389 656.083 496.365 655.883V655.86ZM499.369 651.302C500.183 651.477 500.974 651.75 501.724 652.114C501.388 652.832 500.926 653.482 500.358 654.034C499.958 653.754 499.601 653.416 499.298 653.033C499.074 652.697 498.889 652.338 498.744 651.961C498.968 651.761 499.168 651.537 499.369 651.325V651.302ZM500.334 654.093C500.122 654.317 499.898 654.529 499.675 654.729C498.889 654.548 498.127 654.28 497.402 653.928C497.734 653.362 498.104 652.819 498.509 652.303C498.659 652.722 498.901 653.102 499.217 653.416C499.532 653.73 499.914 653.969 500.334 654.117V654.093ZM501.983 652.244C502.474 652.524 502.881 652.931 503.161 653.422C503.078 653.875 502.972 654.323 502.843 654.764C501.909 654.941 500.95 654.941 500.016 654.764C500.506 654.517 500.936 654.165 501.276 653.733C501.615 653.302 501.857 652.802 501.983 652.268V652.244ZM501.653 649.052C499.157 650.333 497.244 652.52 496.307 655.165C496.165 652.886 496.284 650.598 496.66 648.346C498.35 648.354 500.031 648.6 501.653 649.076V649.052ZM503.008 649.465C503.273 650.567 503.332 651.709 503.184 652.833C502.764 652.27 502.21 651.82 501.573 651.524C500.936 651.228 500.235 651.095 499.533 651.137C500.277 650.372 501.116 649.707 502.03 649.158C502.36 649.288 502.69 649.37 503.008 649.488V649.465ZM508.036 651.82C507.883 652.421 507.707 652.998 507.518 653.61C506.741 654.446 506.011 655.224 505.269 655.966C504.331 656.252 503.369 656.453 502.395 656.566C503.045 655.549 503.483 654.413 503.686 653.223C503.888 652.034 503.85 650.816 503.573 649.641C505.127 650.224 506.621 650.953 508.036 651.82Z" fill="black"/>
<path d="M279.952 688.988C274.641 687.869 269.211 680.615 270.978 674.232C272.744 667.848 281.683 664.115 286.771 666.341C291.858 668.567 295.368 678.742 292.895 682.947C290.139 687.634 283.862 689.824 279.952 688.988Z" fill="#7CAC8A"/>
<path opacity="0.12" d="M288.914 665.128C288.828 667.954 288.433 670.761 287.737 673.501C285.181 670.71 280.046 669.415 276.337 670.11C276.62 668.45 276.994 666.806 277.455 665.187C277.468 665.154 277.467 665.118 277.452 665.086C277.438 665.054 277.412 665.029 277.379 665.016C277.346 665.004 277.31 665.005 277.278 665.019C277.246 665.033 277.221 665.06 277.208 665.093C275.018 669.862 273.911 677.506 276.501 682.428C274.162 681.922 271.922 681.035 269.871 679.802C269.777 679.802 269.683 679.885 269.765 679.943C276.643 684.913 287.242 684.654 294.991 682.051C295.203 681.981 295.085 681.639 294.873 681.686C291.301 682.585 287.639 683.079 283.956 683.159C287.784 678.601 289.609 670.84 289.338 665.116C289.362 664.845 288.926 664.869 288.914 665.128ZM278.716 682.793C282.025 681.636 284.88 679.454 286.865 676.563C286.078 678.883 284.989 681.088 283.626 683.123C281.984 683.149 280.343 683.051 278.716 682.829V682.793ZM276.125 678.613C278.895 679.373 281.834 679.254 284.533 678.271C282.72 680.11 280.594 681.614 278.256 682.711L276.996 682.487C276.587 681.237 276.295 679.952 276.125 678.648V678.613ZM276.042 677.812C276.348 677.176 276.666 676.575 277.008 675.998C277.735 676.609 278.598 677.035 279.525 677.24C280.452 677.445 281.415 677.423 282.331 677.176C282.173 677.642 281.988 678.098 281.778 678.542C279.887 678.734 277.98 678.691 276.101 678.412C276.066 678.248 276.066 678.047 276.042 677.847V677.812ZM279.01 673.231C279.824 673.415 280.614 673.692 281.365 674.055C281.027 674.764 280.568 675.409 280.011 675.963C279.611 675.686 279.254 675.353 278.951 674.974C278.718 674.639 278.532 674.275 278.398 673.89C278.657 673.713 278.845 673.49 279.01 673.231ZM279.976 676.033L279.316 676.658C278.532 676.473 277.77 676.205 277.043 675.857C277.385 675.294 277.758 674.752 278.162 674.232C278.308 674.661 278.55 675.051 278.871 675.372C279.192 675.692 279.582 675.935 280.011 676.081L279.976 676.033ZM281.624 674.173C282.113 674.456 282.519 674.862 282.802 675.35C282.731 675.809 282.625 676.262 282.484 676.705C281.55 676.875 280.592 676.875 279.658 676.705C280.154 676.464 280.591 676.117 280.938 675.687C281.284 675.257 281.53 674.756 281.66 674.22L281.624 674.173ZM281.295 670.981C278.801 672.262 276.892 674.449 275.96 677.093C275.819 674.818 275.937 672.535 276.313 670.286C278.024 670.286 279.726 670.536 281.365 671.028L281.295 670.981ZM282.661 671.393C282.916 672.501 282.972 673.646 282.826 674.773C282.407 674.207 281.854 673.755 281.217 673.456C280.579 673.158 279.877 673.024 279.175 673.066C279.924 672.311 280.762 671.65 281.672 671.099L282.661 671.393ZM287.678 673.749C287.525 674.361 287.348 674.926 287.171 675.539C287.171 675.539 287.171 675.539 287.112 675.539C286.347 676.375 285.605 677.152 284.863 677.894C283.924 678.173 282.963 678.37 281.989 678.483C282.639 677.468 283.077 676.334 283.28 675.146C283.482 673.959 283.444 672.742 283.167 671.57C284.751 672.152 286.274 672.89 287.713 673.772L287.678 673.749Z" fill="black"/>
<path d="M259.625 621.965C266.55 631.882 285.405 633.742 332.454 642.987C338.955 644.259 360.271 600.743 353.429 599.036C344.761 596.869 310.667 590.344 308.111 590.179C286.571 588.802 254.926 615.253 259.625 621.965Z" fill="#F7A9A0"/>
<path d="M344.019 596.881C344.019 596.881 363.957 599.884 373.932 604.712C387.299 611.166 396.179 622.248 399.618 627.088C406.802 637.252 417.142 666.777 409.145 671.24C401.926 675.28 392.881 644.565 392.881 644.565C392.881 644.565 407.273 674.361 397.675 677.623C388.076 680.886 379.597 644.648 379.597 644.648C379.597 644.648 393.729 675.586 383.271 677.388C375.393 678.754 365.865 646.344 365.865 646.344C365.865 646.344 377.795 673.03 369.751 674.773C360.86 676.764 350.202 647.321 350.202 647.321C329.003 648.322 318.498 640.126 311.715 633.413C310.078 631.811 344.019 596.881 344.019 596.881Z" fill="#F7A9A0"/>
<path d="M388.535 633.966C390.349 637.405 392.221 640.867 393.717 644.459C395.213 648.051 396.602 651.69 397.768 655.4C399.394 660.223 400.453 665.219 400.924 670.286C399.417 661.359 394.223 648.428 392.681 644.836C391.138 641.244 389.854 637.593 388.347 634.013C388.382 633.919 388.535 633.884 388.535 633.966Z" fill="#263238"/>
<path d="M375.498 639.16C377.63 643.659 379.915 648.04 381.846 652.621C383.778 657.202 385.191 661.689 386.792 666.376C386.922 666.73 386.686 666.683 386.545 666.317C384.755 661.701 382.741 657.579 380.904 652.974C379.067 648.369 377.371 643.717 375.392 639.207C375.357 639.136 375.475 639.077 375.498 639.16Z" fill="#263238"/>
<path d="M363.498 641.609C366.929 648.421 369.648 655.568 371.612 662.937C371.73 663.291 371.424 663.197 371.294 662.831C368.727 655.695 366.772 650.077 363.262 641.739C363.203 641.609 363.415 641.433 363.498 641.609Z" fill="#263238"/>
<path d="M385.744 612.297C388.068 613.807 390.238 615.543 392.221 617.478C394.236 619.388 396.095 621.456 397.78 623.661C398.64 624.757 399.405 625.911 400.206 627.053C401.007 628.196 401.702 629.409 402.303 630.586C403.633 633.023 404.714 635.587 405.529 638.241C404.835 637.064 404.352 635.756 403.586 634.59L402.597 632.789C402.255 632.2 401.879 631.611 401.525 631.046C400.074 628.723 398.502 626.478 396.814 624.321C395.166 622.154 393.387 620.069 391.55 618.056C390.62 617.043 389.678 616.053 388.7 615.088C387.723 614.122 386.769 613.227 385.744 612.297Z" fill="#263238"/>
<path d="M348.176 596.881L306.957 642.811C306.957 642.811 265.278 633.236 259.142 622.554C255.103 615.488 286.476 587.023 310.16 590.344L348.176 596.881Z" fill="#7CAC8A"/>
<path d="M289.715 599.248C289.718 599.458 289.657 599.665 289.542 599.841C289.426 600.017 289.261 600.155 289.066 600.236C288.872 600.318 288.658 600.34 288.451 600.299C288.245 600.259 288.055 600.158 287.906 600.009C287.757 599.86 287.656 599.67 287.615 599.463C287.575 599.257 287.597 599.043 287.678 598.848C287.76 598.654 287.898 598.489 288.074 598.373C288.25 598.258 288.456 598.197 288.667 598.2C288.945 598.2 289.212 598.31 289.408 598.507C289.605 598.703 289.715 598.97 289.715 599.248ZM305.626 598.2C305.419 598.2 305.216 598.261 305.044 598.376C304.871 598.491 304.737 598.655 304.658 598.847C304.578 599.038 304.557 599.249 304.598 599.452C304.638 599.655 304.738 599.842 304.885 599.989C305.031 600.135 305.218 600.235 305.421 600.276C305.625 600.316 305.836 600.295 306.027 600.216C306.219 600.137 306.382 600.002 306.497 599.83C306.613 599.658 306.674 599.455 306.674 599.248C306.674 598.97 306.564 598.703 306.367 598.507C306.171 598.31 305.904 598.2 305.626 598.2ZM322.585 598.2C322.378 598.202 322.176 598.265 322.006 598.382C321.835 598.498 321.702 598.663 321.625 598.855C321.547 599.046 321.528 599.257 321.57 599.459C321.612 599.662 321.712 599.847 321.86 599.993C322.007 600.138 322.193 600.237 322.396 600.276C322.599 600.316 322.809 600.295 323 600.215C323.191 600.135 323.354 600.001 323.469 599.829C323.583 599.657 323.645 599.454 323.645 599.248C323.645 599.109 323.617 598.972 323.564 598.844C323.51 598.716 323.432 598.6 323.334 598.502C323.235 598.405 323.118 598.328 322.989 598.276C322.861 598.224 322.723 598.198 322.585 598.2ZM339.555 598.2C339.348 598.2 339.145 598.261 338.973 598.376C338.801 598.491 338.666 598.655 338.587 598.847C338.508 599.038 338.487 599.249 338.527 599.452C338.568 599.655 338.668 599.842 338.814 599.989C338.961 600.135 339.148 600.235 339.351 600.276C339.554 600.316 339.765 600.295 339.956 600.216C340.148 600.137 340.312 600.002 340.427 599.83C340.542 599.658 340.603 599.455 340.603 599.248C340.603 598.97 340.493 598.703 340.296 598.507C340.1 598.31 339.833 598.2 339.555 598.2ZM271.697 620.894C271.49 620.896 271.288 620.959 271.117 621.076C270.947 621.193 270.814 621.357 270.737 621.549C270.659 621.741 270.64 621.951 270.682 622.153C270.724 622.356 270.824 622.542 270.971 622.687C271.118 622.832 271.305 622.931 271.508 622.971C271.711 623.01 271.921 622.989 272.112 622.909C272.303 622.829 272.466 622.695 272.581 622.523C272.695 622.351 272.756 622.149 272.756 621.942C272.756 621.803 272.729 621.666 272.676 621.538C272.622 621.41 272.544 621.294 272.445 621.197C272.347 621.099 272.23 621.022 272.101 620.97C271.973 620.918 271.835 620.892 271.697 620.894ZM288.667 620.894C288.46 620.894 288.257 620.955 288.085 621.07C287.912 621.186 287.778 621.349 287.699 621.541C287.619 621.732 287.599 621.943 287.639 622.146C287.68 622.35 287.779 622.536 287.926 622.683C288.073 622.83 288.259 622.929 288.463 622.97C288.666 623.01 288.877 622.99 289.068 622.91C289.26 622.831 289.423 622.697 289.539 622.524C289.654 622.352 289.715 622.149 289.715 621.942C289.715 621.664 289.605 621.397 289.408 621.201C289.212 621.004 288.945 620.894 288.667 620.894ZM305.626 620.894C305.419 620.894 305.216 620.955 305.044 621.07C304.871 621.186 304.737 621.349 304.658 621.541C304.578 621.732 304.557 621.943 304.598 622.146C304.638 622.35 304.738 622.536 304.885 622.683C305.031 622.83 305.218 622.929 305.421 622.97C305.625 623.01 305.836 622.99 306.027 622.91C306.219 622.831 306.382 622.697 306.497 622.524C306.613 622.352 306.674 622.149 306.674 621.942C306.674 621.664 306.564 621.397 306.367 621.201C306.171 621.004 305.904 620.894 305.626 620.894ZM322.585 620.894C322.378 620.896 322.176 620.959 322.006 621.076C321.835 621.193 321.702 621.357 321.625 621.549C321.547 621.741 321.528 621.951 321.57 622.153C321.612 622.356 321.712 622.542 321.86 622.687C322.007 622.832 322.193 622.931 322.396 622.971C322.599 623.01 322.809 622.989 323 622.909C323.191 622.829 323.354 622.695 323.469 622.523C323.583 622.351 323.645 622.149 323.645 621.942C323.645 621.803 323.617 621.666 323.564 621.538C323.51 621.41 323.432 621.294 323.334 621.197C323.235 621.099 323.118 621.022 322.989 620.97C322.861 620.918 322.723 620.892 322.585 620.894ZM280.188 610.024C279.978 610.024 279.772 610.086 279.598 610.203C279.423 610.32 279.287 610.486 279.207 610.681C279.128 610.875 279.107 611.089 279.149 611.295C279.191 611.501 279.293 611.689 279.442 611.837C279.592 611.985 279.782 612.085 279.988 612.125C280.195 612.164 280.408 612.141 280.602 612.059C280.795 611.977 280.96 611.84 281.075 611.664C281.19 611.488 281.25 611.282 281.248 611.072C281.248 610.933 281.22 610.796 281.167 610.668C281.113 610.54 281.035 610.424 280.936 610.326C280.838 610.229 280.721 610.152 280.592 610.1C280.464 610.048 280.326 610.022 280.188 610.024ZM297.158 610.024C296.948 610.021 296.741 610.082 296.565 610.197C296.389 610.313 296.251 610.478 296.17 610.672C296.088 610.867 296.066 611.081 296.106 611.287C296.147 611.494 296.248 611.684 296.397 611.833C296.546 611.982 296.736 612.083 296.943 612.124C297.149 612.164 297.363 612.142 297.558 612.06C297.752 611.979 297.917 611.841 298.033 611.665C298.148 611.489 298.209 611.282 298.206 611.072C298.206 610.933 298.179 610.796 298.126 610.668C298.072 610.54 297.994 610.424 297.895 610.326C297.797 610.229 297.68 610.152 297.551 610.1C297.423 610.048 297.285 610.022 297.147 610.024H297.158ZM314.117 610.024C313.907 610.024 313.702 610.086 313.527 610.203C313.352 610.32 313.217 610.486 313.137 610.681C313.057 610.875 313.037 611.089 313.079 611.295C313.12 611.501 313.222 611.689 313.372 611.837C313.521 611.985 313.711 612.085 313.918 612.125C314.124 612.164 314.338 612.141 314.531 612.059C314.724 611.977 314.889 611.84 315.004 611.664C315.119 611.488 315.179 611.282 315.177 611.072C315.177 610.932 315.149 610.794 315.095 610.665C315.041 610.536 314.962 610.42 314.862 610.322C314.762 610.224 314.644 610.148 314.514 610.096C314.384 610.045 314.245 610.02 314.105 610.024H314.117ZM331.088 610.024C330.877 610.021 330.671 610.082 330.494 610.197C330.318 610.313 330.181 610.478 330.099 610.672C330.017 610.867 329.995 611.081 330.036 611.287C330.076 611.494 330.178 611.684 330.327 611.833C330.475 611.982 330.665 612.083 330.872 612.124C331.079 612.164 331.293 612.142 331.487 612.06C331.681 611.979 331.847 611.841 331.962 611.665C332.078 611.489 332.138 611.282 332.136 611.072C332.136 610.933 332.108 610.796 332.055 610.668C332.002 610.54 331.923 610.424 331.825 610.326C331.726 610.229 331.609 610.152 331.481 610.1C331.352 610.048 331.215 610.022 331.076 610.024H331.088ZM280.188 632.718C279.978 632.718 279.772 632.78 279.598 632.897C279.423 633.014 279.287 633.18 279.207 633.375C279.128 633.569 279.107 633.783 279.149 633.989C279.191 634.195 279.293 634.384 279.442 634.531C279.592 634.679 279.782 634.779 279.988 634.819C280.195 634.858 280.408 634.836 280.602 634.754C280.795 634.671 280.96 634.534 281.075 634.358C281.19 634.182 281.25 633.976 281.248 633.766C281.248 633.627 281.22 633.49 281.167 633.362C281.113 633.234 281.035 633.118 280.936 633.021C280.838 632.923 280.721 632.846 280.592 632.794C280.464 632.742 280.326 632.716 280.188 632.718ZM297.158 632.718C296.948 632.715 296.741 632.776 296.565 632.891C296.389 633.007 296.251 633.172 296.17 633.367C296.088 633.561 296.066 633.775 296.106 633.982C296.147 634.188 296.248 634.378 296.397 634.527C296.546 634.676 296.736 634.777 296.943 634.818C297.149 634.858 297.363 634.836 297.558 634.755C297.752 634.673 297.917 634.535 298.033 634.359C298.148 634.183 298.209 633.977 298.206 633.766C298.206 633.627 298.179 633.49 298.126 633.362C298.072 633.234 297.994 633.118 297.895 633.021C297.797 632.923 297.68 632.846 297.551 632.794C297.423 632.742 297.285 632.716 297.147 632.718H297.158ZM314.129 632.718C313.848 632.718 313.578 632.829 313.379 633.028C313.181 633.227 313.069 633.497 313.069 633.778C313.069 633.916 313.096 634.054 313.15 634.182C313.203 634.31 313.282 634.426 313.38 634.523C313.479 634.621 313.596 634.697 313.724 634.749C313.853 634.801 313.99 634.827 314.129 634.826L315.165 633.648C315.136 633.39 315.014 633.151 314.82 632.978C314.627 632.804 314.377 632.707 314.117 632.706L314.129 632.718Z" fill="white"/>
<path d="M281.919 597.776C285.734 595.008 296.487 588.554 310.183 590.274C310.301 590.274 310.313 590.486 310.183 590.474C299.843 590.179 285.887 595.585 281.919 597.94C281.907 597.999 281.824 597.858 281.919 597.776Z" fill="#263238"/>
<path d="M295.698 635.085C299.961 629.797 304.495 624.745 309.053 619.704C313.611 614.664 318.157 609.6 322.844 604.665C325.482 601.874 328.12 599.071 330.864 596.421C330.935 596.351 331.064 596.421 331.005 596.539C326.754 601.815 322.22 606.903 317.709 611.967C313.198 617.031 308.605 622.071 303.989 627.065C301.374 629.88 298.713 632.647 295.969 635.309C295.827 635.438 295.58 635.238 295.698 635.085Z" fill="#263238"/>
<path d="M348.259 596.28C345.727 595.519 343.145 594.932 340.533 594.525C337.93 594.031 335.316 593.595 332.713 593.171C327.519 592.335 316.602 589.979 307.004 590.003C306.898 590.003 307.44 590.521 307.546 590.521C312.115 590.274 344.855 596.786 347.587 596.975C347.478 597.149 347.379 597.33 347.293 597.516C347.293 597.658 347.375 597.823 347.517 597.728C347.858 597.505 348.094 597.222 348.412 596.975C348.473 596.93 348.519 596.869 348.546 596.798C348.573 596.728 348.578 596.651 348.562 596.577C348.546 596.504 348.508 596.436 348.454 596.384C348.401 596.331 348.333 596.295 348.259 596.28Z" fill="#263238"/>
<path d="M381.705 509.531C421.087 543.884 452.06 586.328 450.011 596.939C446.302 616.701 420.333 617.938 416.353 613.663C400.407 596.386 383.577 562.916 365.347 525.571C349.059 492.195 368.738 498.237 381.705 509.531Z" fill="#7CAC8A"/>
<path d="M374.533 508.471C374.535 508.682 374.475 508.888 374.359 509.064C374.244 509.24 374.078 509.378 373.884 509.46C373.69 509.541 373.476 509.563 373.269 509.523C373.062 509.482 372.873 509.381 372.724 509.232C372.575 509.083 372.473 508.893 372.433 508.687C372.392 508.48 372.414 508.266 372.496 508.072C372.578 507.877 372.715 507.712 372.891 507.596C373.068 507.481 373.274 507.42 373.485 507.423C373.763 507.423 374.029 507.533 374.226 507.73C374.422 507.926 374.533 508.193 374.533 508.471ZM373.485 530.117C373.274 530.115 373.068 530.175 372.891 530.291C372.715 530.406 372.578 530.572 372.496 530.766C372.414 530.96 372.392 531.174 372.433 531.381C372.473 531.587 372.575 531.777 372.724 531.926C372.873 532.075 373.062 532.176 373.269 532.217C373.476 532.257 373.69 532.236 373.884 532.154C374.078 532.072 374.244 531.934 374.359 531.758C374.475 531.582 374.535 531.376 374.533 531.165C374.533 530.887 374.422 530.621 374.226 530.424C374.029 530.227 373.763 530.117 373.485 530.117ZM390.444 530.117C390.233 530.117 390.028 530.179 389.853 530.296C389.679 530.413 389.543 530.58 389.463 530.774C389.383 530.968 389.363 531.182 389.405 531.388C389.447 531.594 389.549 531.783 389.698 531.931C389.848 532.078 390.038 532.178 390.244 532.218C390.45 532.257 390.664 532.235 390.857 532.153C391.051 532.071 391.216 531.933 391.331 531.757C391.446 531.581 391.506 531.375 391.503 531.165C391.503 531.026 391.476 530.889 391.423 530.761C391.369 530.633 391.291 530.517 391.192 530.42C391.094 530.322 390.977 530.245 390.848 530.193C390.72 530.141 390.582 530.115 390.444 530.117ZM364.982 519.247C364.771 519.245 364.565 519.305 364.389 519.421C364.212 519.536 364.075 519.702 363.993 519.896C363.911 520.09 363.889 520.304 363.93 520.511C363.97 520.717 364.072 520.907 364.221 521.056C364.37 521.205 364.559 521.306 364.766 521.347C364.973 521.387 365.187 521.365 365.381 521.284C365.575 521.202 365.741 521.064 365.856 520.888C365.972 520.712 366.032 520.506 366.03 520.295C366.03 520.017 365.92 519.75 365.723 519.554C365.526 519.357 365.26 519.247 364.982 519.247ZM381.941 519.247C381.73 519.245 381.523 519.305 381.347 519.421C381.171 519.536 381.034 519.702 380.952 519.896C380.87 520.09 380.848 520.304 380.889 520.511C380.929 520.717 381.03 520.907 381.179 521.056C381.328 521.205 381.518 521.306 381.725 521.347C381.932 521.387 382.146 521.365 382.34 521.284C382.534 521.202 382.699 521.064 382.815 520.888C382.931 520.712 382.991 520.506 382.989 520.295C382.989 520.021 382.882 519.758 382.69 519.562C382.499 519.366 382.238 519.253 381.964 519.247H381.941ZM390.42 552.811C390.21 552.811 390.005 552.874 389.83 552.991C389.655 553.108 389.52 553.274 389.44 553.468C389.36 553.663 389.34 553.876 389.381 554.082C389.423 554.288 389.525 554.477 389.675 554.625C389.824 554.773 390.014 554.873 390.221 554.912C390.427 554.952 390.64 554.929 390.834 554.847C391.027 554.765 391.192 554.627 391.307 554.451C391.422 554.276 391.482 554.069 391.48 553.859C391.48 553.583 391.371 553.319 391.177 553.122C390.983 552.926 390.72 552.814 390.444 552.811H390.42ZM407.391 552.811C407.18 552.809 406.973 552.869 406.797 552.985C406.621 553.1 406.484 553.266 406.402 553.46C406.32 553.654 406.298 553.868 406.339 554.075C406.379 554.282 406.48 554.472 406.629 554.621C406.778 554.769 406.968 554.871 407.175 554.911C407.382 554.952 407.596 554.93 407.79 554.848C407.984 554.766 408.149 554.629 408.265 554.453C408.381 554.276 408.441 554.07 408.439 553.859C408.439 553.721 408.411 553.583 408.358 553.455C408.304 553.328 408.226 553.211 408.128 553.114C408.029 553.016 407.912 552.94 407.784 552.888C407.655 552.836 407.517 552.81 407.379 552.811H407.391ZM423.984 552.87C423.784 552.946 423.611 553.082 423.489 553.258C423.367 553.435 423.302 553.645 423.301 553.859C423.301 554.137 423.412 554.404 423.608 554.6C423.805 554.797 424.071 554.907 424.349 554.907C424.531 554.907 424.71 554.86 424.868 554.771C425.027 554.683 425.16 554.555 425.256 554.401L423.984 552.87ZM381.941 541.941C381.73 541.939 381.523 541.999 381.347 542.115C381.171 542.23 381.034 542.396 380.952 542.59C380.87 542.784 380.848 542.998 380.889 543.205C380.929 543.411 381.03 543.601 381.179 543.75C381.328 543.899 381.518 544.001 381.725 544.041C381.932 544.082 382.146 544.06 382.34 543.978C382.534 543.896 382.699 543.759 382.815 543.582C382.931 543.406 382.991 543.2 382.989 542.989C382.989 542.715 382.882 542.452 382.69 542.256C382.499 542.06 382.238 541.947 381.964 541.941H381.941ZM398.899 541.941C398.689 541.941 398.484 542.004 398.309 542.121C398.135 542.238 397.999 542.404 397.919 542.598C397.839 542.792 397.819 543.006 397.861 543.212C397.903 543.418 398.005 543.607 398.154 543.755C398.304 543.902 398.494 544.002 398.7 544.042C398.906 544.081 399.12 544.059 399.313 543.977C399.507 543.895 399.671 543.757 399.786 543.581C399.902 543.405 399.962 543.199 399.959 542.989C399.959 542.713 399.851 542.448 399.657 542.252C399.463 542.056 399.199 541.944 398.923 541.941H398.899ZM414.975 542.436C414.875 542.603 414.822 542.794 414.822 542.989C414.82 543.128 414.846 543.265 414.898 543.394C414.95 543.522 415.027 543.639 415.125 543.738C415.222 543.837 415.338 543.915 415.466 543.968C415.594 544.022 415.731 544.049 415.87 544.049C416.021 544.051 416.17 544.019 416.306 543.955C415.894 543.437 415.446 542.942 414.999 542.436H414.975ZM390.891 575.576C391.115 575.965 391.315 576.353 391.527 576.754C391.533 576.695 391.533 576.636 391.527 576.577C391.536 576.365 391.48 576.156 391.366 575.977C391.253 575.798 391.087 575.658 390.891 575.576ZM407.379 575.482C407.168 575.479 406.962 575.54 406.786 575.656C406.609 575.771 406.472 575.936 406.39 576.131C406.308 576.325 406.286 576.539 406.327 576.746C406.368 576.952 406.469 577.142 406.618 577.291C406.767 577.44 406.957 577.541 407.163 577.582C407.37 577.622 407.584 577.6 407.778 577.519C407.972 577.437 408.138 577.299 408.253 577.123C408.369 576.947 408.429 576.741 408.427 576.53C408.427 576.252 408.317 575.985 408.12 575.789C407.923 575.592 407.657 575.482 407.379 575.482ZM424.338 575.482C424.127 575.479 423.921 575.54 423.744 575.656C423.568 575.771 423.431 575.936 423.349 576.131C423.267 576.325 423.245 576.539 423.286 576.746C423.326 576.952 423.428 577.142 423.576 577.291C423.725 577.44 423.915 577.541 424.122 577.582C424.329 577.622 424.543 577.6 424.737 577.519C424.931 577.437 425.097 577.299 425.212 577.123C425.328 576.947 425.388 576.741 425.386 576.53C425.386 576.258 425.28 575.997 425.091 575.801C424.902 575.605 424.645 575.491 424.373 575.482H424.338ZM440.896 575.552C440.677 575.651 440.498 575.822 440.389 576.036C440.279 576.25 440.246 576.494 440.294 576.73C440.342 576.965 440.468 577.177 440.652 577.332C440.837 577.486 441.068 577.573 441.308 577.578C441.573 577.579 441.828 577.482 442.027 577.307C441.697 576.754 441.32 576.165 440.931 575.576L440.896 575.552ZM398.888 564.612C398.678 564.612 398.472 564.674 398.298 564.791C398.123 564.908 397.987 565.074 397.907 565.269C397.827 565.463 397.807 565.677 397.849 565.883C397.891 566.089 397.993 566.278 398.142 566.425C398.292 566.573 398.482 566.673 398.688 566.713C398.895 566.752 399.108 566.729 399.301 566.647C399.495 566.565 399.66 566.428 399.775 566.252C399.89 566.076 399.95 565.87 399.948 565.66C399.942 565.39 399.832 565.133 399.641 564.942C399.45 564.751 399.193 564.641 398.923 564.635L398.888 564.612ZM415.858 564.612C415.648 564.609 415.441 564.67 415.265 564.785C415.089 564.901 414.951 565.066 414.87 565.261C414.788 565.455 414.766 565.669 414.806 565.875C414.847 566.082 414.948 566.272 415.097 566.421C415.246 566.57 415.436 566.671 415.643 566.712C415.849 566.752 416.063 566.73 416.258 566.649C416.452 566.567 416.617 566.429 416.733 566.253C416.848 566.077 416.909 565.87 416.906 565.66C416.901 565.392 416.792 565.137 416.604 564.946C416.416 564.755 416.161 564.644 415.894 564.635L415.858 564.612ZM433.865 565.448L433.371 564.8C433.21 564.706 433.027 564.657 432.841 564.659C432.58 564.686 432.339 564.809 432.164 565.004C431.989 565.198 431.892 565.451 431.892 565.713C431.892 565.975 431.989 566.227 432.164 566.422C432.339 566.616 432.58 566.739 432.841 566.767C433.119 566.764 433.385 566.653 433.583 566.457C433.78 566.262 433.894 565.997 433.901 565.719C433.908 565.636 433.908 565.554 433.901 565.471L433.865 565.448ZM407.379 598.2C407.172 598.2 406.969 598.261 406.797 598.376C406.624 598.491 406.49 598.655 406.41 598.847C406.331 599.038 406.31 599.249 406.351 599.452C406.391 599.656 406.491 599.842 406.638 599.989C406.784 600.135 406.971 600.235 407.174 600.276C407.378 600.316 407.588 600.295 407.78 600.216C407.971 600.137 408.135 600.002 408.25 599.83C408.366 599.658 408.427 599.455 408.427 599.248C408.427 598.97 408.317 598.703 408.12 598.507C407.923 598.31 407.657 598.2 407.379 598.2ZM424.338 598.2C424.13 598.2 423.928 598.261 423.755 598.376C423.583 598.491 423.449 598.655 423.369 598.847C423.29 599.038 423.269 599.249 423.31 599.452C423.35 599.656 423.45 599.842 423.596 599.989C423.743 600.135 423.93 600.235 424.133 600.276C424.337 600.316 424.547 600.295 424.739 600.216C424.93 600.137 425.094 600.002 425.209 599.83C425.324 599.658 425.386 599.455 425.386 599.248C425.386 598.976 425.28 598.714 425.091 598.519C424.902 598.323 424.645 598.209 424.373 598.2H424.338ZM441.308 598.2C441.101 598.2 440.898 598.261 440.726 598.376C440.554 598.491 440.419 598.655 440.34 598.847C440.261 599.038 440.24 599.249 440.28 599.452C440.321 599.656 440.42 599.842 440.567 599.989C440.714 600.135 440.9 600.235 441.104 600.276C441.307 600.316 441.518 600.295 441.709 600.216C441.901 600.137 442.065 600.002 442.18 599.83C442.295 599.658 442.356 599.455 442.356 599.248C442.357 598.976 442.251 598.714 442.062 598.519C441.873 598.323 441.615 598.209 441.344 598.2H441.308ZM398.911 587.329C398.701 587.329 398.496 587.392 398.321 587.509C398.147 587.626 398.011 587.792 397.931 587.986C397.851 588.181 397.831 588.395 397.873 588.6C397.914 588.806 398.017 588.995 398.166 589.143C398.315 589.291 398.505 589.391 398.712 589.43C398.918 589.47 399.132 589.447 399.325 589.365C399.519 589.283 399.683 589.145 399.798 588.97C399.913 588.794 399.973 588.588 399.971 588.378C399.971 588.1 399.861 587.833 399.664 587.636C399.468 587.44 399.201 587.329 398.923 587.329H398.911ZM415.882 587.329C415.671 587.327 415.465 587.388 415.289 587.503C415.112 587.619 414.975 587.784 414.893 587.978C414.811 588.172 414.789 588.386 414.83 588.593C414.87 588.8 414.972 588.99 415.121 589.139C415.27 589.288 415.459 589.389 415.666 589.429C415.873 589.47 416.087 589.448 416.281 589.366C416.475 589.285 416.641 589.147 416.756 588.971C416.872 588.795 416.932 588.588 416.93 588.378C416.93 588.102 416.821 587.837 416.627 587.641C416.433 587.444 416.17 587.333 415.894 587.329H415.882ZM432.841 587.329C432.63 587.329 432.425 587.392 432.251 587.509C432.076 587.626 431.94 587.792 431.86 587.986C431.78 588.181 431.76 588.395 431.802 588.6C431.844 588.806 431.946 588.995 432.095 589.143C432.245 589.291 432.435 589.391 432.641 589.43C432.848 589.47 433.061 589.447 433.254 589.365C433.448 589.283 433.613 589.145 433.728 588.97C433.843 588.794 433.903 588.588 433.901 588.378C433.901 588.1 433.79 587.833 433.594 587.636C433.397 587.44 433.13 587.329 432.852 587.329H432.841ZM415.882 610.024C415.671 610.021 415.465 610.082 415.289 610.197C415.112 610.313 414.975 610.478 414.893 610.672C414.811 610.867 414.789 611.081 414.83 611.287C414.87 611.494 414.972 611.684 415.121 611.833C415.27 611.982 415.459 612.083 415.666 612.124C415.873 612.164 416.087 612.142 416.281 612.06C416.475 611.979 416.641 611.841 416.756 611.665C416.872 611.489 416.932 611.282 416.93 611.072C416.93 610.796 416.821 610.531 416.627 610.335C416.433 610.139 416.17 610.027 415.894 610.024H415.882ZM432.841 610.024C432.63 610.024 432.425 610.086 432.251 610.203C432.076 610.32 431.94 610.486 431.86 610.681C431.78 610.875 431.76 611.089 431.802 611.295C431.844 611.501 431.946 611.689 432.095 611.837C432.245 611.985 432.435 612.085 432.641 612.125C432.848 612.164 433.061 612.141 433.254 612.059C433.448 611.977 433.613 611.84 433.728 611.664C433.843 611.488 433.903 611.282 433.901 611.072C433.901 610.794 433.79 610.527 433.594 610.331C433.397 610.134 433.13 610.024 432.852 610.024H432.841Z" fill="white"/>
<path d="M409.852 605.949C406.967 601.474 404.246 596.857 401.49 592.287C398.735 587.718 396.002 583.125 393.317 578.508C388.018 569.381 383.095 560.054 378.349 550.632C375.664 545.297 372.931 540.033 370.376 534.592C370.293 534.416 370.011 534.592 370.07 534.722C372.543 541.003 375.204 547.182 378.054 553.259L377.937 553.106C377.301 552.246 376.665 551.386 376.04 550.515C374.804 548.795 373.685 547.04 372.507 545.239C372.425 545.097 372.201 545.239 372.284 545.38C373.558 547.831 374.998 550.192 376.594 552.446C377.374 553.5 378.216 554.506 379.114 555.461L379.197 555.532C380.504 558.24 381.835 560.937 383.236 563.611C388.124 573.107 393.486 582.351 399.3 591.31C400.949 593.819 402.609 596.315 404.34 598.777C406.072 601.238 407.874 603.617 409.711 606.043C409.734 606.196 409.946 606.102 409.852 605.949Z" fill="#263238"/>
<path d="M422.877 609.835C415.41 599.13 419.155 577.837 427.399 526.725C428.577 519.659 482.209 519.105 481.384 526.725C480.348 536.312 470.785 574.198 468.3 579.721C456.088 607.044 427.929 617.102 422.877 609.835Z" fill="#F7A9A0"/>
<path d="M479.642 533.32C481.868 527.597 492.102 495.87 492.596 487.826C493.091 479.782 492.914 456.523 486.79 455.51C480.666 454.497 480.184 461.304 480.184 461.304C480.184 461.304 478.547 451.494 472.293 451.023C466.039 450.552 465.627 461.186 465.627 461.186C465.627 461.186 463.213 451.235 456.936 451.223C450.659 451.211 452.131 461.952 452.131 461.952C452.131 461.952 450.341 452.754 445.171 454.886C438.952 457.477 444.158 474.07 442.921 482.903C442.639 484.917 434.348 523.18 434.348 523.18L479.642 533.32Z" fill="#F7A9A0"/>
<path d="M451.966 461.033C455.77 473.246 455.322 479.241 452.072 491.394C452.013 491.642 452.354 491.783 452.437 491.547C456.7 479.924 458.325 472.481 452.554 460.821C452.272 460.244 451.789 460.456 451.966 461.033Z" fill="#263238"/>
<path d="M465.333 460.221C468.171 473.246 467.747 479.759 465.333 492.749C465.333 492.925 465.615 493.008 465.662 492.819C469.195 480.289 470.62 472.799 466.074 460.185C465.804 459.608 465.203 459.632 465.333 460.221Z" fill="#263238"/>
<path d="M480.066 461.952C481.903 474.765 481.738 481.973 477.71 494.221C477.687 494.28 477.688 494.346 477.713 494.405C477.739 494.463 477.786 494.509 477.846 494.533C477.905 494.556 477.971 494.555 478.03 494.53C478.088 494.504 478.134 494.457 478.158 494.397C483.469 482.255 483.74 473.328 480.442 461.94C480.23 461.163 479.948 461.151 480.066 461.952Z" fill="#263238"/>
<path d="M426.622 533.191C426.622 533.191 422.371 517.751 422.006 510.544C421.64 503.336 430.143 476.025 436.138 477.568C443.899 479.511 442.097 496.258 440.142 504.337C440.142 504.337 458.09 508.812 459.397 521.108C460.705 533.403 426.622 533.191 426.622 533.191Z" fill="#F7A9A0"/>
<path d="M438.116 478.758C443.91 485.624 440.66 496.07 439.294 504.055C439.268 504.171 439.271 504.292 439.302 504.408C439.333 504.523 439.392 504.629 439.473 504.717C439.554 504.805 439.655 504.872 439.767 504.912C439.879 504.953 440 504.966 440.118 504.95C447.514 507.305 457.266 512.828 459.668 520.66C459.684 520.702 459.713 520.737 459.752 520.759C459.791 520.781 459.837 520.788 459.881 520.78C459.924 520.771 459.964 520.747 459.992 520.713C460.02 520.678 460.034 520.634 460.033 520.589C458.596 511.827 449.434 505.633 441.19 503.56C442.662 495.387 445.465 484.717 438.116 478.699C438.128 478.663 438.069 478.711 438.116 478.758Z" fill="#263238"/>
<path d="M482.232 544.037L419.991 561.703C419.991 561.703 407.578 602.498 415.469 612.732C423.913 623.673 463.095 606.714 470.891 582.878L482.232 544.037Z" fill="#7CAC8A"/>
<path d="M459.35 553.859C459.35 554.067 459.288 554.269 459.173 554.442C459.058 554.614 458.894 554.748 458.703 554.828C458.511 554.907 458.3 554.928 458.097 554.887C457.894 554.847 457.707 554.747 457.56 554.6C457.414 554.454 457.314 554.267 457.274 554.064C457.233 553.86 457.254 553.65 457.333 553.458C457.413 553.267 457.547 553.103 457.719 552.988C457.892 552.873 458.094 552.811 458.302 552.811C458.58 552.811 458.846 552.922 459.043 553.118C459.239 553.315 459.35 553.581 459.35 553.859ZM475.26 552.811C475.05 552.811 474.845 552.874 474.67 552.991C474.496 553.108 474.36 553.274 474.28 553.468C474.2 553.663 474.18 553.876 474.222 554.082C474.264 554.288 474.366 554.477 474.515 554.625C474.665 554.773 474.855 554.873 475.061 554.912C475.267 554.952 475.481 554.929 475.674 554.847C475.868 554.765 476.032 554.627 476.147 554.451C476.263 554.275 476.323 554.069 476.32 553.859C476.32 553.721 476.293 553.583 476.239 553.455C476.186 553.328 476.108 553.211 476.009 553.114C475.911 553.016 475.794 552.94 475.665 552.888C475.537 552.836 475.399 552.81 475.26 552.811ZM424.372 575.482C424.162 575.479 423.955 575.54 423.779 575.656C423.603 575.771 423.465 575.936 423.384 576.131C423.302 576.325 423.28 576.539 423.32 576.746C423.361 576.952 423.462 577.142 423.611 577.291C423.76 577.44 423.95 577.541 424.157 577.582C424.363 577.622 424.577 577.6 424.772 577.519C424.966 577.437 425.131 577.299 425.247 577.123C425.362 576.947 425.423 576.741 425.42 576.53C425.42 576.252 425.31 575.985 425.113 575.789C424.917 575.592 424.65 575.482 424.372 575.482ZM441.343 575.482C441.132 575.479 440.926 575.54 440.75 575.656C440.573 575.771 440.436 575.936 440.354 576.131C440.272 576.325 440.25 576.539 440.291 576.746C440.331 576.952 440.433 577.142 440.582 577.291C440.731 577.44 440.92 577.541 441.127 577.582C441.334 577.622 441.548 577.6 441.742 577.519C441.936 577.437 442.102 577.299 442.217 577.123C442.333 576.947 442.393 576.741 442.391 576.53C442.391 576.252 442.281 575.985 442.084 575.789C441.887 575.592 441.621 575.482 441.343 575.482ZM458.302 575.482C458.091 575.479 457.884 575.54 457.708 575.656C457.532 575.771 457.395 575.936 457.313 576.131C457.231 576.325 457.209 576.539 457.25 576.746C457.29 576.952 457.391 577.142 457.54 577.291C457.689 577.44 457.879 577.541 458.086 577.582C458.293 577.622 458.507 577.6 458.701 577.519C458.895 577.437 459.06 577.299 459.176 577.123C459.292 576.947 459.352 576.741 459.35 576.53C459.35 576.252 459.239 575.985 459.043 575.789C458.846 575.592 458.58 575.482 458.302 575.482ZM432.852 564.612C432.641 564.612 432.436 564.674 432.262 564.791C432.087 564.908 431.951 565.074 431.871 565.269C431.791 565.463 431.771 565.677 431.813 565.883C431.855 566.089 431.957 566.277 432.106 566.425C432.256 566.573 432.446 566.673 432.652 566.713C432.859 566.752 433.072 566.729 433.265 566.647C433.459 566.565 433.624 566.428 433.739 566.252C433.854 566.076 433.914 565.87 433.912 565.66C433.905 565.384 433.791 565.122 433.592 564.93C433.394 564.738 433.128 564.632 432.852 564.635V564.612ZM449.822 564.612C449.612 564.609 449.405 564.67 449.229 564.785C449.053 564.901 448.915 565.066 448.833 565.261C448.752 565.455 448.73 565.669 448.77 565.875C448.811 566.082 448.912 566.272 449.061 566.421C449.21 566.57 449.4 566.671 449.607 566.712C449.813 566.752 450.027 566.73 450.222 566.649C450.416 566.567 450.581 566.429 450.697 566.253C450.812 566.077 450.873 565.87 450.87 565.66C450.867 565.52 450.836 565.382 450.779 565.255C450.722 565.127 450.641 565.012 450.539 564.917C450.436 564.821 450.316 564.747 450.185 564.699C450.054 564.651 449.915 564.629 449.775 564.635L449.822 564.612ZM466.781 564.612C466.571 564.612 466.366 564.674 466.191 564.791C466.016 564.908 465.881 565.074 465.801 565.269C465.721 565.463 465.701 565.677 465.742 565.883C465.784 566.089 465.886 566.277 466.036 566.425C466.185 566.573 466.375 566.673 466.582 566.713C466.788 566.752 467.001 566.729 467.195 566.647C467.388 566.565 467.553 566.428 467.668 566.252C467.783 566.076 467.843 565.87 467.841 565.66C467.835 565.384 467.72 565.122 467.522 564.93C467.323 564.738 467.057 564.632 466.781 564.635V564.612ZM424.384 598.176C424.177 598.176 423.974 598.237 423.802 598.353C423.629 598.468 423.495 598.631 423.416 598.823C423.336 599.015 423.316 599.225 423.356 599.429C423.396 599.632 423.496 599.819 423.643 599.965C423.789 600.112 423.976 600.212 424.179 600.252C424.383 600.293 424.594 600.272 424.785 600.192C424.977 600.113 425.14 599.979 425.256 599.806C425.371 599.634 425.432 599.431 425.432 599.224C425.426 598.948 425.311 598.686 425.113 598.494C424.914 598.302 424.648 598.196 424.372 598.2L424.384 598.176ZM441.355 598.176C441.147 598.176 440.945 598.237 440.772 598.353C440.6 598.468 440.466 598.631 440.386 598.823C440.307 599.015 440.286 599.225 440.327 599.429C440.367 599.632 440.467 599.819 440.613 599.965C440.76 600.112 440.947 600.212 441.15 600.252C441.353 600.293 441.564 600.272 441.756 600.192C441.947 600.113 442.111 599.979 442.226 599.806C442.341 599.634 442.403 599.431 442.403 599.224C442.397 598.948 442.282 598.686 442.083 598.494C441.885 598.302 441.619 598.196 441.343 598.2L441.355 598.176ZM458.313 598.176C458.106 598.176 457.903 598.237 457.731 598.353C457.559 598.468 457.424 598.631 457.345 598.823C457.266 599.015 457.245 599.225 457.285 599.429C457.326 599.632 457.426 599.819 457.572 599.965C457.719 600.112 457.906 600.212 458.109 600.252C458.312 600.293 458.523 600.272 458.714 600.192C458.906 600.113 459.07 599.979 459.185 599.806C459.3 599.634 459.362 599.431 459.362 599.224C459.355 598.948 459.241 598.686 459.042 598.494C458.844 598.302 458.578 598.196 458.302 598.2L458.313 598.176ZM415.916 587.306C415.706 587.304 415.499 587.364 415.323 587.48C415.147 587.595 415.009 587.761 414.928 587.955C414.846 588.149 414.824 588.363 414.865 588.57C414.905 588.776 415.006 588.966 415.155 589.115C415.304 589.264 415.494 589.365 415.701 589.406C415.907 589.446 416.122 589.424 416.316 589.343C416.51 589.261 416.675 589.123 416.791 588.947C416.906 588.771 416.967 588.565 416.965 588.354C416.961 588.216 416.931 588.081 416.876 587.955C416.82 587.829 416.74 587.715 416.641 587.62C416.541 587.525 416.424 587.45 416.296 587.4C416.167 587.35 416.03 587.326 415.893 587.329L415.916 587.306ZM432.875 587.306C432.665 587.306 432.46 587.368 432.285 587.485C432.111 587.602 431.975 587.769 431.895 587.963C431.815 588.157 431.795 588.371 431.837 588.577C431.878 588.783 431.981 588.972 432.13 589.119C432.279 589.267 432.469 589.367 432.676 589.407C432.882 589.446 433.096 589.424 433.289 589.342C433.482 589.26 433.647 589.122 433.762 588.946C433.877 588.77 433.937 588.564 433.935 588.354C433.932 588.215 433.902 588.079 433.845 587.952C433.789 587.825 433.708 587.711 433.607 587.615C433.507 587.52 433.388 587.446 433.258 587.397C433.128 587.348 432.99 587.325 432.852 587.329L432.875 587.306ZM449.846 587.306C449.635 587.304 449.429 587.364 449.253 587.48C449.076 587.595 448.939 587.761 448.857 587.955C448.775 588.149 448.753 588.363 448.794 588.57C448.834 588.776 448.936 588.966 449.085 589.115C449.234 589.264 449.423 589.365 449.63 589.406C449.837 589.446 450.051 589.424 450.245 589.343C450.439 589.261 450.605 589.123 450.72 588.947C450.836 588.771 450.896 588.565 450.894 588.354C450.891 588.212 450.859 588.072 450.801 587.943C450.743 587.814 450.658 587.698 450.554 587.602C450.449 587.506 450.326 587.433 450.192 587.386C450.059 587.339 449.917 587.32 449.775 587.329L449.846 587.306ZM466.805 587.306C466.594 587.306 466.389 587.368 466.215 587.485C466.04 587.602 465.904 587.769 465.824 587.963C465.744 588.157 465.724 588.371 465.766 588.577C465.808 588.783 465.91 588.972 466.059 589.119C466.209 589.267 466.399 589.367 466.605 589.407C466.811 589.446 467.025 589.424 467.218 589.342C467.412 589.26 467.577 589.122 467.692 588.946C467.807 588.77 467.867 588.564 467.864 588.354C467.861 588.215 467.831 588.079 467.775 587.952C467.718 587.825 467.638 587.711 467.537 587.615C467.436 587.52 467.317 587.446 467.188 587.397C467.058 587.348 466.92 587.325 466.781 587.329L466.805 587.306ZM415.916 610C415.706 609.998 415.499 610.058 415.323 610.174C415.147 610.289 415.009 610.455 414.928 610.649C414.846 610.843 414.824 611.057 414.865 611.264C414.905 611.471 415.006 611.66 415.155 611.809C415.304 611.958 415.494 612.06 415.701 612.1C415.907 612.141 416.122 612.119 416.316 612.037C416.51 611.955 416.675 611.818 416.791 611.641C416.906 611.465 416.967 611.259 416.965 611.048C416.961 610.911 416.931 610.775 416.876 610.649C416.82 610.523 416.74 610.409 416.641 610.314C416.541 610.219 416.424 610.144 416.296 610.094C416.167 610.045 416.03 610.02 415.893 610.024L415.916 610ZM432.875 610C432.665 610 432.46 610.063 432.285 610.18C432.111 610.297 431.975 610.463 431.895 610.657C431.815 610.851 431.795 611.065 431.837 611.271C431.878 611.477 431.981 611.666 432.13 611.814C432.279 611.961 432.469 612.061 432.676 612.101C432.882 612.141 433.096 612.118 433.289 612.036C433.482 611.954 433.647 611.816 433.762 611.64C433.877 611.464 433.937 611.258 433.935 611.048C433.932 610.91 433.902 610.773 433.845 610.646C433.789 610.519 433.708 610.405 433.607 610.31C433.507 610.214 433.388 610.14 433.258 610.091C433.128 610.042 432.99 610.019 432.852 610.024L432.875 610Z" fill="white"/>
<path d="M422.029 575.847C428.978 574.269 435.832 572.314 442.686 570.359C449.54 568.404 456.406 566.449 463.213 564.317C467.052 563.139 470.904 561.962 474.708 560.584C474.814 560.584 474.778 560.372 474.708 560.395C467.771 561.962 460.893 563.929 454.051 565.801C447.208 567.674 440.319 569.711 433.488 571.76C429.637 572.938 425.798 574.116 421.994 575.494C421.77 575.564 421.829 575.894 422.029 575.847Z" fill="#263238"/>
<path d="M422.205 561.02C421.24 561.114 420.274 561.314 419.32 561.503C419.247 561.524 419.181 561.563 419.128 561.616C419.074 561.67 419.035 561.736 419.014 561.809C417.954 565.436 417.2 569.169 416.447 572.867C415.693 576.565 415.045 580.169 414.444 583.843C414.115 585.81 413.832 587.8 413.608 589.732C412.407 592.135 411.675 594.745 411.453 597.422C411.453 597.453 411.466 597.483 411.488 597.506C411.51 597.528 411.54 597.54 411.571 597.54C411.602 597.54 411.632 597.528 411.654 597.506C411.676 597.483 411.689 597.453 411.689 597.422C411.984 595.046 412.598 592.721 413.514 590.509C412.919 595.358 413.05 600.268 413.903 605.077C412.725 597.893 414.492 590.403 415.669 583.337C416.258 579.804 416.929 576.271 417.624 572.738C418.319 569.205 419.132 565.73 419.779 562.209C420.604 561.891 421.44 561.585 422.229 561.208C422.242 561.195 422.253 561.18 422.259 561.162C422.265 561.145 422.267 561.126 422.265 561.108C422.263 561.09 422.256 561.072 422.246 561.057C422.235 561.041 422.222 561.029 422.205 561.02Z" fill="#263238"/>
<path d="M359.093 500.345C358.539 502.347 348.388 515.125 339.154 514.348C336.151 514.089 336.799 497.613 336.799 497.613L336.575 496.435L333.396 479.252L353.876 467.134L356.832 465.532C356.832 465.532 357.397 470.243 358.009 476.237C358.009 476.508 358.068 476.779 358.092 477.074C358.115 477.368 358.186 477.733 358.21 478.039C358.327 478.923 358.422 479.829 358.516 480.736C358.586 481.419 358.645 482.091 358.692 482.809C358.74 483.527 358.81 484.246 358.869 484.964C359.291 490.08 359.366 495.219 359.093 500.345Z" fill="#F7A9A0"/>
<path d="M358.033 476.202C356.131 480.924 353.225 485.175 349.515 488.66C345.806 492.146 341.382 494.783 336.552 496.388L333.372 479.205L353.876 467.134L356.832 465.532C356.832 465.532 357.397 470.266 358.033 476.202Z" fill="#263238"/>
<path d="M311.762 451.4C308.594 481.914 326.518 487.261 333.101 487.908C339.072 488.521 359.494 489.852 365.794 459.82C372.095 429.789 358.905 418.683 345.314 416.552C331.724 414.42 314.93 420.886 311.762 451.4Z" fill="#F7A9A0"/>
<path d="M322.043 444.31C322.745 444.263 323.445 444.181 324.139 444.063C324.891 444.078 325.627 443.846 326.235 443.403C326.403 443.228 326.506 443.001 326.53 442.76C326.553 442.519 326.495 442.277 326.365 442.072C326.044 441.715 325.634 441.448 325.177 441.299C324.72 441.15 324.232 441.124 323.762 441.224C322.774 441.279 321.842 441.698 321.148 442.402C321.012 442.574 320.927 442.78 320.901 442.997C320.876 443.215 320.912 443.435 321.005 443.633C321.098 443.831 321.244 443.999 321.428 444.119C321.611 444.239 321.824 444.305 322.043 444.31Z" fill="#263238"/>
<path d="M343.925 444.145C343.235 443.989 342.554 443.792 341.887 443.556C341.143 443.448 340.455 443.096 339.932 442.555C339.8 442.356 339.738 442.118 339.755 441.88C339.772 441.641 339.867 441.415 340.026 441.236C340.398 440.929 340.845 440.727 341.321 440.65C341.798 440.574 342.286 440.625 342.735 440.801C343.69 441.02 344.53 441.586 345.09 442.39C345.199 442.58 345.253 442.796 345.246 443.015C345.239 443.234 345.171 443.446 345.05 443.628C344.929 443.81 344.759 443.955 344.561 444.046C344.362 444.138 344.142 444.172 343.925 444.145Z" fill="#263238"/>
<path d="M338.472 453.308C338.472 453.237 338.625 453.425 338.613 453.508C338.342 455.581 338.39 458.007 340.203 458.878C340.203 458.878 340.203 459.008 340.203 458.996C337.895 458.442 337.895 455.227 338.472 453.308Z" fill="#263238"/>
<path d="M340.544 451.317C343.912 451.4 343.512 458.124 340.391 458.066C337.27 458.007 337.717 451.258 340.544 451.317Z" fill="#263238"/>
<path d="M341.84 451.753C342.405 452.165 342.947 452.872 343.642 452.99C344.337 453.107 345.126 452.448 345.703 451.812C345.762 451.812 345.809 451.812 345.809 451.894C345.75 453.19 345.185 454.485 343.783 454.591C342.382 454.697 341.675 453.508 341.428 452.236C341.428 451.93 341.616 451.588 341.84 451.753Z" fill="#263238"/>
<path d="M325.764 451.824C325.764 451.741 325.588 451.906 325.588 451.989C325.517 454.085 325.081 456.464 323.15 457.029C323.079 457.029 323.079 457.147 323.15 457.147C325.482 456.923 326.023 453.767 325.764 451.824Z" fill="#263238"/>
<path d="M324.045 449.468C320.712 448.985 319.994 455.698 323.079 456.146C326.165 456.593 326.848 449.881 324.045 449.468Z" fill="#263238"/>
<path d="M322.584 449.763C322.007 450.057 321.406 450.646 320.782 450.622C320.158 450.599 319.604 449.81 319.18 449.068C319.18 448.986 319.086 449.068 319.074 449.127C318.898 450.399 319.18 451.788 320.382 452.165C321.583 452.542 322.431 451.494 322.867 450.257C322.973 450.022 322.831 449.645 322.584 449.763Z" fill="#263238"/>
<path d="M335.174 469.56C334.667 470.043 334.161 470.738 333.395 470.738C332.618 470.719 331.854 470.53 331.158 470.184C331.144 470.181 331.129 470.182 331.116 470.187C331.102 470.191 331.09 470.2 331.08 470.21C331.071 470.221 331.064 470.234 331.061 470.248C331.058 470.262 331.059 470.276 331.063 470.29C331.354 470.708 331.753 471.039 332.218 471.247C332.683 471.454 333.196 471.531 333.702 471.468C334.13 471.365 334.519 471.136 334.817 470.811C335.115 470.485 335.309 470.079 335.374 469.642C335.409 469.489 335.244 469.489 335.174 469.56Z" fill="#263238"/>
<path d="M326.989 461.41C326.989 461.41 326.342 464.496 326.236 465.968C326.236 466.097 326.577 466.192 327.072 466.262C327.072 466.262 327.072 466.262 327.131 466.262C328.375 466.583 329.683 466.553 330.911 466.177C332.139 465.801 333.24 465.093 334.091 464.131C334.209 464.001 334.032 463.836 333.891 463.919C331.928 465.063 329.649 465.546 327.39 465.297C327.307 464.884 328.674 460.056 328.45 460.021C327.301 460.038 326.16 460.212 325.058 460.539C326.236 454.085 328.415 447.855 329.474 441.413C329.49 441.365 329.486 441.312 329.463 441.267C329.439 441.221 329.399 441.187 329.351 441.171C329.302 441.156 329.25 441.16 329.204 441.183C329.159 441.207 329.125 441.247 329.109 441.295C326.342 447.643 324.846 455.051 323.468 461.693C323.28 462.517 326.389 461.622 326.989 461.41Z" fill="#263238"/>
<path d="M327.578 465.721C328.305 466.944 329.335 467.958 330.569 468.665C331.253 469.035 332.038 469.176 332.807 469.065C334.491 468.83 334.703 467.346 334.55 466.027C334.466 465.33 334.3 464.647 334.055 463.989C332.136 465.243 329.867 465.849 327.578 465.721Z" fill="#263238"/>
<path d="M330.569 468.665C331.253 469.035 332.037 469.176 332.807 469.065C334.491 468.83 334.703 467.346 334.55 466.027C333.687 465.959 332.826 466.182 332.105 466.66C331.383 467.138 330.843 467.844 330.569 468.665Z" fill="#FF9CBD"/>
<path d="M364.522 458.054C357.456 457.547 358.457 446.465 358.457 446.465C358.457 446.465 350.543 445.087 351.026 432.18C351.026 432.18 346.551 439.635 335.622 440.318C333.266 440.471 341.51 435.171 341.51 435.171C341.51 435.171 330.463 442.402 313.681 437.845C312.503 437.527 317.732 420.085 331.606 415.044C345.479 410.004 357.244 414.491 364.817 423.606C364.817 423.606 374.238 428.929 374.58 438.304C374.921 447.678 367.255 458.254 364.522 458.054Z" fill="#263238"/>
<path d="M369.951 453.343C372.291 449.487 373.648 445.115 373.903 440.612C374.157 436.108 373.302 431.611 371.411 427.516C364.958 413.125 341.804 407.413 326.529 417.6C326.529 417.6 352.792 412.889 361.672 424.737C370.552 436.584 369.951 453.343 369.951 453.343Z" fill="#7CAC8A"/>
<path d="M360.541 461.01C360.541 461.01 367.395 451.588 371.694 453.944C375.993 456.299 370.74 470.208 365.605 472.009C364.964 472.288 364.273 472.434 363.573 472.438C362.874 472.442 362.181 472.305 361.536 472.034C360.892 471.763 360.308 471.365 359.821 470.863C359.335 470.361 358.955 469.765 358.704 469.112L360.541 461.01Z" fill="#F7A9A0"/>
<path d="M370.093 457.924C370.175 457.924 370.187 458.03 370.093 458.066C366.489 459.443 364.557 462.776 363.179 466.145C364.263 464.849 365.723 464.142 367.478 465.438C367.572 465.509 367.478 465.65 367.372 465.626C366.746 465.414 366.069 465.402 365.436 465.592C364.803 465.782 364.245 466.164 363.839 466.686C363.17 467.558 362.594 468.498 362.12 469.489C361.943 469.807 361.366 469.63 361.495 469.265V469.183C361.531 464.625 365.182 458.301 370.093 457.924Z" fill="#263238"/>
<path d="M400.654 418.483C397.551 413.88 395.871 408.465 395.826 402.914C395.826 383.188 417.495 367.195 444.193 367.195C470.892 367.195 492.538 383.188 492.538 402.914C492.538 422.64 470.892 438.622 444.193 438.622C431.239 438.622 419.462 434.877 410.829 428.741L394.177 432.981L400.654 418.483Z" fill="white"/>
<path d="M400.654 418.483C397.626 414.141 395.912 409.019 395.718 403.729C395.523 398.439 396.857 393.204 399.559 388.652C402.252 384.108 405.862 380.173 410.158 377.099C414.432 374.002 419.165 371.594 424.185 369.962C429.19 368.307 434.379 367.271 439.636 366.877C444.898 366.519 450.183 366.787 455.382 367.677C456.665 367.937 457.984 368.113 459.256 368.455L463.072 369.479L466.805 370.798C468.054 371.246 469.231 371.846 470.444 372.365C475.237 374.611 479.616 377.649 483.399 381.35C487.228 385.077 490.097 389.676 491.761 394.753C493.379 399.885 493.433 405.383 491.914 410.546C490.338 415.652 487.541 420.297 483.764 424.077C480.053 427.827 475.727 430.914 470.974 433.204C466.22 435.508 461.165 437.129 455.959 438.021C450.77 438.954 445.486 439.255 440.225 438.916C434.966 438.603 429.77 437.618 424.762 435.984C419.739 434.357 414.993 431.974 410.688 428.918H410.912L394.224 433.016L393.953 433.087L394.071 432.839L400.654 418.483ZM400.654 418.483L394.295 432.981L394.142 432.804L410.771 428.435H410.888L410.994 428.505C419.689 434.312 429.814 437.617 440.26 438.057C445.453 438.337 450.661 437.989 455.77 437.02C460.881 436.146 465.844 434.56 470.515 432.309C475.183 430.064 479.429 427.032 483.069 423.347C486.707 419.687 489.399 415.196 490.913 410.263C492.347 405.315 492.282 400.052 490.724 395.141C489.125 390.238 486.366 385.794 482.681 382.187C478.991 378.559 474.715 375.58 470.032 373.377C468.855 372.871 467.677 372.27 466.499 371.835L462.848 370.527L459.091 369.503C457.843 369.161 456.548 368.996 455.287 368.726C450.168 367.844 444.963 367.559 439.777 367.878C434.575 368.221 429.433 369.198 424.467 370.787C419.518 372.331 414.841 374.64 410.606 377.629C406.346 380.616 402.74 384.438 400.006 388.864C397.298 393.339 395.902 398.485 395.979 403.715C396.136 408.976 397.755 414.09 400.654 418.483Z" fill="#263238"/>
<path d="M425.186 396.861V410.133H422.689V404.469H416.659V410.133H414.08V396.861H416.659V402.231H422.689V396.861H425.186Z" fill="#263238"/>
<path d="M437.174 407.872V410.133H427.953V396.861H436.998V399.122H430.532V402.361H436.126V404.457H430.532V407.908L437.174 407.872Z" fill="#263238"/>
<path d="M439.177 410.133V396.861H441.756V407.872H448.598V410.133H439.177Z" fill="#263238"/>
<path d="M450.105 410.133V396.861H452.685V407.872H459.456V410.133H450.105Z" fill="#263238"/>
<path d="M465.851 410.228C464.937 410.241 464.031 410.048 463.201 409.662C462.427 409.298 461.734 408.781 461.164 408.143C460.019 406.869 459.385 405.216 459.386 403.503C459.384 402.631 459.552 401.767 459.88 400.959C460.197 400.161 460.66 399.43 461.247 398.804C461.827 398.176 462.528 397.671 463.307 397.32C464.125 396.949 465.013 396.76 465.91 396.767C466.819 396.757 467.718 396.959 468.536 397.355C469.303 397.736 469.991 398.26 470.562 398.898C471.69 400.183 472.321 401.829 472.34 403.538C472.344 404.407 472.176 405.267 471.846 406.07C471.543 406.876 471.087 407.616 470.503 408.249C469.919 408.867 469.224 409.37 468.454 409.733C467.632 410.083 466.744 410.252 465.851 410.228ZM462 403.538C461.997 404.102 462.085 404.663 462.259 405.199C462.422 405.716 462.677 406.199 463.013 406.624C463.332 407.032 463.734 407.369 464.191 407.613C464.702 407.865 465.264 407.995 465.834 407.995C466.403 407.995 466.965 407.865 467.477 407.613C467.936 407.362 468.337 407.016 468.654 406.6C468.985 406.168 469.24 405.682 469.408 405.164C469.621 404.645 469.752 404.097 469.797 403.538C469.797 402.974 469.705 402.413 469.526 401.878C469.359 401.36 469.1 400.877 468.76 400.453C468.442 400.047 468.04 399.713 467.583 399.475C467.069 399.231 466.508 399.105 465.94 399.105C465.371 399.105 464.81 399.231 464.297 399.475C463.836 399.724 463.434 400.069 463.119 400.488C462.789 400.915 462.538 401.398 462.377 401.913C462.167 402.432 462.039 402.98 462 403.538Z" fill="#263238"/>
<path d="M474.566 405.152V396.731H477.063V405.152H474.566ZM474.566 410.133V407.319H477.063V410.133H474.566Z" fill="#263238"/>
</svg>
