<svg width="140" height="42" viewBox="0 0 140 42" fill="none" xmlns="http://www.w3.org/2000/svg">
<path d="M46.0549 27.695H52.2732V29.5825H43.7373V11.8223H46.0549V27.695Z" fill="#040404"/>
<path d="M65.3932 22.0578C65.3932 22.5075 65.3679 22.9762 65.3172 23.4639H54.1598C54.2421 24.8415 54.7107 25.9183 55.5655 26.6942C56.4267 27.4637 57.4684 27.8469 58.6937 27.8469C59.6878 27.8469 60.5205 27.6157 61.1886 27.1502C61.863 26.6878 62.341 26.0608 62.6197 25.2754H65.1146C64.741 26.6182 63.9938 27.7139 62.8729 28.5563C61.749 29.3924 60.3559 29.8104 58.6937 29.8104C57.3671 29.8104 56.1798 29.5159 55.1349 28.9237C54.0869 28.3251 53.2669 27.4796 52.678 26.3901C52.086 25.2944 51.7915 24.0213 51.7915 22.5771C51.7915 21.133 52.0765 19.8662 52.6527 18.7768C53.2258 17.6874 54.0363 16.8513 55.0843 16.2686C56.1291 15.6795 57.3322 15.3818 58.6937 15.3818C60.0171 15.3818 61.1886 15.6732 62.2017 16.2559C63.2212 16.8323 64.0064 17.624 64.5573 18.6375C65.1146 19.6509 65.3932 20.791 65.3932 22.0578ZM62.9996 21.5764C62.9996 20.6991 62.8001 19.9422 62.4044 19.3088C62.0149 18.6691 61.483 18.1814 60.8086 17.8521C60.1406 17.5164 59.4029 17.3453 58.5923 17.3453C57.4177 17.3453 56.4172 17.7222 55.5909 18.4728C54.7708 19.217 54.3022 20.2526 54.1851 21.5764H62.9996Z" fill="#040404"/>
<path d="M73.6394 29.5824L70.334 24.3886L67.1426 29.5824H64.7236L69.2322 22.6531L64.7236 15.6099H67.3452L70.6633 20.791L73.8167 15.6099H76.2483L71.7524 22.5265L76.2737 29.5824H73.6394Z" fill="#040404"/>
<path d="M77.6605 13.3423C77.2204 13.3423 76.85 13.1903 76.546 12.8862C76.2421 12.5822 76.0901 12.2117 76.0901 11.7715C76.0901 11.3249 76.2421 10.9481 76.546 10.644C76.85 10.34 77.2204 10.188 77.6605 10.188C78.0911 10.188 78.452 10.34 78.7496 10.644C79.0441 10.9481 79.1929 11.3249 79.1929 11.7715C79.1929 12.2117 79.0441 12.5822 78.7496 12.8862C78.452 13.1903 78.0911 13.3423 77.6605 13.3423ZM78.7876 15.6098V29.5824H76.47V15.6098H78.7876Z" fill="#040404"/>
<path d="M91.1458 25.6299H83.3951L81.9767 29.5822H79.5198L85.9407 11.9233H88.6256L95.0211 29.5822H92.5769L91.1458 25.6299ZM90.4872 23.7424L87.2705 14.7736L84.0663 23.7424H90.4872Z" fill="#040404"/>
<path d="M100.666 29.8104C99.593 29.8104 98.6305 29.6267 97.7788 29.2657C96.9334 28.9047 96.2654 28.398 95.7778 27.7456C95.2871 27.0869 95.0179 26.3331 94.9673 25.4781H97.3609C97.4274 26.1811 97.7535 26.7512 98.336 27.1882C98.9249 27.6284 99.6943 27.8469 100.641 27.8469C101.528 27.8469 102.224 27.6537 102.731 27.2642C103.244 26.8778 103.503 26.3838 103.503 25.7821C103.503 25.174 103.228 24.7243 102.68 24.4266C102.139 24.1226 101.3 23.8281 100.16 23.5399C99.1212 23.2707 98.2727 22.9952 97.6142 22.7165C96.9619 22.4378 96.4047 22.0261 95.9425 21.475C95.477 20.9177 95.2459 20.1893 95.2459 19.2835C95.2459 18.5741 95.4549 17.9249 95.8791 17.3327C96.3002 16.7341 96.8986 16.2622 97.6775 15.9139C98.4627 15.5592 99.3555 15.3818 100.362 15.3818C101.907 15.3818 103.155 15.7745 104.111 16.5599C105.064 17.339 105.574 18.4063 105.643 19.7649H103.313C103.263 19.0397 102.971 18.4569 102.439 18.0167C101.907 17.5702 101.189 17.3453 100.286 17.3453C99.4505 17.3453 98.7856 17.529 98.2981 17.8901C97.8073 18.2448 97.5635 18.7103 97.5635 19.2835C97.5635 19.7396 97.7092 20.1196 98.0068 20.4236C98.3012 20.7213 98.6717 20.9557 99.1212 21.133C99.5772 21.3104 100.201 21.5099 100.996 21.7284C101.999 22.0007 102.813 22.2699 103.44 22.5391C104.073 22.802 104.611 23.1979 105.061 23.7299C105.517 24.2556 105.751 24.9397 105.77 25.7821C105.77 26.5516 105.555 27.2452 105.124 27.8596C104.7 28.4676 104.102 28.9459 103.326 29.2911C102.556 29.6362 101.67 29.8104 100.666 29.8104Z" fill="#040404"/>
<path d="M111.874 29.8104C110.801 29.8104 109.839 29.6267 108.987 29.2657C108.141 28.9047 107.473 28.398 106.986 27.7456C106.495 27.0869 106.226 26.3331 106.175 25.4781H108.569C108.635 26.1811 108.961 26.7512 109.544 27.1882C110.133 27.6284 110.902 27.8469 111.849 27.8469C112.736 27.8469 113.432 27.6537 113.939 27.2642C114.452 26.8778 114.711 26.3838 114.711 25.7821C114.711 25.174 114.436 24.7243 113.888 24.4266C113.347 24.1226 112.508 23.8281 111.368 23.5399C110.329 23.2707 109.481 22.9952 108.822 22.7165C108.17 22.4378 107.613 22.0261 107.15 21.475C106.685 20.9177 106.454 20.1893 106.454 19.2835C106.454 18.5741 106.663 17.9249 107.087 17.3327C107.508 16.7341 108.107 16.2622 108.885 15.9139C109.671 15.5592 110.564 15.3818 111.57 15.3818C113.115 15.3818 114.363 15.7745 115.319 16.5599C116.272 17.339 116.782 18.4063 116.851 19.7649H114.521C114.471 19.0397 114.179 18.4569 113.647 18.0167C113.115 17.5702 112.397 17.3453 111.494 17.3453C110.659 17.3453 109.994 17.529 109.506 17.8901C109.015 18.2448 108.772 18.7103 108.772 19.2835C108.772 19.7396 108.917 20.1196 109.215 20.4236C109.509 20.7213 109.88 20.9557 110.329 21.133C110.785 21.3104 111.409 21.5099 112.204 21.7284C113.207 22.0007 114.021 22.2699 114.648 22.5391C115.281 22.802 115.819 23.1979 116.269 23.7299C116.725 24.2556 116.959 24.9397 116.978 25.7821C116.978 26.5516 116.763 27.2452 116.332 27.8596C115.908 28.4676 115.31 28.9459 114.534 29.2911C113.764 29.6362 112.878 29.8104 111.874 29.8104Z" fill="#040404"/>
<path d="M119.334 13.3423C118.894 13.3423 118.523 13.1903 118.219 12.8862C117.915 12.5822 117.763 12.2117 117.763 11.7715C117.763 11.3249 117.915 10.9481 118.219 10.644C118.523 10.34 118.894 10.188 119.334 10.188C119.764 10.188 120.125 10.34 120.423 10.644C120.717 10.9481 120.866 11.3249 120.866 11.7715C120.866 12.2117 120.717 12.5822 120.423 12.8862C120.125 13.1903 119.764 13.3423 119.334 13.3423ZM120.461 15.6098V29.5824H118.143V15.6098H120.461Z" fill="#040404"/>
<path d="M127.26 29.8104C126.186 29.8104 125.224 29.6267 124.372 29.2657C123.527 28.9047 122.859 28.398 122.371 27.7456C121.88 27.0869 121.611 26.3331 121.561 25.4781H123.954C124.021 26.1811 124.347 26.7512 124.929 27.1882C125.518 27.6284 126.288 27.8469 127.234 27.8469C128.121 27.8469 128.817 27.6537 129.324 27.2642C129.837 26.8778 130.096 26.3838 130.096 25.7821C130.096 25.174 129.821 24.7243 129.273 24.4266C128.732 24.1226 127.893 23.8281 126.753 23.5399C125.715 23.2707 124.866 22.9952 124.207 22.7165C123.555 22.4378 122.998 22.0261 122.536 21.475C122.07 20.9177 121.839 20.1893 121.839 19.2835C121.839 18.5741 122.048 17.9249 122.472 17.3327C122.893 16.7341 123.492 16.2622 124.271 15.9139C125.056 15.5592 125.949 15.3818 126.956 15.3818C128.501 15.3818 129.748 15.7745 130.704 16.5599C131.657 17.339 132.167 18.4063 132.237 19.7649H129.906C129.856 19.0397 129.565 18.4569 129.033 18.0167C128.501 17.5702 127.782 17.3453 126.88 17.3453C126.044 17.3453 125.379 17.529 124.891 17.8901C124.401 18.2448 124.157 18.7103 124.157 19.2835C124.157 19.7396 124.302 20.1196 124.6 20.4236C124.894 20.7213 125.265 20.9557 125.715 21.133C126.17 21.3104 126.794 21.5099 127.589 21.7284C128.593 22.0007 129.406 22.2699 130.033 22.5391C130.666 22.802 131.205 23.1979 131.654 23.7299C132.11 24.2556 132.344 24.9397 132.363 25.7821C132.363 26.5516 132.148 27.2452 131.717 27.8596C131.293 28.4676 130.695 28.9459 129.919 29.2911C129.15 29.6362 128.263 29.8104 127.26 29.8104Z" fill="#040404"/>
<path d="M136.353 17.5229V25.7569C136.353 26.441 136.495 26.9224 136.783 27.2011C137.078 27.4798 137.581 27.6191 138.29 27.6191H140V29.5826H137.91C136.619 29.5826 135.647 29.2881 134.998 28.6959C134.355 28.0973 134.035 27.1187 134.035 25.7569V17.5229H132.224V15.61H134.035V12.1011H136.353V15.61H140V17.5229H136.353Z" fill="#040404"/>
<mask id="mask0_648_4927" style="mask-type:luminance" maskUnits="userSpaceOnUse" x="7" y="0" width="20" height="30">
<path d="M7.36133 0H26.0035V29.7946H7.36133V0Z" fill="white"/>
</mask>
<g mask="url(#mask0_648_4927)">
<path fill-rule="evenodd" clip-rule="evenodd" d="M18.8575 14.27C18.5631 14.4442 18.3383 14.6944 18.2148 15.0712C17.5753 16.9967 16.923 18.9191 16.2866 20.8477C16.1473 21.269 16.046 21.7028 15.9954 22.1684C16.0619 22.0607 16.1283 21.9498 16.1948 21.8422C17.5056 19.7362 19.1393 17.9532 21.3366 16.7466C22.2801 16.2272 23.2775 15.8756 24.3824 15.9928C25.7312 16.1353 26.2821 17.0537 25.7629 18.3079C25.4463 19.0679 24.9048 19.6538 24.2748 20.1637C23.1191 21.0916 21.7735 21.6363 20.3804 22.086C19.4718 22.3774 18.5473 22.6497 17.6734 23.0298C17.1193 23.2673 16.6223 23.66 16.1347 24.0274C15.7579 24.3156 15.6471 24.7336 15.7009 25.2213C15.8845 26.8776 16.4639 28.3724 17.4328 29.7247C17.4929 29.8102 17.5594 29.8894 17.6196 29.9749C17.6322 29.9939 17.6259 30.0224 17.6291 30.0857C16.8439 30.0857 16.0619 30.1016 15.283 30.0731C15.1627 30.0667 15.0202 29.883 14.9442 29.75C13.5258 27.2481 13.3232 24.6354 14.292 21.9403C14.4725 21.4431 14.387 21.0409 14.0482 20.7274C13.6113 20.3189 13.13 19.9483 12.6266 19.6285C11.9522 19.1978 11.224 18.8557 10.5433 18.4345C9.67261 17.9025 8.89374 17.2501 8.39666 16.3412C8.19403 15.9675 8.03255 15.5463 7.97873 15.1282C7.86158 14.2732 8.3555 13.7095 9.22302 13.7538C9.7296 13.7791 10.2615 13.928 10.7238 14.1465C11.7971 14.6532 12.5633 15.5241 13.2313 16.4805C13.988 17.5605 14.5611 18.7354 14.979 20.1194C15.6218 18.6404 16.4323 17.3514 16.6634 15.8345C16.7647 15.1853 16.6508 14.5614 15.9827 14.1623C15.8592 14.0863 15.7136 14.0198 15.5458 13.9596C13.0034 13.0729 11.3728 11.2171 10.4293 8.74369C9.77076 7.0272 9.46997 5.25055 9.86891 3.42005C9.95123 3.04636 10.1127 2.66632 10.3312 2.34963C10.7681 1.71941 11.5596 1.65607 12.0472 2.24512C12.348 2.60298 12.5886 3.06852 12.6899 3.52456C13.1807 5.69075 14.2065 7.59092 15.5014 9.36758C15.6693 9.60193 15.8434 9.83312 16.0017 10.0738C16.6159 11.0176 17.2238 11.9613 17.8887 12.9937C17.6164 12.3192 17.4233 11.6984 17.1257 11.1316C16.4323 9.82362 15.6313 8.56951 14.9854 7.23939C14.4598 6.15946 14.083 5.00986 13.6746 3.87926C13.6018 3.68291 13.6398 3.40739 13.7221 3.20787C14.0925 2.28629 14.6054 1.44705 15.3178 0.750321C16.426 -0.339108 17.4898 -0.240932 18.3668 1.04168C19.1267 2.15328 19.5224 3.42006 19.8169 4.7185C20.3108 6.87519 20.5008 9.04771 20.0163 11.2329C19.896 11.7745 19.6807 12.297 19.4718 12.9462C19.6174 12.7277 19.7156 12.6042 19.7915 12.4712C20.8459 10.609 21.1118 8.57901 20.925 6.49516C20.8237 5.39306 20.5356 4.3068 20.3425 3.21104C20.3235 3.10653 20.3425 2.93868 20.4121 2.88167C20.9567 2.41613 21.5519 2.03927 22.2706 1.90309C23.2015 1.72891 23.9202 2.0741 24.1861 2.97985C24.3919 3.68608 24.5027 4.44931 24.4837 5.18404C24.4236 7.43891 23.841 9.56393 22.5999 11.4736C21.8052 12.696 20.7382 13.5986 19.3325 14.061C19.1615 14.118 19.0032 14.1845 18.8575 14.27Z" fill="#040404"/>
</g>
<mask id="mask1_648_4927" style="mask-type:luminance" maskUnits="userSpaceOnUse" x="8" y="0" width="18" height="15">
<path d="M8.98218 0H25.1927V14.6851H8.98218V0Z" fill="white"/>
</mask>
<g mask="url(#mask1_648_4927)">
<mask id="mask2_648_4927" style="mask-type:luminance" maskUnits="userSpaceOnUse" x="7" y="0" width="19" height="31">
<path fill-rule="evenodd" clip-rule="evenodd" d="M18.8573 14.27C18.5628 14.4442 18.3381 14.6944 18.2146 15.0712C17.575 16.9967 16.9228 18.9191 16.2864 20.8477C16.1471 21.269 16.0458 21.7028 15.9951 22.1684C16.0616 22.0607 16.1281 21.9498 16.1946 21.8422C17.5054 19.7362 19.1391 17.9532 21.3364 16.7466C22.2799 16.2272 23.2772 15.8756 24.3822 15.9928C25.731 16.1353 26.2819 17.0537 25.7626 18.3079C25.446 19.0679 24.9046 19.6538 24.2745 20.1637C23.1189 21.0916 21.7733 21.6363 20.3802 22.086C19.4715 22.3774 18.547 22.6497 17.6732 23.0298C17.1191 23.2673 16.622 23.66 16.1344 24.0274C15.7577 24.3156 15.6468 24.7336 15.7007 25.2213C15.8843 26.8776 16.4637 28.3724 17.4325 29.7247C17.4927 29.8102 17.5592 29.8894 17.6193 29.9749C17.632 29.9939 17.6257 30.0224 17.6288 30.0857C16.8436 30.0857 16.0616 30.1016 15.2827 30.0731C15.1624 30.0667 15.02 29.883 14.944 29.75C13.5255 27.2481 13.3229 24.6354 14.2917 21.9403C14.4722 21.4431 14.3867 21.0409 14.048 20.7274C13.611 20.3189 13.1298 19.9483 12.6264 19.6285C11.952 19.1978 11.2238 18.8557 10.543 18.4345C9.67236 17.9025 8.8935 17.2501 8.39641 16.3412C8.19378 15.9675 8.03231 15.5463 7.97848 15.1282C7.86134 14.2732 8.35525 13.7095 9.22277 13.7538C9.72935 13.7791 10.2613 13.928 10.7235 14.1465C11.7968 14.6532 12.563 15.5241 13.2311 16.4805C13.9878 17.5605 14.5609 18.7354 14.9788 20.1194C15.6215 18.6404 16.432 17.3514 16.6632 15.8345C16.7645 15.1853 16.6505 14.5614 15.9825 14.1623C15.859 14.0863 15.7133 14.0198 15.5455 13.9596C13.0031 13.0729 11.3726 11.2171 10.4291 8.74369C9.77051 7.0272 9.46973 5.25055 9.86866 3.42005C9.95098 3.04636 10.1125 2.66632 10.3309 2.34963C10.7678 1.71941 11.5594 1.65607 12.047 2.24512C12.3477 2.60298 12.5884 3.06852 12.6897 3.52456C13.1804 5.69075 14.2063 7.59092 15.5012 9.36758C15.669 9.60193 15.8431 9.83312 16.0015 10.0738C16.6157 11.0176 17.2236 11.9613 17.8885 12.9937C17.6162 12.3192 17.423 11.6984 17.1254 11.1316C16.432 9.82362 15.631 8.56951 14.9851 7.23939C14.4595 6.15946 14.0828 5.00986 13.6743 3.87926C13.6015 3.68291 13.6395 3.40739 13.7218 3.20787C14.0923 2.28629 14.6052 1.44705 15.3176 0.750321C16.4257 -0.339108 17.4895 -0.240932 18.3665 1.04168C19.1264 2.15328 19.5222 3.42006 19.8166 4.7185C20.3105 6.87519 20.5005 9.04771 20.0161 11.2329C19.8958 11.7745 19.6805 12.297 19.4715 12.9462C19.6172 12.7277 19.7153 12.6042 19.7913 12.4712C20.8456 10.609 21.1116 8.57901 20.9248 6.49516C20.8235 5.39306 20.5353 4.3068 20.3422 3.21104C20.3232 3.10653 20.3422 2.93868 20.4119 2.88167C20.9564 2.41613 21.5517 2.03927 22.2704 1.90309C23.2012 1.72891 23.9199 2.0741 24.1859 2.97985C24.3917 3.68608 24.5025 4.44931 24.4835 5.18404C24.4233 7.43891 23.8408 9.56393 22.5997 11.4736C21.805 12.696 20.738 13.5986 19.3322 14.061C19.1612 14.118 19.0029 14.1845 18.8573 14.27Z" fill="white"/>
</mask>
<g mask="url(#mask2_648_4927)">
<path fill-rule="evenodd" clip-rule="evenodd" d="M15.9825 14.1623C15.859 14.0863 15.7134 14.0198 15.5455 13.9596C13.0031 13.0729 11.3726 11.2171 10.4291 8.74369C9.77053 7.0272 9.46975 5.25055 9.86868 3.42005C9.951 3.04635 10.1125 2.66632 10.3309 2.34963C10.7679 1.71941 11.5594 1.65607 12.047 2.24512C12.3478 2.60298 12.5884 3.06852 12.6897 3.52456C13.1804 5.69075 14.2063 7.59092 15.5012 9.36757C15.669 9.60193 15.8432 9.83312 16.0015 10.0738C16.6157 11.0176 17.2236 11.9613 17.8885 12.9937C17.6162 12.3192 17.4231 11.6984 17.1254 11.1316C16.4321 9.82361 15.631 8.5695 14.9851 7.23939C14.4596 6.15946 14.0828 5.00986 13.6744 3.87926C13.6015 3.68291 13.6395 3.40739 13.7219 3.20787C14.0923 2.28629 14.6052 1.44705 15.3176 0.750321C16.4257 -0.339108 17.4895 -0.240932 18.3666 1.04168C19.1264 2.15328 19.5222 3.42005 19.8167 4.7185C20.3106 6.87519 20.5005 9.04771 20.0161 11.2329C19.8958 11.7745 19.6805 12.297 19.4715 12.9462C19.6172 12.7277 19.7153 12.6042 19.7913 12.4712C20.8456 10.609 21.1116 8.57901 20.9248 6.49516C20.8235 5.39306 20.5354 4.3068 20.3422 3.21104C20.3232 3.10653 20.3422 2.93868 20.4119 2.88167C20.9565 2.41613 21.5517 2.03927 22.2704 1.90309C23.2012 1.72891 23.92 2.0741 24.1859 2.97985C24.3917 3.68608 24.5025 4.44931 24.4835 5.18404C24.4234 7.43891 23.8408 9.56393 22.5997 11.4736C21.805 12.696 20.738 13.5986 19.3322 14.061C19.1613 14.118 19.003 14.1845 18.8573 14.27C17.879 14.441 16.9323 14.3872 15.9825 14.1623Z" fill="#040404"/>
</g>
</g>
<mask id="mask3_648_4927" style="mask-type:luminance" maskUnits="userSpaceOnUse" x="0" y="25" width="30" height="17">
<path d="M0 25.5825H29.179V42H0V25.5825Z" fill="white"/>
</mask>
<g mask="url(#mask3_648_4927)">
<path d="M15.7546 35.3969L29.4735 30.3425L14.7383 25.5952L0 31.0329V36.3723L14.7383 41.791L29.4735 36.3597V35.2639L15.7546 40.3152V39.4316L29.4735 34.3803V33.2909L15.7546 38.3327V37.4491L29.4735 32.3851V31.3084L15.7546 36.3597V35.3969Z" fill="#040404"/>
</g>
</svg>
