<svg width="24" height="24" viewBox="0 0 24 24" fill="none" xmlns="http://www.w3.org/2000/svg">
<path fill-rule="evenodd" clip-rule="evenodd" d="M8 8.28493V20.0001C8 21.1047 7.10457 22.0001 6 22.0001H4C2.89543 22.0001 2 21.1047 2 20.0001V4.00013C2 2.89556 2.89543 2.00013 4 2.00013H6C6.74846 2.00013 7.40089 2.41126 7.74379 3.02001C7.98827 2.78674 8.29524 2.61234 8.64698 2.52608L10.5894 2.04972C11.6622 1.78664 12.7451 2.44303 13.0082 3.51581L16 15.7154V4.00013C16 2.89556 16.8954 2.00013 18 2.00013H20C21.1046 2.00013 22 2.89556 22 4.00013V20.0001C22 21.1047 21.1046 22.0001 20 22.0001H18C17.2515 22.0001 16.5991 21.589 16.2562 20.9802C16.0117 21.2135 15.7047 21.3879 15.353 21.4741L13.4106 21.9505C12.3378 22.2136 11.2548 21.5572 10.9918 20.4844L8 8.28493ZM9.12334 4.46852L11.0658 3.99217L14.8766 19.5317L12.9342 20.0081L9.12334 4.46852ZM6 4.00013L4 4.00013V20.0001H6V4.00013ZM20 4.00013L18 4.00013V20.0001H20V4.00013Z" fill="black"/>
</svg>
