<svg width="24" height="24" viewBox="0 0 24 24" fill="none" xmlns="http://www.w3.org/2000/svg">
<path d="M8.88516 3.49707L10.8276 3.02071C11.364 2.88917 11.9055 3.21736 12.037 3.75375L15.8479 19.2933C15.9794 19.8297 15.6512 20.3712 15.1148 20.5027L13.1724 20.9791C12.636 21.1106 12.0945 20.7824 11.963 20.246L8.15212 4.70647C8.02058 4.17008 8.34877 3.62861 8.88516 3.49707Z" fill="black"/>
<path d="M6 2.9999H4C3.44772 2.9999 3 3.44761 3 3.9999V19.9999C3 20.5522 3.44772 20.9999 4 20.9999H6C6.55228 20.9999 7 20.5522 7 19.9999V3.9999C7 3.44761 6.55228 2.9999 6 2.9999Z" fill="black"/>
<path d="M20 2.9999H18C17.4477 2.9999 17 3.44761 17 3.9999V19.9999C17 20.5522 17.4477 20.9999 18 20.9999H20C20.5523 20.9999 21 20.5522 21 19.9999V3.9999C21 3.44761 20.5523 2.9999 20 2.9999Z" fill="black"/>
</svg>
