<svg width="24" height="24" viewBox="0 0 24 24" fill="none" xmlns="http://www.w3.org/2000/svg">
<path d="M19.7786 4.22179C17.826 2.26917 14.6602 2.26917 12.7076 4.22179L9.87913 7.05022C9.48861 7.44074 9.48861 8.07391 9.87913 8.46443C10.2697 8.85496 10.9028 8.85496 11.2933 8.46443L14.1218 5.636C15.2933 4.46443 17.1928 4.46443 18.3644 5.636C19.536 6.80758 19.536 8.70707 18.3644 9.87864L15.536 12.7071C15.1455 13.0976 15.1455 13.7308 15.536 14.1213C15.9265 14.5118 16.5597 14.5118 16.9502 14.1213L19.7786 11.2929C21.7312 9.34024 21.7312 6.17441 19.7786 4.22179Z" fill="black"/>
<path d="M14.1218 11.2929C14.5123 10.9023 14.5123 10.2692 14.1218 9.87864C13.7312 9.48812 13.0981 9.48812 12.7076 9.87864L9.87913 12.7071C9.48861 13.0976 9.48861 13.7308 9.87913 14.1213C10.2697 14.5118 10.9028 14.5118 11.2933 14.1213L14.1218 11.2929Z" fill="black"/>
<path d="M8.46492 11.2929C8.85544 10.9023 8.85544 10.2692 8.46492 9.87864C8.07439 9.48812 7.44123 9.48812 7.05071 9.87864L4.22228 12.7071C2.26966 14.6597 2.26966 17.8255 4.22228 19.7781C6.1749 21.7308 9.34072 21.7308 11.2933 19.7781L14.1218 16.9497C14.5123 16.5592 14.5123 15.926 14.1218 15.5355C13.7312 15.145 13.0981 15.145 12.7076 15.5355L9.87913 18.3639C8.70756 19.5355 6.80806 19.5355 5.63649 18.3639C4.46492 17.1924 4.46492 15.2929 5.63649 14.1213L8.46492 11.2929Z" fill="black"/>
</svg>
