<svg width="24" height="24" viewBox="0 0 24 24" fill="none" xmlns="http://www.w3.org/2000/svg">
<path d="M20.7782 4.63582C21.1687 4.24529 21.1687 3.61213 20.7782 3.2216C20.3877 2.83108 19.7545 2.83108 19.364 3.2216L16.8285 5.75714V3.92871C16.8285 3.37643 16.3807 2.92871 15.8285 2.92871C15.2762 2.92871 14.8285 3.37643 14.8285 3.92871L14.8285 8.17135C14.8285 8.72364 15.2762 9.17135 15.8285 9.17135H20.0711C20.6234 9.17135 21.0711 8.72364 21.0711 8.17135C21.0711 7.61907 20.6234 7.17135 20.0711 7.17135H18.2427L20.7782 4.63582Z" fill="black"/>
<path d="M9.1716 15.8282C9.1716 15.563 9.06624 15.3086 8.8787 15.1211C8.69117 14.9336 8.43681 14.8282 8.1716 14.8282L3.92895 14.8282C3.37667 14.8282 2.92896 15.2759 2.92896 15.8282C2.92896 16.3805 3.37667 16.8282 3.92896 16.8282L5.75738 16.8282L3.22185 19.3637C2.83132 19.7543 2.83132 20.3874 3.22185 20.778C3.61237 21.1685 4.24554 21.1685 4.63606 20.778L7.1716 18.2424L7.1716 20.0708C7.1716 20.6231 7.61931 21.0708 8.1716 21.0708C8.72388 21.0708 9.1716 20.6231 9.1716 20.0708L9.1716 15.8282Z" fill="black"/>
<path d="M4.63608 3.22164C4.24556 2.83112 3.61239 2.83112 3.22187 3.22164C2.83134 3.61216 2.83134 4.24533 3.22187 4.63585L5.7574 7.17139H3.92897C3.37669 7.17139 2.92897 7.6191 2.92897 8.17139C2.92897 8.72367 3.37669 9.17139 3.92897 9.17139H8.17161C8.7239 9.17139 9.17161 8.72367 9.17161 8.17139V3.92875C9.17161 3.37646 8.7239 2.92875 8.17161 2.92875C7.61933 2.92875 7.17161 3.37646 7.17161 3.92875V5.75717L4.63608 3.22164Z" fill="black"/>
<path d="M15.8285 14.8282C15.5633 14.8282 15.3089 14.9336 15.1214 15.1211C14.9338 15.3087 14.8285 15.563 14.8285 15.8282L14.8285 20.0709C14.8285 20.6232 15.2762 21.0709 15.8285 21.0709C16.3808 21.0709 16.8285 20.6232 16.8285 20.0709L16.8285 18.2425L19.364 20.778C19.7545 21.1685 20.3877 21.1685 20.7782 20.778C21.1687 20.3875 21.1687 19.7543 20.7782 19.3638L18.2427 16.8282L20.0711 16.8282C20.6234 16.8282 21.0711 16.3805 21.0711 15.8282C21.0711 15.276 20.6234 14.8282 20.0711 14.8282L15.8285 14.8282Z" fill="black"/>
</svg>
