<svg width="24" height="24" viewBox="0 0 24 24" fill="none" xmlns="http://www.w3.org/2000/svg">
<path fill-rule="evenodd" clip-rule="evenodd" d="M10.494 1.87327C11.4249 1.33326 12.5737 1.33326 13.5046 1.87327L16.7568 3.75981L20.0167 5.63301C20.9498 6.16919 21.5242 7.16411 21.522 8.24031L21.5143 12L21.522 15.7598C21.5242 16.836 20.9498 17.8309 20.0167 18.3671L16.7568 20.2403L13.5046 22.1268C12.5737 22.6668 11.4249 22.6668 10.494 22.1268L7.24178 20.2403L3.98189 18.3671C3.04878 17.8309 2.47436 16.836 2.47657 15.7598L2.48428 12L2.47657 8.24031C2.47436 7.16411 3.04878 6.16919 3.98189 5.63301L7.24178 3.75981L10.494 1.87327ZM11.9993 6.00005C12.5516 6.00005 12.9993 6.44776 12.9993 7.00005V14C12.9993 14.5523 12.5516 15 11.9993 15C11.447 15 10.9993 14.5523 10.9993 14V7.00005C10.9993 6.44776 11.447 6.00005 11.9993 6.00005ZM10.7493 16.75C10.7493 17.4404 11.3089 18 11.9993 18C12.6896 18 13.2493 17.4404 13.2493 16.75C13.2493 16.0597 12.6896 15.5 11.9993 15.5C11.3089 15.5 10.7493 16.0597 10.7493 16.75Z" fill="black"/>
</svg>
