<svg width="24" height="24" viewBox="0 0 24 24" fill="none" xmlns="http://www.w3.org/2000/svg">
<path d="M5.53161 4.41173C5.35029 4.42669 5.17572 4.44142 5.00911 4.45573C5.1905 4.28758 5.37795 4.12589 5.5711 3.97104C5.55827 4.11042 5.54506 4.2575 5.53161 4.41173Z" fill="black"/>
<path d="M7.14177 3.31276C7.15768 3.15645 7.17193 3.02143 7.18399 2.90967C8.41244 2.25759 9.78866 1.84741 11.2494 1.74219V4.08512C9.91297 4.11071 8.39995 4.19777 7.04785 4.29466C7.08231 3.91147 7.11448 3.58086 7.14177 3.31276Z" fill="black"/>
<path d="M12.7494 4.08512V1.74219C14.2101 1.84741 15.5863 2.25759 16.8147 2.90967C16.8268 3.02143 16.8411 3.15645 16.857 3.31276C16.8842 3.58086 16.9164 3.91147 16.9509 4.29466C15.5988 4.19777 14.0858 4.11071 12.7494 4.08512Z" fill="black"/>
<path d="M18.4671 4.41173C18.4537 4.2575 18.4405 4.11042 18.4276 3.97104C18.6208 4.12589 18.8082 4.28758 18.9896 4.45573C18.823 4.44142 18.6484 4.42669 18.4671 4.41173Z" fill="black"/>
<path d="M19.8653 6.03988C20.0882 6.06055 20.2754 6.07845 20.4195 6.09245C21.4599 7.57238 22.1199 9.33838 22.2575 11.2503H18.8146C18.7938 9.29576 18.6953 7.435 18.5873 5.92694C19.0816 5.96852 19.5169 6.00758 19.8653 6.03988Z" fill="black"/>
<path d="M18.8146 12.7503H22.2575C22.1199 14.6623 21.4599 16.4283 20.4195 17.9082C20.2754 17.9222 20.0882 17.9401 19.8653 17.9608C19.5169 17.9931 19.0816 18.0321 18.5873 18.0737C18.6953 16.5657 18.7938 14.7049 18.8146 12.7503Z" fill="black"/>
<path d="M18.4671 19.5889C18.6484 19.574 18.823 19.5592 18.9896 19.5449C18.8082 19.7131 18.6208 19.8748 18.4276 20.0296C18.4405 19.8902 18.4537 19.7432 18.4671 19.5889Z" fill="black"/>
<path d="M16.857 20.6879C16.8411 20.8442 16.8268 20.9792 16.8147 21.091C15.5863 21.7431 14.2101 22.1532 12.7494 22.2585V19.9155C14.0858 19.8899 15.5988 19.8029 16.9509 19.706C16.9164 20.0892 16.8842 20.4198 16.857 20.6879Z" fill="black"/>
<path d="M11.2494 19.9155V22.2585C9.78866 22.1532 8.41244 21.7431 7.18399 21.091C7.17193 20.9792 7.15768 20.8442 7.14177 20.6879C7.11448 20.4198 7.08231 20.0892 7.04785 19.706C8.39995 19.8029 9.91297 19.8899 11.2494 19.9155Z" fill="black"/>
<path d="M5.53161 19.5889C5.54506 19.7432 5.55827 19.8902 5.5711 20.0296C5.37795 19.8748 5.1905 19.7131 5.00912 19.5449C5.17572 19.5592 5.35029 19.574 5.53161 19.5889Z" fill="black"/>
<path d="M4.13347 17.9608C3.91051 17.9401 3.72331 17.9222 3.57924 17.9082C2.53879 16.4283 1.87888 14.6623 1.74121 12.7503H5.18413C5.20498 14.7049 5.30342 16.5657 5.41138 18.0737C4.91713 18.0321 4.48179 17.9931 4.13347 17.9608Z" fill="black"/>
<path d="M5.18413 11.2503H1.74121C1.87888 9.33838 2.53879 7.57238 3.57924 6.09245C3.72331 6.07845 3.91051 6.06055 4.13347 6.03988C4.48179 6.00758 4.91713 5.96852 5.41138 5.92694C5.30342 7.435 5.20498 9.29576 5.18413 11.2503Z" fill="black"/>
<path d="M6.68422 11.2503C6.70609 9.24131 6.81157 7.32883 6.92403 5.80759C8.31426 5.70549 9.88326 5.61239 11.2494 5.58539V11.2503H6.68422Z" fill="black"/>
<path d="M12.7494 11.2503V5.58539C14.1155 5.61239 15.6845 5.70549 17.0747 5.80759C17.1872 7.32883 17.2926 9.24131 17.3145 11.2503H12.7494Z" fill="black"/>
<path d="M12.7494 12.7503H17.3145C17.2926 14.7593 17.1872 16.6718 17.0747 18.1931C15.6845 18.2952 14.1155 18.3883 12.7494 18.4153V12.7503Z" fill="black"/>
<path d="M11.2494 12.7503V18.4153C9.88326 18.3883 8.31426 18.2952 6.92403 18.1931C6.81157 16.6718 6.70609 14.7593 6.68422 12.7503H11.2494Z" fill="black"/>
</svg>
