<svg width="24" height="24" viewBox="0 0 24 24" fill="none" xmlns="http://www.w3.org/2000/svg">
<path fill-rule="evenodd" clip-rule="evenodd" d="M20.5961 2.90984C19.2495 1.56326 17.0662 1.56325 15.7196 2.90984L7.19416 11.4353C6.58217 12.0473 6.18518 12.8413 6.06279 13.6981L5.81573 15.4274C5.62717 16.7474 6.75854 17.8787 8.07847 17.6902L9.80784 17.4431C10.6646 17.3207 11.4586 16.9237 12.0706 16.3117L20.5961 7.78627C21.9426 6.43968 21.9426 4.25643 20.5961 2.90984ZM17.3433 4.15037C17.907 3.7661 18.6818 3.824 19.1818 4.32406C19.6819 4.82412 19.7398 5.59891 19.3555 6.16258L17.3433 4.15037ZM15.9112 5.54669L17.9592 7.59469L10.6564 14.8975C10.3504 15.2035 9.95339 15.402 9.525 15.4632L7.79563 15.7103L8.04269 13.9809C8.10388 13.5525 8.30238 13.1555 8.60837 12.8495L15.9112 5.54669Z" fill="black"/>
<path d="M6 1.99986C3.79086 1.99986 2 3.79072 2 5.99986V17.9999C2 20.209 3.79086 21.9999 6 21.9999H18C20.2091 21.9999 22 20.209 22 17.9999V11.9999C22 11.4476 21.5523 10.9999 21 10.9999C20.4477 10.9999 20 11.4476 20 11.9999V17.9999C20 19.1044 19.1046 19.9999 18 19.9999H6C4.89543 19.9999 4 19.1044 4 17.9999V5.99986C4 4.89529 4.89543 3.99986 6 3.99986H8.68421C9.2365 3.99986 9.68421 3.55214 9.68421 2.99986C9.68421 2.44757 9.2365 1.99986 8.68421 1.99986H6Z" fill="black"/>
</svg>
