<svg width="24" height="24" viewBox="0 0 24 24" fill="none" xmlns="http://www.w3.org/2000/svg">
<path d="M5 4H19C20.6568 4 21.9999 5.343 22 6.99974C21.8763 6.9997 21.7505 7.02277 21.6286 7.07152L12.7428 10.6259C12.266 10.8166 11.734 10.8166 11.2572 10.6259L2.37139 7.07152C2.24951 7.02277 2.12371 6.9997 2 6.99973C2.00014 5.343 3.34323 4 5 4Z" fill="black"/>
<path d="M2 9.07703V17C2 18.6569 3.34315 20 5 20H15.3582C15.3954 19.2853 15.6869 18.5814 16.2328 18.0355C16.9881 17.2803 18.0458 17.0119 19.016 17.2303L19.8677 16.3787C20.4563 15.7901 21.2286 15.4972 22 15.5V9.07703L13.4856 12.4828C12.5319 12.8643 11.4681 12.8643 10.5144 12.4828L2 9.07703Z" fill="black"/>
<path d="M22.6961 19.2071C23.0866 18.8166 23.0866 18.1834 22.6961 17.7929C22.3056 17.4024 21.6724 17.4024 21.2819 17.7929L19.3431 19.7316L19.0613 19.4497C18.6707 19.0592 18.0376 19.0592 17.647 19.4497C17.2565 19.8403 17.2565 20.4734 17.647 20.8639L18.636 21.8529C19.0266 22.2435 19.6597 22.2435 20.0503 21.8529L22.6961 19.2071Z" fill="black"/>
</svg>
