<svg width="24" height="24" viewBox="0 0 24 24" fill="none" xmlns="http://www.w3.org/2000/svg">
<path fill-rule="evenodd" clip-rule="evenodd" d="M11.5787 3.09927C11.8534 3.01897 12.1458 3.01902 12.4205 3.09927L12.5562 3.14615L21.2105 6.60806C22.4675 7.11102 22.4675 8.89026 21.2105 9.39322L19.692 9.99966L21.2105 10.6081C22.4675 11.111 22.4675 12.8903 21.2105 13.3932L19.692 13.9997L21.2105 14.6081C22.4675 15.111 22.4675 16.8903 21.2105 17.3932L12.5562 20.8551C12.199 20.9977 11.8001 20.9979 11.443 20.8551L2.78866 17.3932C1.53202 16.8902 1.53222 15.1113 2.78866 14.6081L4.30624 13.9997L2.78866 13.3932C1.53202 12.8902 1.53222 11.1113 2.78866 10.6081L4.30624 9.99966L2.78866 9.39322C1.53201 8.89022 1.53222 7.11126 2.78866 6.60806L11.443 3.14615L11.5787 3.09927ZM12.5562 16.8551C12.199 16.9977 11.8001 16.9979 11.443 16.8551L6.9996 15.0768L4.691 16.0006L11.9996 18.9235L19.3072 16.0006L16.9986 15.0768L12.5562 16.8551ZM12.5562 12.8551C12.199 12.9977 11.8001 12.9979 11.443 12.8551L6.9996 11.0768L4.691 12.0006L11.9996 14.9235L19.3072 12.0006L16.9986 11.0768L12.5562 12.8551ZM4.691 8.00064L11.9996 10.9235L19.3072 8.00064L11.9996 5.07681L4.691 8.00064Z" fill="black"/>
</svg>
