<svg width="24" height="24" viewBox="0 0 24 24" fill="none" xmlns="http://www.w3.org/2000/svg">
<path d="M10.5857 1.10059C10.0335 1.10059 9.58575 1.5483 9.58575 2.10059C9.58575 2.65287 10.0335 3.10059 10.5857 3.10059H12.4142L1.39336 14.1214C1.00283 14.5119 1.00283 15.1451 1.39336 15.5356C1.78388 15.9261 2.41705 15.9261 2.80757 15.5356L13.8284 4.5148V6.34323C13.8284 6.89551 14.2761 7.34323 14.8284 7.34323C15.3807 7.34323 15.8284 6.89551 15.8284 6.34323V2.10059C15.8284 1.5483 15.3807 1.10059 14.8284 1.10059H10.5857Z" fill="black"/>
<path d="M22.6066 9.87886C22.9971 9.48834 22.9971 8.85517 22.6066 8.46465C22.216 8.07412 21.5829 8.07412 21.1924 8.46465L10.1715 19.4855V17.657C10.1715 17.1047 9.72382 16.657 9.17154 16.657C8.61925 16.657 8.17154 17.1047 8.17154 17.657V21.8997C8.17154 22.452 8.61925 22.8997 9.17154 22.8997H13.4142C13.9665 22.8997 14.4142 22.452 14.4142 21.8997C14.4142 21.3474 13.9665 20.8997 13.4142 20.8997H11.5858L22.6066 9.87886Z" fill="black"/>
</svg>
