<svg width="24" height="24" viewBox="0 0 24 24" fill="none" xmlns="http://www.w3.org/2000/svg">
<path fill-rule="evenodd" clip-rule="evenodd" d="M12 5.50011C9.51475 5.50011 7.50003 7.51483 7.50003 10.0001C7.50003 12.4854 9.51475 14.5001 12 14.5001C14.4853 14.5001 16.5 12.4854 16.5 10.0001C16.5 7.51483 14.4853 5.50011 12 5.50011ZM9.50003 10.0001C9.50003 8.6194 10.6193 7.50011 12 7.50011C13.3807 7.50011 14.5 8.6194 14.5 10.0001C14.5 11.3808 13.3807 12.5001 12 12.5001C10.6193 12.5001 9.50003 11.3808 9.50003 10.0001Z" fill="black"/>
<path fill-rule="evenodd" clip-rule="evenodd" d="M7.80927 3.5921C10.347 1.90029 13.6531 1.90029 16.1908 3.5921C19.6217 5.87936 20.5849 10.4951 18.3551 13.9637L14.5236 19.9239C13.3427 21.7608 10.6574 21.7608 9.4765 19.9239L5.64493 13.9637C3.41516 10.4951 4.37838 5.87937 7.80927 3.5921ZM8.91867 5.2562C10.7846 4.01226 13.2155 4.01226 15.0814 5.2562C17.604 6.93797 18.3123 10.3318 16.6728 12.8821L12.8412 18.8424C12.4476 19.4547 11.5525 19.4547 11.1589 18.8424L7.32729 12.8821C5.68779 10.3318 6.39602 6.93797 8.91867 5.2562Z" fill="black"/>
</svg>
