<svg width="24" height="24" viewBox="0 0 24 24" fill="none" xmlns="http://www.w3.org/2000/svg">
<path fill-rule="evenodd" clip-rule="evenodd" d="M13.423 3.10671C12.9672 1.73916 11.0328 1.73918 10.577 3.10671L6.83307 14.3384C6.23418 16.1351 6.7018 18.1159 8.04096 19.4551L8.46447 19.8786C10.4171 21.8312 13.5829 21.8312 15.5355 19.8786L15.959 19.4551C17.2982 18.1159 17.7658 16.1351 17.1669 14.3384L13.423 3.10671ZM8.73044 14.9709L12 5.16219L15.2696 14.9709C15.6289 16.0489 15.3483 17.2374 14.5448 18.0409L14.1213 18.4644C12.9497 19.636 11.0503 19.636 9.87868 18.4644L9.45517 18.0409C8.65167 17.2374 8.37111 16.0489 8.73044 14.9709Z" fill="black"/>
</svg>
