<svg width="24" height="24" viewBox="0 0 24 24" fill="none" xmlns="http://www.w3.org/2000/svg">
<path fill-rule="evenodd" clip-rule="evenodd" d="M10.193 2.74731C11.2002 1.77298 12.799 1.77309 13.8063 2.74731C14.3823 3.30452 15.1837 3.56462 15.9772 3.45239C17.3646 3.25643 18.6579 4.19626 18.9 5.57641C19.0385 6.36574 19.5329 7.04747 20.2408 7.42309C21.4787 8.07985 21.9731 9.59967 21.358 10.8586C21.0061 11.5786 21.0061 12.4209 21.358 13.1409C21.9735 14.3999 21.4788 15.9206 20.2408 16.5774C19.5332 16.953 19.0386 17.634 18.9 18.4231C18.6579 19.8033 17.3646 20.7431 15.9772 20.5471C15.1837 20.4349 14.3822 20.695 13.8063 21.2522C12.799 22.2266 11.2002 22.2266 10.193 21.2522C9.61706 20.6952 8.81639 20.435 8.02306 20.5471C6.63543 20.7434 5.34234 19.8035 5.10021 18.4231C4.96166 17.6339 4.46624 16.9529 3.75841 16.5774C2.52045 15.9205 2.02674 14.3999 2.6422 13.1409C2.99403 12.4209 2.99411 11.5785 2.6422 10.8586C2.02692 9.59968 2.52064 8.07995 3.75841 7.42309C4.46634 7.04748 4.96174 6.36576 5.10021 5.57641C5.34242 4.19615 6.63549 3.25612 8.02306 3.45239C8.81653 3.56458 9.61702 3.3045 10.193 2.74731ZM11.9996 7.00024C9.23827 7.00033 6.99962 9.23887 6.99962 12.0002C6.99974 14.7615 9.23835 17.0001 11.9996 17.0002C14.761 17.0002 16.9995 14.7616 16.9996 12.0002C16.9996 9.23882 14.761 7.00024 11.9996 7.00024Z" fill="black"/>
</svg>
