<svg width="24" height="24" viewBox="0 0 24 24" fill="none" xmlns="http://www.w3.org/2000/svg">
<path fill-rule="evenodd" clip-rule="evenodd" d="M3.68206 3.34334C2.94369 4.08171 2.43866 5.18818 2.72673 6.38678C3.16834 8.22429 4.49723 11.5727 8.46023 15.5357C12.4232 19.4987 15.7717 20.8276 17.6092 21.2692C18.8078 21.5573 19.9143 21.0523 20.6526 20.3139L21.1882 19.7784C22.7503 18.2163 22.7503 15.6836 21.1882 14.1215L20.2593 13.1926C18.986 11.9194 17.0189 11.6538 15.4536 12.5439L15.3571 12.5988C14.7157 12.9635 13.9788 12.9337 13.4568 12.5559C13.0355 12.2511 12.6329 11.9303 12.3493 11.6466C12.0657 11.363 11.7449 10.9604 11.44 10.5392C11.0622 10.0172 11.0324 9.28028 11.3972 8.63885L11.4521 8.54232C12.3421 6.97702 12.0766 5.00994 10.8033 3.73668L9.87445 2.8078C8.31235 1.2457 5.77969 1.24571 4.21759 2.8078L3.68206 3.34334ZM4.67135 5.91942C4.58756 5.57078 4.70942 5.1444 5.09627 4.75755L5.63181 4.22202C6.41286 3.44097 7.67918 3.44097 8.46023 4.22202L9.38911 5.15089C10.0257 5.78752 10.1585 6.77106 9.71348 7.55371L9.65859 7.65025C8.95368 8.8899 8.92895 10.4808 9.81983 11.7118C10.1471 12.1639 10.5403 12.6661 10.9351 13.0609C11.3299 13.4556 11.832 13.8489 12.2842 14.1761C13.5152 15.067 15.1061 15.0423 16.3457 14.3374L16.4422 14.2825C17.2249 13.8374 18.2084 13.9702 18.8451 14.6068L19.7739 15.5357C20.555 16.3168 20.555 17.5831 19.7739 18.3642L19.2384 18.8997C18.8516 19.2865 18.4252 19.4084 18.0765 19.3246C16.6075 18.9715 13.5841 17.8312 9.87445 14.1215C6.16477 10.4118 5.02441 7.38846 4.67135 5.91942Z" fill="black"/>
<path d="M13.736 9.32658C13.7658 9.83264 14.1695 10.2364 14.6755 10.2661L16.679 10.384C17.2303 10.4164 17.7036 9.99577 17.736 9.44443C17.7644 8.96211 17.446 8.53956 16.9967 8.41962L18.9769 6.43943C19.3674 6.04891 19.3674 5.41574 18.9769 5.02522C18.5864 4.6347 17.9532 4.6347 17.5627 5.02522L15.5825 7.00541C15.4626 6.55613 15.04 6.23775 14.5577 6.26612C14.0064 6.29855 13.5857 6.77178 13.6181 7.32311L13.736 9.32658Z" fill="black"/>
</svg>
