<svg width="24" height="24" viewBox="0 0 24 24" fill="none" xmlns="http://www.w3.org/2000/svg">
<path fill-rule="evenodd" clip-rule="evenodd" d="M14.4196 2.18966C14.1152 1.96956 13.7131 1.9386 13.3786 2.10951C13.0441 2.28042 12.8336 2.62437 12.8336 3V14.7366C12.0793 14.4506 11.069 14.2323 9.74857 14.2323C8.21081 14.2323 7.09277 14.5284 6.30909 14.8837C4.91393 15.5162 4.75393 17.0686 5.28768 18.1328C5.63907 18.8334 6.1712 19.7545 6.86454 20.5146C7.54016 21.2553 8.51436 22 9.74857 22C12.8986 22 14.8336 19.1506 14.8336 16.514V10.1566C16.1334 9.95183 17.0987 9.35192 17.7716 8.59749C18.5768 7.69467 18.9227 6.61882 18.9955 5.85993C19.0349 5.45 18.8189 5.05786 18.4514 4.872C17.6238 4.45346 15.4521 2.93625 14.4196 2.18966ZM12.4914 16.7669C12.6204 16.8317 12.7255 16.8945 12.8088 16.9502C12.6192 18.6132 11.362 20 9.74857 20C9.35157 20 8.87558 19.7515 8.34217 19.1668C7.82647 18.6014 7.39068 17.8647 7.07542 17.2361C6.99241 17.0706 6.99032 16.9285 7.01146 16.8467C7.02144 16.808 7.03604 16.7827 7.05032 16.7654C7.06367 16.7492 7.0874 16.7268 7.13494 16.7052C7.64006 16.4762 8.47389 16.2323 9.74857 16.2323C11.1362 16.2323 12.0023 16.5213 12.4914 16.7669ZM16.279 7.26626C15.9625 7.62112 15.5056 7.95119 14.8336 8.11826V4.92919C15.5229 5.40438 16.2681 5.90293 16.8648 6.26722C16.7506 6.58931 16.5631 6.94779 16.279 7.26626Z" fill="black"/>
</svg>
