<svg width="24" height="24" viewBox="0 0 24 24" fill="none" xmlns="http://www.w3.org/2000/svg">
<path d="M18.0001 2C18.5524 2 19.0001 2.44772 19.0001 3V21C19.0001 21.5523 18.5524 22 18.0001 22C17.4478 22 17.0001 21.5523 17.0001 21V3C17.0001 2.44772 17.4478 2 18.0001 2Z" fill="black"/>
<path d="M15.0001 9C15.0001 8.44772 14.5524 8 14.0001 8C13.4478 8 13.0001 8.44772 13.0001 9V21C13.0001 21.5523 13.4478 22 14.0001 22C14.5524 22 15.0001 21.5523 15.0001 21V9Z" fill="black"/>
<path d="M10.0001 12C10.5524 12 11.0001 12.4477 11.0001 13V21C11.0001 21.5523 10.5524 22 10.0001 22C9.44781 22 9.00009 21.5523 9.00009 21V13C9.00009 12.4477 9.44781 12 10.0001 12Z" fill="black"/>
<path d="M6.00009 16C6.55238 16 7.00009 16.4477 7.00009 17V21C7.00009 21.5523 6.55238 22 6.00009 22C5.44781 22 5.00009 21.5523 5.00009 21V17C5.00009 16.4477 5.44781 16 6.00009 16Z" fill="black"/>
<path d="M6.12141 4.70705C5.73089 4.31652 5.09772 4.31652 4.7072 4.70705C4.31668 5.09757 4.31668 5.73074 4.7072 6.12126L5.41431 6.82837L4.7072 7.53548C4.31668 7.926 4.31668 8.55917 4.7072 8.94969C5.09772 9.34021 5.73089 9.34021 6.12141 8.94969L6.82852 8.24258L7.53563 8.94969C7.92615 9.34021 8.55932 9.34021 8.94984 8.94969C9.34036 8.55917 9.34036 7.926 8.94984 7.53548L8.24273 6.82837L8.94984 6.12126C9.34036 5.73074 9.34036 5.09757 8.94984 4.70705C8.55932 4.31652 7.92615 4.31652 7.53563 4.70705L6.82852 5.41416L6.12141 4.70705Z" fill="black"/>
</svg>
