<svg width="24" height="24" viewBox="0 0 24 24" fill="none" xmlns="http://www.w3.org/2000/svg">
<path fill-rule="evenodd" clip-rule="evenodd" d="M21.2588 5.83479C22.0232 3.81961 20.0499 1.84628 18.0347 2.61066L3.7384 8.0334C1.72949 8.7954 1.55408 11.5691 3.451 12.5781L8.43417 15.2287C8.52209 15.2755 8.59404 15.3474 8.6408 15.4353L11.2914 20.4185C12.3004 22.3154 15.0741 22.14 15.8361 20.1311L21.2588 5.83479ZM18.744 4.48066C19.1471 4.32778 19.5417 4.72245 19.3888 5.12548L13.9661 19.4218C13.8137 19.8236 13.259 19.8587 13.0572 19.4793L10.4065 14.4961C10.1727 14.0565 9.81298 13.6968 9.3734 13.463L4.39022 10.8123C4.01084 10.6105 4.04592 10.0558 4.4477 9.9034L18.744 4.48066Z" fill="black"/>
</svg>
