<svg width="24" height="24" viewBox="0 0 24 24" fill="none" xmlns="http://www.w3.org/2000/svg">
<path fill-rule="evenodd" clip-rule="evenodd" d="M9.72007 4.62908C10.6047 2.66404 13.3961 2.66396 14.2806 4.62908L20.555 18.5734C21.436 20.5325 19.5987 22.6169 17.5443 21.9894L12.1468 20.34C12.0517 20.311 11.949 20.311 11.8539 20.34L6.45639 21.9894C4.40176 22.6172 2.56443 20.5326 3.44565 18.5734L9.72007 4.62908ZM12.4564 5.45037C12.2795 5.05732 11.7212 5.05741 11.5443 5.45037L5.26987 19.3937C5.0936 19.7854 5.46067 20.2024 5.87143 20.0773L11.2699 18.4279C11.7459 18.2825 12.2548 18.2825 12.7308 18.4279L18.1292 20.0773C18.5398 20.2021 18.9069 19.7853 18.7308 19.3937L12.4564 5.45037Z" fill="black"/>
</svg>
