<svg width="24" height="24" viewBox="0 0 24 24" fill="none" xmlns="http://www.w3.org/2000/svg">
<path d="M4.92556 3.51491L4.39002 4.05045C3.82741 4.61305 3.51397 5.37948 3.6999 6.1531C4.09723 7.80637 5.33186 10.9923 9.1682 14.8286C13.0045 18.665 16.1904 19.8996 17.8437 20.2969C18.6173 20.4828 19.3838 20.1694 19.9464 19.6068L20.4819 19.0713C21.6535 17.8997 21.6535 16.0002 20.4819 14.8286L19.553 13.8997C18.5981 12.9448 17.1228 12.7456 15.9488 13.4132L15.8523 13.4681C14.9117 14.0029 13.7478 14.0004 12.8713 13.366C12.4346 13.05 11.9823 12.693 11.6431 12.3537C11.3039 12.0145 10.9468 11.5622 10.6308 11.1255C9.99645 10.249 9.99391 9.08509 10.5287 8.14455L10.5836 8.04802C11.2512 6.87404 11.052 5.39873 10.0971 4.44379L9.1682 3.51491C7.99662 2.34334 6.09713 2.34334 4.92556 3.51491Z" fill="black"/>
<path d="M19.2689 5.67372C19.2392 5.16766 18.8354 4.76394 18.3294 4.73417L16.3259 4.61632C15.7746 4.58389 15.3013 5.00454 15.2689 5.55587C15.2405 6.03819 15.5589 6.46074 16.0082 6.58068L14.028 8.56087C13.6375 8.95139 13.6375 9.58456 14.028 9.97508C14.4185 10.3656 15.0517 10.3656 15.4422 9.97508L17.4224 7.99489C17.5423 8.44417 17.9649 8.76256 18.4472 8.73419C18.9985 8.70175 19.4192 8.22852 19.3868 7.67719L19.2689 5.67372Z" fill="black"/>
</svg>
