<svg width="24" height="24" viewBox="0 0 24 24" fill="none" xmlns="http://www.w3.org/2000/svg">
<path fill-rule="evenodd" clip-rule="evenodd" d="M11.9995 1C10.6188 1 9.49953 2.11929 9.49953 3.5V6C9.49953 6.55228 9.05181 7 8.49953 7H5.99953C4.34267 7 2.99953 8.34315 2.99953 10V13.9377L2.28826 19.6279C2.06444 21.4185 3.4606 23 5.26509 23H18.734C20.5385 23 21.9346 21.4185 21.7108 19.6279L20.9995 13.9377V10C20.9995 8.34315 19.6564 7 17.9995 7H15.4995C14.9472 7 14.4995 6.55228 14.4995 6V3.5C14.4995 2.11929 13.3802 1 11.9995 1ZM4.27281 19.876L4.88231 15H19.1167L19.7262 19.876C19.8008 20.4728 19.3355 21 18.734 21H16.8668L16.4895 18.3586C16.4114 17.8118 15.9048 17.4319 15.3581 17.5101C14.8114 17.5882 14.4315 18.0947 14.5096 18.6414L14.8465 21H5.26509C4.66359 21 4.19821 20.4728 4.27281 19.876ZM17.9995 9C18.5518 9 18.9995 9.44772 18.9995 10V13H4.99953V10C4.99953 9.44772 5.44724 9 5.99953 9H8.49953C10.1564 9 11.4995 7.65685 11.4995 6V3.5C11.4995 3.22386 11.7234 3 11.9995 3C12.2757 3 12.4995 3.22386 12.4995 3.5V6C12.4995 7.65685 13.8427 9 15.4995 9H17.9995Z" fill="black"/>
</svg>
