<svg width="24" height="24" viewBox="0 0 24 24" fill="none" xmlns="http://www.w3.org/2000/svg">
<path fill-rule="evenodd" clip-rule="evenodd" d="M4.8745 4H18.5004C20.1573 4 21.5004 5.34315 21.5004 7V8.09168C21.5004 8.68395 21.3251 9.26297 20.9966 9.75577L20.4662 10.5514C19.869 11.4472 19.7976 12.5943 20.279 13.5572L21.1837 15.3666C21.392 15.7831 21.5004 16.2425 21.5004 16.7082L21.5004 17C21.5004 18.6568 20.1573 20 18.5004 20H5.00045C3.34359 20 2.00045 18.6569 2.00045 17L2.00045 16.8604C2.00045 16.2981 2.15845 15.7472 2.45645 15.2704L3.5067 13.59C4.1147 12.6172 4.1147 11.3828 3.5067 10.41L2.34869 8.55719C2.11929 8.19014 1.97264 7.77751 1.91895 7.34801C1.69673 5.57024 3.08291 4 4.8745 4ZM8.00045 6.5C8.00045 5.94772 7.55273 5.5 7.00045 5.5C6.44816 5.5 6.00045 5.94772 6.00045 6.5V8.5C6.00045 9.05229 6.44816 9.5 7.00045 9.5C7.55273 9.5 8.00045 9.05229 8.00045 8.5V6.5ZM7.00045 10C7.55273 10 8.00045 10.4477 8.00045 11V13C8.00045 13.5523 7.55273 14 7.00045 14C6.44816 14 6.00045 13.5523 6.00045 13V11C6.00045 10.4477 6.44816 10 7.00045 10ZM8.00045 15.5C8.00045 14.9477 7.55273 14.5 7.00045 14.5C6.44816 14.5 6.00045 14.9477 6.00045 15.5V17.5C6.00045 18.0523 6.44816 18.5 7.00045 18.5C7.55273 18.5 8.00045 18.0523 8.00045 17.5V15.5Z" fill="black"/>
</svg>
