<svg width="24" height="24" viewBox="0 0 24 24" fill="none" xmlns="http://www.w3.org/2000/svg">
<path fill-rule="evenodd" clip-rule="evenodd" d="M10.3719 12.3538C10.8934 13.9183 13.1064 13.9183 13.6279 12.3538C13.7422 12.011 14.0112 11.742 14.354 11.6277C15.9185 11.1062 15.9185 8.89322 14.354 8.37171C14.0112 8.25744 13.7422 7.98841 13.6279 7.64557C13.1064 6.08106 10.8934 6.08106 10.3719 7.64557C10.2576 7.98841 9.98861 8.25744 9.64577 8.37171C8.08126 8.89322 8.08126 11.1062 9.64577 11.6277C9.98861 11.742 10.2576 12.011 10.3719 12.3538ZM11.9999 11.127C11.7272 10.6609 11.3387 10.2724 10.8726 9.9997C11.3387 9.72696 11.7272 9.33852 11.9999 8.87241C12.2726 9.33852 12.6611 9.72696 13.1272 9.9997C12.6611 10.2724 12.2726 10.6609 11.9999 11.127Z" fill="black"/>
<path fill-rule="evenodd" clip-rule="evenodd" d="M7.99989 17.1094C6.99088 16.801 6.19074 15.9497 5.99681 14.8442C5.9494 14.5739 5.77993 14.3406 5.53754 14.212C4.16071 13.4815 3.61134 11.7907 4.29583 10.3904C4.41634 10.1439 4.41634 9.85559 4.29583 9.60907C3.61134 8.2088 4.16071 6.518 5.53754 5.78749C5.77993 5.65889 5.9494 5.42562 5.99681 5.15535C6.2661 3.62018 7.70439 2.5752 9.24764 2.79349C9.51933 2.83192 9.79355 2.74282 9.99077 2.55203C11.111 1.46833 12.8888 1.46833 14.009 2.55203C14.2062 2.74282 14.4804 2.83192 14.7521 2.79349C16.2954 2.5752 17.7337 3.62018 18.003 5.15535C18.0504 5.42562 18.2199 5.65889 18.4622 5.78749C19.8391 6.518 20.3884 8.2088 19.704 9.60907C19.5834 9.85559 19.5834 10.1439 19.704 10.3904C20.3884 11.7907 19.8391 13.4815 18.4622 14.212C18.2199 14.3406 18.0504 14.5739 18.003 14.8442C17.809 15.9497 17.0089 16.801 15.9999 17.1094V20.4021C15.9999 22.4902 13.3137 23.3399 12.1128 21.6316C12.0578 21.5534 11.942 21.5534 11.887 21.6316C10.6861 23.3399 7.99989 22.4902 7.99989 20.4021V17.1094ZM12.6184 16.01C12.2736 16.3437 11.7262 16.3437 11.3814 16.01C10.7408 15.3903 9.85005 15.1009 8.96754 15.2257C8.49243 15.2929 8.04964 14.9712 7.96674 14.4986C7.81274 13.6207 7.26225 12.863 6.47492 12.4453C6.05104 12.2204 5.88191 11.6999 6.09264 11.2688C6.48407 10.468 6.48407 9.53147 6.09264 8.73074C5.88191 8.29965 6.05104 7.77911 6.47492 7.55422C7.26225 7.13648 7.81274 6.37879 7.96674 5.50091C8.04964 5.02828 8.49243 4.70657 8.96755 4.77378C9.85005 4.8986 10.7408 4.60919 11.3814 3.98948C11.7262 3.65585 12.2736 3.65585 12.6184 3.98948C13.259 4.60919 14.1497 4.8986 15.0322 4.77378C15.5073 4.70657 15.9501 5.02828 16.033 5.50091C16.187 6.37879 16.7375 7.13648 17.5249 7.55422C17.9487 7.77911 18.1179 8.29965 17.9071 8.73074C17.5157 9.53148 17.5157 10.468 17.9071 11.2688C18.1179 11.6999 17.9487 12.2204 17.5249 12.4453C16.7375 12.863 16.187 13.6207 16.033 14.4986C15.9501 14.9712 15.5073 15.2929 15.0322 15.2257C14.1497 15.1009 13.259 15.3903 12.6184 16.01ZM9.99989 20.4021C9.99989 20.4559 10.0141 20.4762 10.0215 20.4857C10.0339 20.5015 10.0585 20.5217 10.0963 20.5336C10.134 20.5456 10.1658 20.5433 10.185 20.5374C10.1966 20.5339 10.2198 20.5255 10.2508 20.4814C11.1023 19.2701 12.8975 19.2701 13.749 20.4814C13.7799 20.5255 13.8032 20.5339 13.8148 20.5374C13.834 20.5433 13.8657 20.5456 13.9035 20.5336C13.9413 20.5217 13.9659 20.5015 13.9783 20.4857C13.9857 20.4762 13.9999 20.4559 13.9999 20.4021V17.6178L13.3415 17.947C12.497 18.3693 11.5028 18.3693 10.6583 17.947L9.99989 17.6178V20.4021Z" fill="black"/>
</svg>
