<svg width="24" height="24" viewBox="0 0 24 24" fill="none" xmlns="http://www.w3.org/2000/svg">
<path d="M13 2C13 1.44772 12.5523 1 12 1C11.4478 1 11 1.44772 11 2V3.5C11 4.05228 11.4478 4.5 12 4.5C12.5523 4.5 13 4.05228 13 3.5V2Z" fill="black"/>
<path d="M3.83989 6.13397C3.3616 5.85783 2.75001 6.02171 2.47386 6.5C2.19772 6.97829 2.3616 7.58988 2.83989 7.86603L4.13893 8.61603C4.61722 8.89217 5.22881 8.72829 5.50495 8.25C5.78109 7.77171 5.61722 7.16012 5.13893 6.88397L3.83989 6.13397Z" fill="black"/>
<path d="M18 12C18 15.3137 15.3138 18 12 18C8.68634 18 6.00005 15.3137 6.00005 12C6.00005 8.68629 8.68634 6 12 6C15.3138 6 18 8.68629 18 12Z" fill="black"/>
<path d="M18.4939 15.5C18.77 15.0217 19.3816 14.8578 19.8599 15.134L21.1589 15.884C21.6372 16.1601 21.8011 16.7717 21.525 17.25C21.2488 17.7283 20.6372 17.8922 20.1589 17.616L18.8599 16.866C18.3816 16.5899 18.2177 15.9783 18.4939 15.5Z" fill="black"/>
<path d="M18.8599 7.13397C18.3816 7.41012 18.2177 8.02171 18.4939 8.5C18.77 8.97829 19.3816 9.14217 19.8599 8.86603L21.1589 8.11603C21.6372 7.83988 21.8011 7.22829 21.525 6.75C21.2488 6.27171 20.6372 6.10783 20.1589 6.38397L18.8599 7.13397Z" fill="black"/>
<path d="M12 19C12.5523 19 13 19.4477 13 20V21.5C13 22.0523 12.5523 22.5 12 22.5C11.4478 22.5 11 22.0523 11 21.5V20C11 19.4477 11.4478 19 12 19Z" fill="black"/>
<path d="M2.47386 17.5C2.19772 17.0217 2.3616 16.4101 2.83989 16.134L4.13893 15.384C4.61722 15.1078 5.22881 15.2717 5.50495 15.75C5.78109 16.2283 5.61722 16.8399 5.13893 17.116L3.83989 17.866C3.3616 18.1422 2.75001 17.9783 2.47386 17.5Z" fill="black"/>
</svg>
