<svg width="24" height="24" viewBox="0 0 24 24" fill="none" xmlns="http://www.w3.org/2000/svg">
<path d="M3.84124 8.15638L13.6378 2.50035C14.1161 2.22421 14.7277 2.38809 15.0038 2.86638L20.5038 12.3927C21.3322 13.8275 20.8406 15.6623 19.4057 16.4907L13.7883 19.734C12.3534 20.5624 10.5186 20.0708 9.69018 18.6359L5.45566 11.3015C5.20379 10.8652 4.84611 10.4994 4.41563 10.2378L3.82189 9.87697C3.17256 9.48236 3.1832 8.5363 3.84124 8.15638Z" fill="black"/>
<path d="M3.02522 14.4234L2.25579 16.7317C2.09876 17.2028 2.22137 17.7222 2.57251 18.0733C3.08451 18.5853 3.91462 18.5853 4.42661 18.0733C4.77775 17.7222 4.90037 17.2028 4.74333 16.7317L3.9739 14.4234C3.82195 13.9675 3.17717 13.9675 3.02522 14.4234Z" fill="black"/>
</svg>
