<svg width="24" height="24" viewBox="0 0 24 24" fill="none" xmlns="http://www.w3.org/2000/svg">
<path fill-rule="evenodd" clip-rule="evenodd" d="M6.39622 11.1782C15.3705 1.57323 19.5114 2.45088 20.8593 3.02469C21.4331 4.37256 22.3107 8.51343 12.7057 17.4877C12.3794 12.9187 10.9652 11.5045 6.39622 11.1782ZM17.3294 8.67612C16.7437 9.26191 15.7939 9.26191 15.2081 8.67612C14.6223 8.09033 14.6223 7.14059 15.2081 6.5548C15.7939 5.96901 16.7437 5.96901 17.3294 6.5548C17.9152 7.14059 17.9152 8.09033 17.3294 8.67612Z" fill="black"/>
<path d="M9.19774 6.71802C8.26774 6.02373 5.31305 6.51028 2.48022 9.9C3.31617 10.7359 4.28679 10.5208 5.02145 10.358C5.26564 10.3039 5.48376 10.2556 5.6622 10.2536L9.19774 6.71802Z" fill="black"/>
<path d="M16.9761 14.6868C17.6704 15.6168 17.1838 18.5715 13.7941 21.4043C12.9581 20.5683 13.1732 19.5977 13.336 18.8631C13.3901 18.6189 13.4385 18.4007 13.4405 18.2223L16.9761 14.6868Z" fill="black"/>
<path d="M6.36918 17.5151C6.36918 17.5151 6.84059 15.158 7.42984 14.3331C7.42984 14.3331 8.69979 14.1888 9.19761 14.6866C9.69543 15.1845 9.55116 16.4544 9.55116 16.4544C8.37265 17.1615 6.36918 17.5151 6.36918 17.5151Z" fill="black"/>
</svg>
