<svg width="24" height="24" viewBox="0 0 24 24" fill="none" xmlns="http://www.w3.org/2000/svg">
<path d="M16 13.9998C16 14.5521 15.5523 14.9998 15 14.9998H14C13.4477 14.9998 13 14.5521 13 13.9998C13 13.4475 13.4477 12.9998 14 12.9998H15C15.5523 12.9998 16 13.4475 16 13.9998Z" fill="black"/>
<path d="M15 11.9998C15.5523 11.9998 16 11.5521 16 10.9998C16 10.4475 15.5523 9.99981 15 9.99981H14C13.4477 9.99981 13 10.4475 13 10.9998C13 11.5521 13.4477 11.9998 14 11.9998H15Z" fill="black"/>
<path d="M11 13.9998C11 14.5521 10.5523 14.9998 10 14.9998H9C8.44772 14.9998 8 14.5521 8 13.9998C8 13.4475 8.44772 12.9998 9 12.9998H10C10.5523 12.9998 11 13.4475 11 13.9998Z" fill="black"/>
<path d="M10 11.9998C10.5523 11.9998 11 11.5521 11 10.9998C11 10.4475 10.5523 9.99981 10 9.99981H9C8.44772 9.99981 8 10.4475 8 10.9998C8 11.5521 8.44772 11.9998 9 11.9998H10Z" fill="black"/>
<path fill-rule="evenodd" clip-rule="evenodd" d="M13.1094 4.53756C12.4376 4.08969 11.5624 4.08969 10.8906 4.53756L5.8906 7.87089C5.3342 8.24182 5 8.86629 5 9.53499V18.9998H4C3.44772 18.9998 3 19.4475 3 19.9998C3 20.5521 3.44772 20.9998 4 20.9998H20C20.5523 20.9998 21 20.5521 21 19.9998C21 19.4475 20.5523 18.9998 20 18.9998H19V9.53499C19 8.86629 18.6658 8.24183 18.1094 7.87089L13.1094 4.53756ZM13 18.9998V16.9998C13 16.4475 12.5523 15.9998 12 15.9998C11.4477 15.9998 11 16.4475 11 16.9998V18.9998H7V9.53499L12 6.20166L17 9.53499V18.9998H13Z" fill="black"/>
</svg>
