<svg width="24" height="24" viewBox="0 0 24 24" fill="none" xmlns="http://www.w3.org/2000/svg">
<path fill-rule="evenodd" clip-rule="evenodd" d="M18.0623 2.81453C16.5282 2.00398 15 3.26047 15 4.74346C15 4.80768 14.9759 4.87576 14.9124 4.94129C14.8454 5.01028 14.745 5.06329 14.6302 5.07631C10.5056 5.54431 7.70357 8.08729 5.90487 10.9727C4.11507 13.8438 3.25604 17.1407 3.00616 19.3896C2.95577 19.8431 3.2187 20.2731 3.64528 20.435C4.07185 20.5969 4.5539 20.4495 4.81701 20.0767C5.69955 18.8265 7.25333 17.0181 9.11432 15.5265C10.9961 14.0182 13.0497 12.9482 14.9574 12.9215L14.9591 12.9233C14.9757 12.9418 15 12.9865 15 13.0514C15 14.647 16.711 15.852 18.2316 14.9397C19.4939 14.1822 20.9116 13.1527 21.8999 11.9716C22.8685 10.8139 23.6235 9.24963 22.9192 7.60612C21.9204 5.27572 19.7224 3.69159 18.0623 2.81453ZM17 4.74346C17 4.64754 17.0435 4.59765 17.0706 4.57948C17.0837 4.57066 17.0915 4.57016 17.0915 4.57016C17.0915 4.57016 17.0939 4.57 17.098 4.57088C17.102 4.57175 17.112 4.57441 17.128 4.58289C18.6401 5.3818 20.3507 6.69015 21.0809 8.39396C21.3342 8.98502 21.168 9.7296 20.366 10.6882C19.5835 11.6234 18.3808 12.5177 17.2026 13.2247C17.1679 13.2455 17.1481 13.2462 17.1396 13.246C17.1276 13.2458 17.1094 13.2422 17.0876 13.2289C17.0444 13.2025 17 13.1467 17 13.0514C17 12.0071 16.2167 10.9056 14.9405 10.9215C12.3617 10.9537 9.86947 12.3581 7.86349 13.9659C7.14994 14.5378 6.4798 15.15 5.86847 15.7635C6.28592 14.521 6.85516 13.2289 7.60211 12.0307C9.19243 9.47957 11.5247 7.44152 14.8557 7.06355C15.9756 6.93648 17 6.01827 17 4.74346Z" fill="black"/>
</svg>
