<svg width="24" height="24" viewBox="0 0 24 24" fill="none" xmlns="http://www.w3.org/2000/svg">
<path d="M12.7076 4.22179C14.6602 2.26917 17.826 2.26917 19.7786 4.22179C21.7312 6.17441 21.7312 9.34024 19.7786 11.2929L16.9502 14.1213C16.5597 14.5118 15.9265 14.5118 15.536 14.1213C15.1455 13.7308 15.1455 13.0976 15.536 12.7071L18.3644 9.87864C19.536 8.70707 19.536 6.80758 18.3644 5.636C17.1928 4.46443 15.2933 4.46443 14.1218 5.636L11.2933 8.46443C10.9028 8.85496 10.2697 8.85496 9.87913 8.46443C9.48861 8.07391 9.48861 7.44074 9.87913 7.05022L12.7076 4.22179Z" fill="black"/>
<path d="M8.46492 9.87864C8.85544 10.2692 8.85544 10.9023 8.46492 11.2929L5.63649 14.1213C4.46492 15.2929 4.46492 17.1924 5.63649 18.3639C6.80806 19.5355 8.70756 19.5355 9.87913 18.3639L12.7076 15.5355C13.0981 15.145 13.7312 15.145 14.1218 15.5355C14.5123 15.926 14.5123 16.5592 14.1218 16.9497L11.2933 19.7781C9.34072 21.7308 6.1749 21.7308 4.22228 19.7781C2.26966 17.8255 2.26966 14.6597 4.22228 12.7071L7.05071 9.87864C7.44123 9.48812 8.07439 9.48812 8.46492 9.87864Z" fill="black"/>
<path d="M19.3644 15.5354C19.3644 16.0876 18.9167 16.5354 18.3644 16.5354H16.9502C16.6763 16.5354 16.4281 16.4252 16.2475 16.2469C16.4259 16.4275 16.536 16.6756 16.536 16.9495V18.3637C16.536 18.916 16.0883 19.3637 15.536 19.3637C14.9837 19.3637 14.536 18.916 14.536 18.3637V16.9495C14.536 16.3972 14.9837 15.9495 15.536 15.9495C15.8099 15.9495 16.0581 16.0596 16.2387 16.238C16.0603 16.0574 15.9502 15.8092 15.9502 15.5354C15.9502 14.9831 16.3979 14.5354 16.9502 14.5354H18.3644C18.9167 14.5354 19.3644 14.9831 19.3644 15.5354Z" fill="black"/>
<path d="M8.46494 4.63604C7.91266 4.63604 7.46494 5.08375 7.46494 5.63604V7.05025C7.46494 7.32415 7.57506 7.57234 7.75345 7.75294C7.57284 7.57454 7.32464 7.46441 7.05072 7.46441H5.63651C5.08423 7.46441 4.63651 7.91212 4.63651 8.46441C4.63651 9.01669 5.08423 9.46441 5.63651 9.46441H7.05072C7.60301 9.46441 8.05072 9.01669 8.05072 8.46441C8.05072 8.19051 7.9406 7.94232 7.76222 7.76172C7.94283 7.94012 8.19102 8.05025 8.46494 8.05025C9.01723 8.05025 9.46494 7.60254 9.46494 7.05025V5.63604C9.46494 5.08375 9.01723 4.63604 8.46494 4.63604Z" fill="black"/>
</svg>
