<svg width="24" height="24" viewBox="0 0 24 24" fill="none" xmlns="http://www.w3.org/2000/svg">
<path fill-rule="evenodd" clip-rule="evenodd" d="M10.9919 9.41992C11.6252 9.10327 12.3712 9.10341 13.0046 9.41992L21.0827 13.459C21.9027 13.869 22.3467 14.6953 22.198 15.5068C22.0613 16.2522 21.8567 17.1091 21.5583 17.9062C21.2565 18.7124 20.8783 19.4034 20.4216 19.8652C19.9008 20.3917 19.3897 20.631 18.8708 20.7217C18.3311 20.8158 17.7328 20.7586 17.029 20.6084C16.2852 20.4496 15.6112 20.2355 14.7253 20.0195C13.8901 19.816 12.9749 19.6426 11.9987 19.6426C11.0225 19.6426 10.1074 19.816 9.27217 20.0195C8.38609 20.2355 7.71148 20.4496 6.96748 20.6084C6.264 20.7585 5.6662 20.8158 5.12666 20.7217C4.60779 20.631 4.09658 20.3917 3.57588 19.8652C3.11915 19.4034 2.74001 18.7125 2.43818 17.9062C2.13981 17.1091 1.93618 16.2522 1.79951 15.5068C1.65079 14.6954 2.09496 13.869 2.91475 13.459L5.05732 12.3877L10.9919 9.41992ZM16.2751 6.58887C17.5177 6.58887 18.525 7.5963 18.5251 8.83887V10.5029L13.6755 8.07812C12.62 7.55052 11.3775 7.55049 10.322 8.07812L5.47139 10.5029V8.83887C5.47147 7.59654 6.47914 6.58926 7.72139 6.58887H16.2751ZM13.238 3.23047C13.3759 3.23066 13.488 3.34251 13.488 3.48047V5.08887H10.5095V3.48047C10.5095 3.34256 10.6216 3.23073 10.7595 3.23047H13.238Z" fill="black"/>
</svg>
