<svg width="24" height="24" viewBox="0 0 24 24" fill="none" xmlns="http://www.w3.org/2000/svg">
<path d="M11.6606 1C12.2129 1 12.6606 1.44772 12.6606 2V4.13148L14.1059 3.16795C14.5655 2.8616 15.1863 2.98577 15.4927 3.4453C15.799 3.90483 15.6749 4.5257 15.2153 4.83205L12.6606 6.53518V10.1546L16.3798 8.00739L16.5011 5.01062C16.5234 4.45879 16.9889 4.02955 17.5407 4.05189C18.0926 4.07423 18.5218 4.53969 18.4995 5.09152L18.4293 6.82409L20.3208 5.73205C20.7991 5.45591 21.4107 5.61978 21.6868 6.09808C21.963 6.57637 21.7991 7.18796 21.3208 7.4641L19.4749 8.52984L21.032 9.29974C21.527 9.54453 21.7299 10.1443 21.4852 10.6394C21.2404 11.1345 20.6406 11.3373 20.1455 11.0926L17.3932 9.73169L13.5624 11.9434L16.8798 13.8587L19.5357 12.4654C20.0248 12.2088 20.6293 12.3973 20.8858 12.8863C21.1424 13.3754 20.9539 13.9799 20.4648 14.2364L18.9293 15.042L20.8208 16.134C21.2991 16.4102 21.463 17.0218 21.1868 17.5001C20.9107 17.9783 20.2991 18.1422 19.8208 17.8661L17.9749 16.8003L18.0867 18.5338C18.1222 19.0849 17.7042 19.5605 17.1531 19.5961C16.602 19.6316 16.1264 19.2136 16.0908 18.6625L15.8932 15.5985L12.6606 13.7322V17.4648L15.2153 19.1679C15.6749 19.4743 15.799 20.0952 15.4927 20.5547C15.1863 21.0142 14.5655 21.1384 14.1059 20.8321L12.6606 19.8685V22C12.6606 22.5523 12.2129 23 11.6606 23C11.1084 23 10.6606 22.5523 10.6606 22V19.8685L9.21534 20.8321C8.75581 21.1384 8.13494 21.0142 7.82859 20.5547C7.52224 20.0952 7.64641 19.4743 8.10594 19.1679L10.6606 17.4648V13.6187L7.92787 15.1965L7.73027 18.2605C7.69472 18.8117 7.21912 19.2296 6.66798 19.1941C6.11684 19.1585 5.69887 18.6829 5.73441 18.1318L5.84621 16.3984L4.00029 17.4641C3.522 17.7402 2.9104 17.5764 2.63426 17.0981C2.35812 16.6198 2.522 16.0082 3.00029 15.732L4.84621 14.6663L3.28911 13.8964C2.79404 13.6516 2.59114 13.0518 2.83593 12.5568C3.08072 12.0617 3.68049 11.8588 4.17557 12.1036L6.92787 13.4645L9.56242 11.9434L6.42787 10.1337L3.67557 11.4945C3.18049 11.7393 2.58072 11.5364 2.33593 11.0414C2.09114 10.5463 2.29404 9.94651 2.78911 9.70172L4.34621 8.93182L2.50029 7.86608C2.022 7.58994 1.85812 6.97834 2.13426 6.50005C2.41041 6.02176 3.022 5.85788 3.50029 6.13403L5.34621 7.19977L5.23441 5.46634C5.19887 4.9152 5.61684 4.43959 6.16798 4.40405C6.71912 4.36851 7.19472 4.78648 7.23027 5.33762L7.42787 8.40162L10.6606 10.2681V6.55068L8.12602 4.94723C7.65929 4.65197 7.52029 4.03425 7.81555 3.56752C8.11081 3.10079 8.72853 2.96179 9.19526 3.25705L10.6606 4.18408V2C10.6606 1.44772 11.1084 1 11.6606 1Z" fill="black"/>
</svg>
