<svg width="24" height="24" viewBox="0 0 24 24" fill="none" xmlns="http://www.w3.org/2000/svg">
<path d="M4.46185 18.1251L4.65884 19.166C4.71086 19.4409 4.84209 19.6907 5.03674 19.8854C5.59483 20.4435 6.52432 20.4188 7.11283 19.8303L14.6281 12.315C15.1227 11.8205 15.8118 11.5802 16.4819 11.6686C18.436 11.9263 20.3066 10.5166 20.6314 8.5415L20.7033 8.10366C21.1135 5.60893 19.1169 3.50202 16.6112 3.78538L16.1366 3.83906C14.0402 4.07613 12.5292 6.089 12.9154 8.12994C13.0461 8.82057 12.8136 9.54904 12.298 10.0647L10.9507 11.412C10.6206 11.742 10.2206 11.9924 9.78378 12.1423L8.54945 12.566C7.86558 12.8007 7.3201 13.3462 7.08538 14.0301C6.88747 14.6067 6.46659 15.0898 5.92024 15.3675L5.83584 15.4104C4.82424 15.9247 4.25737 17.0447 4.46185 18.1251Z" stroke="black" stroke-width="2" stroke-linecap="round"/>
<circle cx="1" cy="1" r="1" transform="matrix(0.707107 0.707107 0.707107 -0.707107 15.4355 7.65723)" fill="black"/>
</svg>
