<svg width="24" height="24" viewBox="0 0 24 24" fill="none" xmlns="http://www.w3.org/2000/svg">
<path d="M12.5079 2.30069C12.1941 2.11526 11.8042 2.11526 11.4904 2.30069L2.45611 7.63916C1.80109 8.02622 1.80109 8.97395 2.45612 9.36101L11.4904 14.6995C11.8042 14.8849 12.1941 14.8849 12.5079 14.6995L15.4992 12.9319V11.9999L11.8992 9.29992C11.4574 8.96855 11.3679 8.34175 11.6992 7.89992C12.0306 7.45809 12.6574 7.36855 13.0992 7.69992L17.0992 10.6999C17.351 10.8888 17.4992 11.1852 17.4992 11.4999V11.75L21.5422 9.36101C22.1972 8.97395 22.1972 8.02622 21.5422 7.63916L12.5079 2.30069Z" fill="black"/>
<path d="M12.2564 16.6633L15.4991 14.7177V15.8C15.4991 16.3523 15.9469 16.8 16.4991 16.8C17.0514 16.8 17.4991 16.3523 17.4991 15.8V13.5177L18.2419 13.072C18.5752 12.8721 18.9991 13.1121 18.9991 13.5008V19.5835C18.9991 19.7319 18.9348 19.8712 18.816 19.9601C18.1082 20.4901 15.4192 22.3177 11.9991 22.3177C8.57911 22.3177 5.89012 20.4901 5.18225 19.9601C5.06347 19.8712 4.99915 19.7319 4.99915 19.5835V13.5008C4.99915 13.1121 5.42313 12.8721 5.75639 13.072L11.7419 16.6633C11.9002 16.7583 12.0981 16.7583 12.2564 16.6633Z" fill="black"/>
</svg>
