<svg width="24" height="24" viewBox="0 0 24 24" fill="none" xmlns="http://www.w3.org/2000/svg">
<path fill-rule="evenodd" clip-rule="evenodd" d="M10.3481 4.43829C11.1765 3.00351 13.011 2.51147 14.4458 3.33966L17.9106 5.33966C19.3453 6.16816 19.8367 8.0035 19.0083 9.43829L16.9624 12.9813C16.6663 13.4942 16.5288 14.0836 16.5669 14.6746L16.6763 16.368C16.7534 17.5635 15.4667 18.3625 14.4292 17.7635L10.7935 15.6639V15.6649L7.04345 22.16C6.76731 22.6383 6.15553 22.8023 5.67724 22.5262C5.19922 22.2499 5.03593 21.6381 5.31201 21.16L9.06201 14.6649V14.6639L5.42724 12.5662C4.38986 11.9672 4.43842 10.4537 5.5122 9.92267L7.03369 9.17071C7.56461 8.9082 8.0061 8.49418 8.30224 7.98126L10.3481 4.43829Z" fill="black"/>
</svg>
