<svg width="24" height="24" viewBox="0 0 24 24" fill="none" xmlns="http://www.w3.org/2000/svg">
<path fill-rule="evenodd" clip-rule="evenodd" d="M21.9959 2.90947C21.9478 2.38119 21.4957 1.98232 20.9655 2.0006C14.7819 2.21383 10.4801 5.47336 7.65269 9.37579C4.84286 13.254 3.44472 17.8158 3.01003 20.8586C2.93613 21.3759 3.27296 21.8628 3.78305 21.9762C4.29314 22.0896 4.80451 21.7911 4.95665 21.2912C5.04091 21.0143 5.12651 20.7253 5.2146 20.4279C5.76366 18.574 6.40942 16.3936 7.4294 14.8021C8.01018 13.8959 8.64047 13.3028 9.32713 13.0432C9.9765 12.7976 10.841 12.7886 12.0528 13.3944C13.2703 14.0032 14.7745 13.5774 15.6 12.5226C16.2239 11.7253 16.4132 10.6795 16.088 9.53411C17.2777 9.5075 18.5451 9.33348 19.6058 8.75182C20.4336 8.2979 21.1265 7.60354 21.5591 6.59852C21.9833 5.6131 22.1307 4.39213 21.9959 2.90947ZM12.9472 11.6056C11.4744 10.8692 10.1186 10.7076 8.90302 11.076C9.02308 10.899 9.14615 10.7233 9.27227 10.5492C11.6771 7.23002 15.1526 4.54006 20.0431 4.06436C20.0298 4.82008 19.904 5.38506 19.7221 5.80775C19.4776 6.37565 19.1081 6.74379 18.6441 6.9982C17.6349 7.55167 16.1643 7.58622 14.5525 7.50139C14.1748 7.48151 13.8182 7.67645 13.631 8.00514C13.4438 8.33382 13.4581 8.73999 13.6679 9.05471C14.5043 10.3093 14.246 11.0075 14.025 11.29C13.7255 11.6726 13.2297 11.7468 12.9472 11.6056Z" fill="black"/>
</svg>
