<svg width="24" height="24" viewBox="0 0 24 24" fill="none" xmlns="http://www.w3.org/2000/svg">
<path fill-rule="evenodd" clip-rule="evenodd" d="M7.50988 2.49668C6.75091 1.86879 5.78625 1.88504 5.08339 2.27367C4.37649 2.66453 3.84236 3.49058 4.04107 4.48623L7.20016 20.3148C7.57755 22.2056 10.0765 22.5822 11.087 21.0391L13.7739 16.9361C13.7886 16.9137 13.8275 16.8827 13.8894 16.8806L18.9431 16.7036C20.8004 16.6386 21.7982 14.3171 20.2437 13.0311L7.50988 2.49668ZM6.00176 4.09146C6.00044 4.08405 6.00008 4.07895 5.99999 4.07595C5.99989 4.07253 6.00011 4.07081 6.00017 4.0704C6.00018 4.07023 6.00021 4.06978 6.00107 4.06811C6.00378 4.06284 6.01709 4.04277 6.05115 4.02393C6.08502 4.00521 6.12101 3.9982 6.14962 4.00001C6.17181 4.00141 6.19909 4.00797 6.23503 4.0377L18.9688 14.5721C18.9872 14.5873 18.9944 14.5978 18.9966 14.6012C18.9989 14.6048 18.9993 14.6064 18.9994 14.607C18.9997 14.6084 19.0017 14.6186 18.9952 14.6362C18.9888 14.6539 18.9771 14.6694 18.9628 14.6801C18.9525 14.6878 18.9281 14.7029 18.8731 14.7048L13.8194 14.8818C13.1321 14.9059 12.4843 15.2547 12.1007 15.8404L9.41384 19.9434C9.39551 19.9714 9.37851 19.9822 9.36062 19.9892C9.33713 19.9983 9.30132 20.0036 9.26022 19.9963C9.21902 19.9888 9.19243 19.9724 9.18034 19.9614C9.17332 19.955 9.16636 19.9478 9.16148 19.9233L6.00239 4.09478C6.00216 4.09363 6.00195 4.09252 6.00176 4.09146Z" fill="black"/>
</svg>
