<svg width="24" height="24" viewBox="0 0 24 24" fill="none" xmlns="http://www.w3.org/2000/svg">
<path d="M10.7665 10.7723C11.2547 10.2842 11.2547 9.49273 10.7665 9.00457C10.2784 8.51642 9.4869 8.51642 8.99874 9.00457C8.51059 9.49273 8.51059 10.2842 8.99874 10.7723C9.4869 11.2605 10.2784 11.2605 10.7665 10.7723Z" fill="black"/>
<path d="M15.0092 13.2473C15.4973 13.7354 15.4973 14.5269 15.0092 15.015C14.521 15.5032 13.7296 15.5032 13.2414 15.015C12.7533 14.5269 12.7533 13.7354 13.2414 13.2473C13.7296 12.7591 14.521 12.7591 15.0092 13.2473Z" fill="black"/>
<path d="M9.17191 13.414C8.78139 13.8045 8.78139 14.4377 9.17191 14.8282C9.56244 15.2188 10.1956 15.2188 10.5861 14.8282L14.8288 10.5856C15.2193 10.1951 15.2193 9.5619 14.8288 9.17138C14.4382 8.78085 13.8051 8.78085 13.4146 9.17138L9.17191 13.414Z" fill="black"/>
<path fill-rule="evenodd" clip-rule="evenodd" d="M14.5022 2.02869C13.1072 0.67924 10.8935 0.67924 9.49855 2.02869C9.14425 2.37144 8.6516 2.53151 8.1635 2.46247C6.2418 2.19066 4.45081 3.49189 4.11549 5.40352C4.03031 5.88907 3.72584 6.30814 3.29038 6.53918C1.57593 7.44883 0.891831 9.55426 1.74418 11.2979C1.96067 11.7408 1.96067 12.2588 1.74418 12.7017C0.891831 14.4453 1.57593 16.5507 3.29038 17.4604C3.72584 17.6914 4.03031 18.1105 4.11549 18.596C4.45081 20.5077 6.2418 21.8089 8.1635 21.5371C8.6516 21.4681 9.14425 21.6281 9.49855 21.9709C10.8935 23.3203 13.1072 23.3203 14.5022 21.9709C14.8565 21.6281 15.3491 21.4681 15.8372 21.5371C17.7589 21.8089 19.5499 20.5077 19.8852 18.596C19.9704 18.1105 20.2749 17.6914 20.7103 17.4604C22.4248 16.5507 23.1089 14.4453 22.2565 12.7017C22.04 12.2588 22.04 11.7408 22.2565 11.2979C23.1089 9.55426 22.4248 7.44883 20.7103 6.53918C20.2749 6.30814 19.9704 5.88907 19.8852 5.40352C19.5499 3.49189 17.7589 2.19066 15.8372 2.46247C15.3491 2.53151 14.8565 2.37144 14.5022 2.02869ZM10.8891 3.46614C11.5087 2.86676 12.492 2.86676 13.1116 3.46614C13.9093 4.23781 15.0184 4.59819 16.1173 4.44276C16.9709 4.32203 17.7664 4.89999 17.9153 5.74908C18.1071 6.84224 18.7926 7.78573 19.773 8.30591C20.5345 8.70994 20.8383 9.64511 20.4597 10.4196C19.9723 11.4167 19.9723 12.5829 20.4597 13.58C20.8383 14.3545 20.5345 15.2896 19.773 15.6937C18.7926 16.2138 18.1071 17.1573 17.9153 18.2505C17.7664 19.0996 16.9709 19.6775 16.1173 19.5568C15.0184 19.4014 13.9093 19.7618 13.1116 20.5334C12.492 21.1328 11.5087 21.1328 10.8891 20.5334C10.0915 19.7618 8.98231 19.4014 7.8834 19.5568C7.02985 19.6775 6.23435 19.0996 6.08541 18.2505C5.89365 17.1573 5.20816 16.2138 4.22776 15.6937C3.46626 15.2896 3.1624 14.3545 3.54099 13.58C4.0284 12.5829 4.0284 11.4167 3.54099 10.4196C3.1624 9.64511 3.46626 8.70994 4.22776 8.30591C5.20816 7.78573 5.89365 6.84224 6.08541 5.74908C6.23435 4.89999 7.02985 4.32203 7.8834 4.44276C8.98231 4.59819 10.0915 4.23781 10.8891 3.46614Z" fill="black"/>
</svg>
