<svg width="24" height="24" viewBox="0 0 24 24" fill="none" xmlns="http://www.w3.org/2000/svg">
<path fill-rule="evenodd" clip-rule="evenodd" d="M7.55878 1C7.23734 1 6.93549 1.15452 6.74754 1.41529C6.55959 1.67606 6.50845 2.01128 6.6101 2.31623L7.3022 4.39253C7.47214 4.90236 7.55878 5.43626 7.55878 5.97367V9.08871C7.55878 9.63301 7.42023 10.1684 7.15618 10.6443L2.7733 18.5446C1.664 20.5442 3.10999 23 5.39664 23H18.6032C20.8899 23 22.3359 20.5442 21.2266 18.5447L17.0866 11.082C16.6655 10.323 16.4493 9.46752 16.4591 8.59963L16.4898 5.89554C16.4954 5.40697 16.5725 4.92185 16.7188 4.45565L17.3953 2.29934C17.4906 1.99562 17.4356 1.66468 17.2472 1.40811C17.0587 1.15154 16.7594 1 16.4411 1H7.55878ZM9.19956 3.76007L8.94621 3H15.0794L14.8105 3.85697C14.6057 4.50965 14.4977 5.18882 14.49 5.87282L14.4593 8.57691C14.4454 9.79196 14.7482 10.9897 15.3377 12.0523L19.4777 19.5149C19.8475 20.1814 19.3655 21 18.6032 21H5.39664C4.63442 21 4.15243 20.1814 4.5222 19.5149L8.90507 11.6146C9.17035 11.1364 9.35761 10.6213 9.46185 10.0887H11C11.5522 10.0887 12 9.64099 12 9.08871C12 8.53642 11.5522 8.08871 11 8.08871H9.55878V7H11C11.5522 7 12 6.55228 12 6C12 5.44772 11.5522 5 11 5H9.49073C9.43165 4.57937 9.33431 4.16432 9.19956 3.76007Z" fill="black"/>
</svg>
