<svg width="24" height="24" viewBox="0 0 24 24" fill="none" xmlns="http://www.w3.org/2000/svg">
<path fill-rule="evenodd" clip-rule="evenodd" d="M5.89496 2C4.87586 2 4.01973 2.76627 3.90719 3.77914L3.12941 10.7791C2.99778 11.9639 3.92516 13 5.11718 13H10.9999V20H7.99992C7.44763 20 6.99992 20.4477 6.99992 21C6.99992 21.5523 7.44763 22 7.99992 22H15.9999C16.5522 22 16.9999 21.5523 16.9999 21C16.9999 20.4477 16.5522 20 15.9999 20H12.9999V13H18.8827C20.0747 13 21.0021 11.9639 20.8704 10.7791L20.0926 3.77914C19.9801 2.76627 19.124 2 18.1049 2H5.89496ZM5.11718 11L5.89496 4H18.1049L18.8827 11H5.11718Z" fill="black"/>
</svg>
