<svg width="24" height="24" viewBox="0 0 24 24" fill="none" xmlns="http://www.w3.org/2000/svg">
<path fill-rule="evenodd" clip-rule="evenodd" d="M10.4599 3.15646C9.69976 2.27934 8.35506 2.23138 7.53434 3.0521L6.95215 3.63429C6.2102 4.37624 6.16778 5.56544 6.85498 6.35836L18.5418 19.8431C19.302 20.7202 20.6467 20.7682 21.4674 19.9475L22.0496 19.3653C22.7915 18.6234 22.8339 17.4342 22.1467 16.6412L10.4599 3.15646ZM8.36636 5.0485L8.94855 4.46632L9.13535 4.68186L8.55316 5.26404L8.36636 5.0485ZM9.86636 6.77927L10.4485 6.19709L20.6354 17.9511L20.0532 18.5333L9.86636 6.77927Z" fill="black"/>
<path d="M3.61272 8.64954C3.45236 8.16846 3.07485 7.79095 2.59377 7.63059C2.10416 7.46739 2.10416 6.77485 2.59377 6.61164C3.07485 6.45128 3.45236 6.07378 3.61272 5.5927C3.77592 5.10309 4.46846 5.10309 4.63166 5.5927C4.79203 6.07378 5.16953 6.45128 5.65061 6.61164C6.14022 6.77485 6.14022 7.46739 5.65061 7.63059C5.16953 7.79095 4.79203 8.16846 4.63166 8.64954C4.46846 9.13915 3.77592 9.13915 3.61272 8.64954Z" fill="black"/>
<path d="M7.61272 15.6495C7.45236 15.1685 7.07485 14.791 6.59377 14.6306C6.10416 14.4674 6.10416 13.7748 6.59377 13.6116C7.07485 13.4513 7.45236 13.0738 7.61272 12.5927C7.77592 12.1031 8.46846 12.1031 8.63166 12.5927C8.79203 13.0738 9.16953 13.4513 9.65061 13.6116C10.1402 13.7748 10.1402 14.4674 9.65061 14.6306C9.16953 14.791 8.79203 15.1685 8.63166 15.6495C8.46846 16.1391 7.77592 16.1391 7.61272 15.6495Z" fill="black"/>
</svg>
