<svg width="24" height="24" viewBox="0 0 24 24" fill="none" xmlns="http://www.w3.org/2000/svg">
<path d="M7.81369 3.91884C7.49268 3.46943 6.86813 3.36534 6.41872 3.68634C5.9693 4.00735 5.86521 4.6319 6.18622 5.08132L11 11.8205V12.0001H7.99996C7.44767 12.0001 6.99996 12.4478 6.99996 13.0001C6.99996 13.5524 7.44767 14.0001 7.99996 14.0001H11V14.5001H7.99996C7.44767 14.5001 6.99996 14.9478 6.99996 15.5001C6.99996 16.0524 7.44767 16.5001 7.99996 16.5001H11V20.5001C11 21.0524 11.4477 21.5001 12 21.5001C12.5522 21.5001 13 21.0524 13 20.5001V16.5001H16C16.5522 16.5001 17 16.0524 17 15.5001C17 14.9478 16.5522 14.5001 16 14.5001H13V14.0001H16C16.5522 14.0001 17 13.5524 17 13.0001C17 12.4478 16.5522 12.0001 16 12.0001H13V11.8205L17.8137 5.08132C18.1347 4.6319 18.0306 4.00735 17.5812 3.68634C17.1318 3.36534 16.5072 3.46943 16.1862 3.91884L12 9.77961L7.81369 3.91884Z" fill="black"/>
</svg>
