<svg width="24" height="24" viewBox="0 0 24 24" fill="none" xmlns="http://www.w3.org/2000/svg">
<path fill-rule="evenodd" clip-rule="evenodd" d="M3.34127 7.28955C2.02519 8.04939 2.00391 9.94149 3.30257 10.7307L3.89631 11.0916C4.1833 11.266 4.42175 11.5098 4.58967 11.8007L8.82419 19.1351C9.92876 21.0483 12.3751 21.7038 14.2883 20.5992L19.9058 17.3559C21.8189 16.2514 22.4744 13.805 21.3699 11.8918L15.8699 2.36557C15.3176 1.40898 14.0944 1.08123 13.1378 1.63352L3.34127 7.28955ZM4.34126 9.0216L14.1378 3.36557L19.6378 12.8918C20.1901 13.8484 19.8623 15.0716 18.9058 15.6239L13.2883 18.8671C12.3317 19.4194 11.1085 19.0917 10.5562 18.1351L6.32172 10.8007C5.98588 10.219 5.50898 9.73126 4.935 9.38243L4.34126 9.0216Z" fill="black"/>
<path fill-rule="evenodd" clip-rule="evenodd" d="M5.69204 16.4146C5.96885 17.2451 5.75272 18.1606 5.13375 18.7796C4.23123 19.6821 2.76795 19.6821 1.86543 18.7796C1.24646 18.1606 1.03032 17.2451 1.30713 16.4146L2.07656 14.1063C2.53241 12.7388 4.46676 12.7388 4.92261 14.1063L5.69204 16.4146ZM3.2045 17.0471L3.49959 16.1618L3.79467 17.0471C3.83193 17.1588 3.80284 17.2821 3.71953 17.3654C3.59806 17.4869 3.40112 17.4869 3.27964 17.3654C3.19633 17.2821 3.16724 17.1588 3.2045 17.0471Z" fill="black"/>
</svg>
