<svg width="24" height="24" viewBox="0 0 24 24" fill="none" xmlns="http://www.w3.org/2000/svg">
<path fill-rule="evenodd" clip-rule="evenodd" d="M12 3C6.47718 3 2.00002 7.47715 2.00002 13V15.9841C1.99983 15.9956 1.99983 16.007 2.00002 16.0183V18.4118C2.00002 19.8412 3.15882 21 4.58826 21C6.0177 21 7.1765 19.8412 7.1765 18.4118V16.2507C7.1765 14.3089 5.46165 13.4095 4.00002 13.7078V13C4.00002 8.58172 7.58175 5 12 5C16.4183 5 20 8.58172 20 13V13.6972C18.5388 13.3985 16.8236 14.2952 16.8236 16.2389V18.4118C16.8236 18.8882 16.9523 19.3346 17.1769 19.718C16.2918 20.1581 15.0839 20.5 13.5 20.5C12.9477 20.5 12.5 20.9478 12.5 21.5C12.5 22.0523 12.9477 22.5 13.5 22.5C15.9439 22.5 17.7555 21.8106 18.9965 20.9669C19.1317 20.9887 19.2704 21 19.4118 21C20.8412 21 22 19.8412 22 18.4118V16.0178C22.0002 16.0068 22.0002 15.9958 22 15.9847V13C22 7.47715 17.5229 3 12 3ZM19.252 18.978C19.3028 18.9923 19.3564 19 19.4118 19C19.7367 19 20 18.7366 20 18.4118V16.0882C19.9589 15.8995 19.8739 15.8038 19.7963 15.7481C19.6952 15.6756 19.5459 15.6306 19.376 15.6433C19.2061 15.6561 19.0652 15.723 18.9761 15.8098C18.9006 15.8833 18.8236 16.0063 18.8236 16.2389V18.4118C18.8236 18.631 18.9435 18.8222 19.1214 18.9234C19.1659 18.9384 19.2096 18.9567 19.252 18.978ZM4.00002 18.4118V16.0927C4.0426 15.907 4.12748 15.8125 4.20525 15.7573C4.3068 15.6853 4.45605 15.641 4.62543 15.6544C4.79481 15.6678 4.93526 15.7349 5.02425 15.822C5.09985 15.8959 5.1765 16.0191 5.1765 16.2507V18.4118C5.1765 18.7366 4.91313 19 4.58826 19C4.26339 19 4.00002 18.7366 4.00002 18.4118Z" fill="black"/>
</svg>
