<svg width="24" height="24" viewBox="0 0 24 24" fill="none" xmlns="http://www.w3.org/2000/svg">
<path d="M16.5 11.0005C17.3284 11.0005 18 10.3289 18 9.50047C18 8.67204 17.3284 8.00047 16.5 8.00047C15.6715 8.00047 15 8.67204 15 9.50047C15 10.3289 15.6715 11.0005 16.5 11.0005Z" fill="black"/>
<path d="M11 8.50047C11 9.3289 10.3284 10.0005 9.49995 10.0005C8.67152 10.0005 7.99995 9.3289 7.99995 8.50047C7.99995 7.67204 8.67152 7.00047 9.49995 7.00047C10.3284 7.00047 11 7.67204 11 8.50047Z" fill="black"/>
<path d="M7.49995 16.0005C8.32838 16.0005 8.99995 15.3289 8.99995 14.5005C8.99995 13.672 8.32838 13.0005 7.49995 13.0005C6.67152 13.0005 5.99995 13.672 5.99995 14.5005C5.99995 15.3289 6.67152 16.0005 7.49995 16.0005Z" fill="black"/>
<path fill-rule="evenodd" clip-rule="evenodd" d="M19.4993 18.5005C21.2895 18.5005 22.3753 17.0097 22.8663 15.468C23.3764 13.8665 23.4141 11.8144 22.9063 9.81661C22.3959 7.80877 21.3148 5.7803 19.5037 4.2842C17.6783 2.77632 15.1803 1.86709 11.9577 2.00136C8.50845 2.14508 5.91638 3.18051 4.11876 4.79983C2.32179 6.41855 1.40144 8.54683 1.16465 10.7215C0.701114 14.9788 2.85353 19.679 6.56634 21.402C7.25516 21.744 8.17896 22.0254 9.10556 22.2026C10.0381 22.3808 11.0602 22.47 11.936 22.3722C12.3729 22.3234 12.8257 22.2226 13.2248 22.0253C13.6306 21.8245 14.0382 21.4926 14.2476 20.9687C14.4574 20.444 14.4017 19.8939 14.2169 19.3917C14.0351 18.8977 13.7083 18.3882 13.2683 17.8603C12.8235 17.3265 12.8456 17.0806 12.8507 17.0477C12.8559 17.0133 12.8919 16.8874 13.1771 16.7013C13.2156 16.6762 13.2929 16.6398 13.4966 16.6698C13.7181 16.7023 14.0048 16.8027 14.3721 16.9766C14.6421 17.1044 14.9072 17.2474 15.1933 17.4017C15.2987 17.4586 15.407 17.517 15.5194 17.5767C15.9077 17.7831 16.3526 18.0092 16.788 18.1485C17.494 18.3744 18.3828 18.5005 19.4993 18.5005ZM12.041 3.99963C14.8188 3.88389 16.8209 4.66215 18.23 5.82614C19.6533 7.00191 20.5409 8.6297 20.9679 10.3094C21.3975 11.9991 21.3413 13.6658 20.9606 14.8611C20.5609 16.1163 19.9591 16.5005 19.4993 16.5005C18.5235 16.5005 17.8521 16.3891 17.3975 16.2436C17.1507 16.1647 16.8468 16.0173 16.458 15.8107C16.3705 15.7642 16.278 15.7142 16.1819 15.6624C15.883 15.5011 15.5497 15.3213 15.2278 15.1689C14.8001 14.9664 14.302 14.7667 13.7876 14.691C13.2554 14.6128 12.6456 14.6601 12.0842 15.0264C11.5651 15.3651 11.0003 15.9148 10.8735 16.7462C10.7465 17.579 11.1055 18.389 11.7319 19.1407C12.0921 19.573 12.2665 19.8827 12.3399 20.0824C12.3614 20.1406 12.372 20.1828 12.3772 20.2115C12.3668 20.2177 12.3539 20.2247 12.3382 20.2325C12.2215 20.2902 12.019 20.3505 11.714 20.3846C11.1062 20.4525 10.2987 20.3944 9.48104 20.2381C8.66377 20.0819 7.92293 19.8442 7.44668 19.6061L7.43269 19.5991L7.41849 19.5925C4.63989 18.3101 2.7608 14.5392 3.1529 10.938C3.34423 9.18084 4.07543 7.53066 5.45735 6.28582C6.83861 5.04156 8.95278 4.1283 12.041 3.99963ZM12.4156 20.1841L12.4148 20.1849L12.4129 20.1869L12.4156 20.1841C12.4157 20.184 12.4156 20.1842 12.4156 20.1841Z" fill="black"/>
</svg>
