<svg width="24" height="24" viewBox="0 0 24 24" fill="none" xmlns="http://www.w3.org/2000/svg">
<path d="M4.39002 4.05045L4.92556 3.51491C6.09713 2.34334 7.99662 2.34334 9.1682 3.51491L10.0971 4.44379C11.052 5.39873 11.2512 6.87404 10.5836 8.04802L10.5287 8.14455C9.99391 9.08509 9.99645 10.249 10.6308 11.1255C10.9468 11.5622 11.3039 12.0145 11.6431 12.3537C11.9823 12.693 12.4346 13.05 12.8713 13.366C13.7478 14.0004 14.9117 14.0029 15.8523 13.4681L15.9488 13.4132C17.1228 12.7456 18.5981 12.9448 19.553 13.8997L20.4819 14.8286C21.6535 16.0002 21.6535 17.8997 20.4819 19.0713L19.9464 19.6068C19.3838 20.1694 18.6173 20.4828 17.8437 20.2969C16.1904 19.8996 13.0045 18.665 9.1682 14.8286C5.33186 10.9923 4.09723 7.80637 3.6999 6.1531C3.51397 5.37948 3.82741 4.61305 4.39002 4.05045Z" fill="black"/>
</svg>
