<svg width="24" height="24" viewBox="0 0 24 24" fill="none" xmlns="http://www.w3.org/2000/svg">
<path d="M4.92556 3.51491L4.39002 4.05045C3.82741 4.61305 3.51397 5.37948 3.6999 6.1531C4.09723 7.80637 5.33186 10.9923 9.1682 14.8286C13.0045 18.665 16.1904 19.8996 17.8437 20.2969C18.6173 20.4828 19.3838 20.1694 19.9464 19.6068L20.4819 19.0713C21.6535 17.8997 21.6535 16.0002 20.4819 14.8286L19.553 13.8997C18.5981 12.9448 17.1228 12.7456 15.9488 13.4132L15.8523 13.4681C14.9117 14.0029 13.7478 14.0004 12.8713 13.366C12.4346 13.05 11.9823 12.693 11.6431 12.3537C11.3039 12.0145 10.9468 11.5622 10.6308 11.1255C9.99645 10.249 9.99391 9.08509 10.5287 8.14455L10.5836 8.04802C11.2512 6.87404 11.052 5.39873 10.0971 4.44379L9.1682 3.51491C7.99662 2.34334 6.09713 2.34334 4.92556 3.51491Z" fill="black"/>
<path d="M16.2929 4.87883C15.9024 4.48831 15.2692 4.48831 14.8787 4.87883C14.4882 5.26936 14.4882 5.90252 14.8787 6.29305L15.5858 7.00015L14.8787 7.70726C14.4882 8.09778 14.4882 8.73095 14.8787 9.12147C15.2692 9.512 15.9024 9.512 16.2929 9.12147L17 8.41437L17.7071 9.12147C18.0977 9.512 18.7308 9.512 19.1214 9.12147C19.5119 8.73095 19.5119 8.09778 19.1214 7.70726L18.4142 7.00015L19.1214 6.29305C19.5119 5.90252 19.5119 5.26936 19.1214 4.87883C18.7308 4.48831 18.0977 4.48831 17.7071 4.87883L17 5.58594L16.2929 4.87883Z" fill="black"/>
</svg>
