<svg width="24" height="24" viewBox="0 0 24 24" fill="none" xmlns="http://www.w3.org/2000/svg">
<path d="M15 11.0001C15.5523 11.0001 16 10.5524 16 10.0001C16 9.44782 15.5523 9.0001 15 9.0001H14C13.4477 9.0001 13 9.44782 13 10.0001C13 10.5524 13.4477 11.0001 14 11.0001H15Z" fill="black"/>
<path d="M11 13.0001C11 13.5524 10.5523 14.0001 10 14.0001H9C8.44772 14.0001 8 13.5524 8 13.0001C8 12.4478 8.44772 12.0001 9 12.0001H10C10.5523 12.0001 11 12.4478 11 13.0001Z" fill="black"/>
<path d="M10 11.0001C10.5523 11.0001 11 10.5524 11 10.0001C11 9.44782 10.5523 9.0001 10 9.0001H9C8.44772 9.0001 8 9.44782 8 10.0001C8 10.5524 8.44772 11.0001 9 11.0001H10Z" fill="black"/>
<path d="M16 13.0001C16 13.5524 15.5523 14.0001 15 14.0001H14C13.4477 14.0001 13 13.5524 13 13.0001C13 12.4478 13.4477 12.0001 14 12.0001H15C15.5523 12.0001 16 12.4478 16 13.0001Z" fill="black"/>
<path d="M10 17.0001C10.5523 17.0001 11 16.5524 11 16.0001C11 15.4478 10.5523 15.0001 10 15.0001H9C8.44772 15.0001 8 15.4478 8 16.0001C8 16.5524 8.44772 17.0001 9 17.0001H10Z" fill="black"/>
<path d="M16 16.0001C16 16.5524 15.5523 17.0001 15 17.0001H14C13.4477 17.0001 13 16.5524 13 16.0001C13 15.4478 13.4477 15.0001 14 15.0001H15C15.5523 15.0001 16 15.4478 16 16.0001Z" fill="black"/>
<path fill-rule="evenodd" clip-rule="evenodd" d="M12.9923 4.41537C12.3774 4.06402 11.6226 4.06402 11.0077 4.41537L5.00772 7.84394C4.38457 8.20003 4 8.86271 4 9.58043V19.0001H2.5C1.94772 19.0001 1.5 19.4478 1.5 20.0001C1.5 20.5524 1.94772 21.0001 2.5 21.0001H21.5C22.0523 21.0001 22.5 20.5524 22.5 20.0001C22.5 19.4478 22.0523 19.0001 21.5 19.0001H20V9.58043C20 8.86271 19.6154 8.20003 18.9923 7.84394L12.9923 4.41537ZM13 19.0001V18.0001C13 17.4478 12.5523 17.0001 12 17.0001C11.4477 17.0001 11 17.4478 11 18.0001V19.0001H6V9.58043L12 6.15186L18 9.58043V19.0001H13Z" fill="black"/>
</svg>
