<svg width="24" height="24" viewBox="0 0 24 24" fill="none" xmlns="http://www.w3.org/2000/svg">
<path fill-rule="evenodd" clip-rule="evenodd" d="M11.6838 3.10552L3.68377 5.77218C3.27543 5.9083 3 6.29044 3 6.72087V9.00011C3 9.55239 3.44772 10.0001 4 10.0001H5V17.0001H4C3.44772 17.0001 3 17.4478 3 18.0001V20.0001C3 20.5524 3.44772 21.0001 4 21.0001H20C20.5523 21.0001 21 20.5524 21 20.0001V18.0001C21 17.4478 20.5523 17.0001 20 17.0001H19V10.0001H20C20.5523 10.0001 21 9.55239 21 9.00011V6.72087C21 6.29044 20.7246 5.9083 20.3162 5.77218L12.3162 3.10552C12.111 3.03709 11.889 3.03709 11.6838 3.10552ZM17 17.0001V10.0001H15V17.0001H17ZM13 17.0001V10.0001H11V17.0001H13ZM9 17.0001V10.0001H7V17.0001H9Z" fill="black"/>
</svg>
