<svg width="24" height="24" viewBox="0 0 24 24" fill="none" xmlns="http://www.w3.org/2000/svg">
<path fill-rule="evenodd" clip-rule="evenodd" d="M19.6764 4.13472C21.8206 3.91796 23.2162 6.3343 21.9567 8.08296L12.8922 20.663C11.6714 22.3569 9.03489 21.8962 8.4606 19.8886L7.34439 15.9882C7.08676 15.087 7.35726 14.1309 8.01626 13.498C7.13877 13.752 6.17658 13.5095 5.52505 12.8359L2.70474 9.9189C1.25376 8.41769 2.17338 5.90354 4.25064 5.69331L19.6764 4.13472ZM9.47134 14.8847C9.29056 15.0053 9.20767 15.2295 9.26724 15.4384L10.3834 19.3388C10.4983 19.7403 11.026 19.8328 11.2702 19.4941L19.3239 8.31538L9.47134 14.8847ZM4.45181 7.68354C4.03673 7.72575 3.8527 8.22804 4.14224 8.52827L6.96255 11.4453C7.11369 11.6016 7.34867 11.6422 7.5436 11.5458L18.1579 6.2978L4.45181 7.68354Z" fill="black"/>
</svg>
