<svg width="24" height="24" viewBox="0 0 24 24" fill="none" xmlns="http://www.w3.org/2000/svg">
<path d="M4.92556 3.51491L4.39002 4.05045C3.82741 4.61305 3.51397 5.37948 3.6999 6.1531C4.09723 7.80637 5.33186 10.9923 9.1682 14.8286C13.0045 18.665 16.1904 19.8996 17.8437 20.2969C18.6173 20.4828 19.3838 20.1694 19.9464 19.6068L20.4819 19.0713C21.6535 17.8997 21.6535 16.0002 20.4819 14.8286L19.553 13.8997C18.5981 12.9448 17.1228 12.7456 15.9488 13.4132L15.8523 13.4681C14.9117 14.0029 13.7478 14.0004 12.8713 13.366C12.4346 13.05 11.9823 12.693 11.6431 12.3537C11.3039 12.0145 10.9468 11.5622 10.6308 11.1255C9.99645 10.249 9.99391 9.08509 10.5287 8.14455L10.5836 8.04802C11.2512 6.87404 11.052 5.39873 10.0971 4.44379L9.1682 3.51491C7.99662 2.34334 6.09713 2.34334 4.92556 3.51491Z" fill="black"/>
<path d="M13.7369 9.32683C13.7666 9.83288 14.1703 10.2366 14.6764 10.2664L16.6799 10.3842C17.2312 10.4167 17.7044 9.99601 17.7369 9.44468C17.7652 8.96236 17.4469 8.53981 16.9976 8.41987L18.9778 6.43968C19.3683 6.04915 19.3683 5.41599 18.9778 5.02546C18.5872 4.63494 17.9541 4.63494 17.5636 5.02546L15.5834 7.00565C15.4634 6.55637 15.0409 6.23799 14.5586 6.26636C14.0072 6.29879 13.5866 6.77203 13.619 7.32336L13.7369 9.32683Z" fill="black"/>
</svg>
