<svg width="24" height="24" viewBox="0 0 24 24" fill="none" xmlns="http://www.w3.org/2000/svg">
<path fill-rule="evenodd" clip-rule="evenodd" d="M15.1833 3.66181C16.7454 2.09971 19.2784 2.09971 20.8405 3.66181C22.4022 5.22382 22.4022 7.75605 20.8405 9.31806L10.2331 19.9245C9.62111 20.5365 8.82718 20.9339 7.9704 21.0563L5.33075 21.4333C4.01092 21.6217 2.88057 20.4904 3.06903 19.1706L3.44501 16.5309C3.56741 15.6742 3.96487 14.8802 4.57684 14.2683L15.1833 3.66181ZM5.99091 15.6823C5.68491 15.9883 5.48668 16.3858 5.42548 16.8142L5.04852 19.4538L7.6872 19.0759C8.11559 19.0147 8.51304 18.8164 8.81903 18.5104L18.0866 9.24286L15.2585 6.41474L5.99091 15.6823ZM19.4255 5.07587C18.6697 4.32025 17.4616 4.2978 16.6765 5.00458L19.4968 7.82489C20.2036 7.03971 20.1812 5.83163 19.4255 5.07587Z" fill="black"/>
</svg>
