<svg width="24" height="24" viewBox="0 0 24 24" fill="none" xmlns="http://www.w3.org/2000/svg">
<path d="M13.4998 3V5.5C13.4998 6.60457 14.3952 7.5 15.4998 7.5H17.9998C19.1043 7.5 19.9998 8.39543 19.9998 9.5V13.5H3.99976V9.5C3.99976 8.39543 4.89519 7.5 5.99976 7.5H8.49976C9.60433 7.5 10.4998 6.60457 10.4998 5.5V3C10.4998 2.17157 11.1713 1.5 11.9998 1.5C12.8282 1.5 13.4998 2.17157 13.4998 3Z" fill="black"/>
<path d="M3.75682 15H20.2427L20.9358 19.7087C21.1136 20.9163 20.1777 22 18.9572 22H17.1214C17.1214 21.9453 17.1168 21.8898 17.1074 21.8341L16.5922 18.7716C16.5006 18.227 15.9848 17.8597 15.4402 17.9514C14.8956 18.043 14.5283 18.5588 14.6199 19.1034L15.1072 22H5.04239C3.82187 22 2.88597 20.9163 3.06371 19.7087L3.75682 15Z" fill="black"/>
</svg>
