<svg width="24" height="24" viewBox="0 0 24 24" fill="none" xmlns="http://www.w3.org/2000/svg">
<path d="M4.92556 3.51491L4.39002 4.05045C3.82741 4.61305 3.51397 5.37948 3.6999 6.1531C4.09723 7.80637 5.33186 10.9923 9.1682 14.8286C13.0045 18.665 16.1904 19.8996 17.8437 20.2969C18.6173 20.4828 19.3838 20.1694 19.9464 19.6068L20.4819 19.0713C21.6535 17.8997 21.6535 16.0002 20.4819 14.8286L19.553 13.8997C18.5981 12.9448 17.1228 12.7456 15.9488 13.4132L15.8523 13.4681C14.9117 14.0029 13.7478 14.0004 12.8713 13.366C12.4346 13.05 11.9823 12.693 11.6431 12.3537C11.3039 12.0145 10.9468 11.5622 10.6308 11.1255C9.99645 10.249 9.99391 9.08509 10.5287 8.14455L10.5836 8.04802C11.2512 6.87404 11.052 5.39873 10.0971 4.44379L9.1682 3.51491C7.99662 2.34334 6.09713 2.34334 4.92556 3.51491Z" fill="black"/>
<path d="M18 5.00015C18 4.44787 17.5523 4.00015 17 4.00015C16.4477 4.00015 16 4.44787 16 5.00015V6.00015H15C14.4477 6.00015 14 6.44787 14 7.00015C14 7.55244 14.4477 8.00015 15 8.00015H16V9.00015C16 9.55244 16.4477 10.0002 17 10.0002C17.5523 10.0002 18 9.55244 18 9.00015V8.00015H19C19.5523 8.00015 20 7.55244 20 7.00015C20 6.44787 19.5523 6.00015 19 6.00015H18V5.00015Z" fill="black"/>
</svg>
