<svg width="24" height="24" viewBox="0 0 24 24" fill="none" xmlns="http://www.w3.org/2000/svg">
<path d="M21.209 3.20334C20.2644 6.56893 15.2063 12.4487 12.1607 15.6409C11.0171 14.3583 9.52508 12.7958 7.9841 11.4277C11.2987 8.40262 17.3106 3.44498 20.3878 2.41265C20.9114 2.237 21.3583 2.6716 21.209 3.20334Z" fill="black"/>
<path d="M7.73167 19.8041C8.67639 19.2078 9.75892 18.5245 10.9271 17.8887C11.3811 17.6415 11.5118 17.0435 11.1754 16.6511C10.0955 15.3916 8.32758 13.4915 6.60429 12.1108C6.33193 11.8926 5.95882 11.8424 5.64174 11.9882C3.08878 13.1621 3.25482 14.5105 3.78119 18.785C3.86161 19.438 3.95044 20.1593 4.03926 20.9588C4.16134 22.0575 5.59359 21.1536 7.73167 19.8041Z" fill="black"/>
</svg>
