<svg width="24" height="24" viewBox="0 0 24 24" fill="none" xmlns="http://www.w3.org/2000/svg">
<path fill-rule="evenodd" clip-rule="evenodd" d="M7.53851 18C7.09255 4.86248 10.6412 2.55504 12 2.00769C13.3589 2.55504 16.9075 4.86248 16.4615 18C13 15 11 15 7.53851 18ZM13.5 8.5C13.5 9.32843 12.8284 10 12 10C11.1716 10 10.5 9.32843 10.5 8.5C10.5 7.67157 11.1716 7 12 7C12.8284 7 13.5 7.67157 13.5 8.5Z" fill="black"/>
<path d="M6.50002 13C5.35147 13.1667 3.60623 15.6 4.00002 20C5.18222 20 5.71646 19.1616 6.12082 18.527C6.25523 18.316 6.37528 18.1276 6.50002 18V13Z" fill="black"/>
<path d="M17.5 13C18.6486 13.1667 20.3938 15.6 20 20C18.8178 20 18.2836 19.1616 17.8792 18.527C17.7448 18.316 17.6248 18.1276 17.5 18V13Z" fill="black"/>
<path d="M12 22.5C12 22.5 10.6667 20.5 10.5 19.5C10.5 19.5 11.296 18.5 12 18.5C12.704 18.5 13.5 19.5 13.5 19.5C13.1667 20.8333 12 22.5 12 22.5Z" fill="black"/>
</svg>
