<svg width="24" height="24" viewBox="0 0 24 24" fill="none" xmlns="http://www.w3.org/2000/svg">
<path d="M16.2423 4.92856C17.0234 4.14751 18.2897 4.14751 19.0708 4.92856C19.8518 5.70961 19.8518 6.97594 19.0708 7.75699L15.5352 11.2925C15.1447 11.683 14.5115 11.683 14.121 11.2925L12.7068 9.87831C12.3163 9.48778 12.3163 8.85462 12.7068 8.46409L16.2423 4.92856Z" fill="black"/>
<path d="M14.121 11.2925L12.7068 9.87831L4.92864 17.6565C4.53811 18.047 4.53811 18.6802 4.92864 19.0707C5.31916 19.4612 5.95232 19.4612 6.34285 19.0707L14.121 11.2925Z" fill="black"/>
<path d="M14.121 11.2925C14.5115 11.683 15.1447 11.683 15.5352 11.2925L19.0708 7.75699C19.8518 6.97594 19.8518 5.70961 19.0708 4.92856C18.2897 4.14751 17.0234 4.14751 16.2423 4.92856L12.7068 8.46409C12.3163 8.85462 12.3163 9.48778 12.7068 9.87831M14.121 11.2925L12.7068 9.87831M14.121 11.2925L15.5352 12.7067M14.121 11.2925L6.34285 19.0707C5.95232 19.4612 5.31916 19.4612 4.92864 19.0707C4.53811 18.6802 4.53811 18.047 4.92864 17.6565L12.7068 9.87831M12.7068 9.87831L11.2926 8.46409" stroke="black" stroke-width="2" stroke-linecap="round" stroke-linejoin="round"/>
</svg>
