<svg width="24" height="24" viewBox="0 0 24 24" fill="none" xmlns="http://www.w3.org/2000/svg">
<path fill-rule="evenodd" clip-rule="evenodd" d="M21 5.56913V15.1753C21 15.672 20.695 16.1171 20.2345 16.3034C19.28 16.6895 17.6359 17.3807 16.5 17.9999C14.6456 19.0109 12 19.9999 12 19.9999C12 19.9999 9.35441 19.0109 7.5 17.9999C6.36411 17.3807 4.71999 16.6895 3.76549 16.3034C3.30496 16.1171 3 15.672 3 15.1753V5.56913C3 4.77846 3.74984 4.20721 4.50562 4.43948C5.43619 4.72547 6.61713 5.11555 7.5 5.49993C9.34323 6.30242 12 7.99993 12 7.99993C12 7.99993 14.6568 6.30242 16.5 5.49993C17.3829 5.11555 18.5638 4.72547 19.4944 4.43948C20.2502 4.20721 21 4.77846 21 5.56913ZM18.8944 9.55271C19.1414 10.0467 18.9412 10.6474 18.4472 10.8944L15.4472 12.3944C14.9532 12.6413 14.3526 12.4411 14.1056 11.9471C13.8586 11.4532 14.0588 10.8525 14.5528 10.6055L17.5528 9.1055C18.0468 8.85851 18.6474 9.05873 18.8944 9.55271ZM5.55279 10.8944C5.05881 10.6474 4.85858 10.0467 5.10557 9.55271C5.35256 9.05873 5.95324 8.85851 6.44721 9.1055L9.44721 10.6055C9.94119 10.8525 10.1414 11.4532 9.89443 11.9471C9.64744 12.4411 9.04676 12.6413 8.55279 12.3944L5.55279 10.8944ZM18.8944 12.5527C19.1414 13.0467 18.9412 13.6474 18.4472 13.8944L15.4472 15.3944C14.9532 15.6413 14.3526 15.4411 14.1056 14.9471C13.8586 14.4532 14.0588 13.8525 14.5528 13.6055L17.5528 12.1055C18.0468 11.8585 18.6474 12.0587 18.8944 12.5527ZM5.55279 13.8944C5.05881 13.6474 4.85858 13.0467 5.10557 12.5527C5.35256 12.0587 5.95324 11.8585 6.44721 12.1055L9.44721 13.6055C9.94119 13.8525 10.1414 14.4532 9.89443 14.9471C9.64744 15.4411 9.04676 15.6413 8.55279 15.3944L5.55279 13.8944Z" fill="black"/>
</svg>
