<svg width="24" height="24" viewBox="0 0 24 24" fill="none" xmlns="http://www.w3.org/2000/svg">
<path fill-rule="evenodd" clip-rule="evenodd" d="M13.8066 2.74741C12.7993 1.773 11.2008 1.773 10.1935 2.74741C9.61754 3.30462 8.81664 3.56485 8.02314 3.45261C6.63551 3.25634 5.34227 4.19594 5.10013 5.5763C4.96167 6.36565 4.46669 7.04694 3.75876 7.42255C2.52078 8.07939 2.0268 9.59968 2.64227 10.8587C2.99422 11.5787 2.99422 12.4208 2.64227 13.1408C2.0268 14.3999 2.52078 15.9202 3.75876 16.577C4.46669 16.9526 4.96167 17.6339 5.10013 18.4233C5.34227 19.8036 6.63551 20.7432 8.02314 20.547C8.81664 20.4347 9.61754 20.6949 10.1935 21.2522C11.2008 22.2266 12.7993 22.2266 13.8066 21.2522C14.3825 20.6949 15.1834 20.4347 15.977 20.547C17.3646 20.7432 18.6578 19.8036 18.9 18.4233C19.0384 17.6339 19.5334 16.9526 20.2413 16.577C21.4793 15.9202 21.9733 14.3999 21.3578 13.1408C21.0059 12.4208 21.0059 11.5787 21.3578 10.8587C21.9733 9.59968 21.4793 8.07939 20.2413 7.42255C19.5334 7.04694 19.0384 6.36565 18.9 5.5763C18.6578 4.19594 17.3646 3.25634 15.977 3.45261C15.1834 3.56485 14.3825 3.30462 13.8066 2.74741ZM10.7662 10.7723C11.2544 10.2842 11.2544 9.49273 10.7662 9.00457C10.278 8.51642 9.48658 8.51642 8.99843 9.00457C8.51027 9.49273 8.51027 10.2842 8.99843 10.7723C9.48658 11.2605 10.278 11.2605 10.7662 10.7723ZM15.0089 13.2473C15.497 13.7354 15.497 14.5269 15.0089 15.015C14.5207 15.5032 13.7293 15.5032 13.2411 15.015C12.7529 14.5269 12.7529 13.7354 13.2411 13.2473C13.7293 12.7591 14.5207 12.7591 15.0089 13.2473ZM9.1716 13.414C8.78107 13.8045 8.78107 14.4377 9.1716 14.8282C9.56212 15.2188 10.1953 15.2188 10.5858 14.8282L14.8285 10.5856C15.219 10.1951 15.219 9.5619 14.8285 9.17138C14.4379 8.78085 13.8048 8.78085 13.4142 9.17138L9.1716 13.414Z" fill="black"/>
</svg>
