<svg width="24" height="24" viewBox="0 0 24 24" fill="none" xmlns="http://www.w3.org/2000/svg">
<path fill-rule="evenodd" clip-rule="evenodd" d="M8.73833 3.93156C10.1195 1.35618 13.8807 1.35611 15.2618 3.93156L21.5733 15.705C22.8845 18.1512 21.0373 20.9995 18.3116 20.9999H5.68852C2.96259 20.9997 1.11545 18.1513 2.4268 15.705L8.73833 3.93156ZM13.4991 4.87688C12.8722 3.70779 11.128 3.70785 10.501 4.87688L4.1895 16.6503C3.63575 17.6837 4.38214 18.9997 5.68852 18.9999H18.3116C19.6177 18.9995 20.3642 17.6836 19.8106 16.6503L13.4991 4.87688ZM12 15.4999C12.6903 15.5001 13.25 16.0597 13.25 16.7499C13.25 17.4402 12.6903 17.9998 12 17.9999C11.3097 17.9999 10.75 17.4403 10.75 16.7499C10.75 16.0596 11.3097 15.4999 12 15.4999ZM12 5.99992C12.5522 6.00006 13 6.44772 13 6.99992V13.9999C13 14.5521 12.5522 14.9998 12 14.9999C11.4478 14.9999 11 14.5522 11 13.9999V6.99992C11 6.44764 11.4478 5.99992 12 5.99992Z" fill="black"/>
</svg>
