<svg width="24" height="24" viewBox="0 0 24 24" fill="none" xmlns="http://www.w3.org/2000/svg">
<path d="M20.9049 3.00349C10.6329 3.41458 5.90591 12.761 4.4094 18.9086C4.27991 19.4406 4.26417 20.1697 4.80071 20.2788C5.14549 20.3488 5.52893 20.1319 5.68576 19.6039C6.86746 15.6249 8.00085 10.6266 12.5009 12.4999C13.9724 13.2357 16.4062 11.5655 14.61 8.66951C14.5666 8.5996 14.6173 8.50598 14.6995 8.50985C17.8065 8.65644 21.4463 8.38864 21.0092 3.09659C21.0049 3.04373 20.9579 3.00137 20.9049 3.00349Z" fill="black"/>
<path d="M3.61272 6.64966C3.45236 6.16858 3.07485 5.79107 2.59377 5.63071C2.10416 5.46751 2.10416 4.77497 2.59377 4.61177C3.07485 4.45141 3.45236 4.0739 3.61272 3.59282C3.77592 3.10321 4.46846 3.10321 4.63166 3.59282C4.79203 4.0739 5.16953 4.45141 5.65061 4.61177C6.14022 4.77497 6.14022 5.46751 5.65061 5.63071C5.16953 5.79107 4.79203 6.16858 4.63166 6.64966C4.46846 7.13927 3.77592 7.13927 3.61272 6.64966Z" fill="black"/>
<path d="M12.5937 18.6307C13.0748 18.7911 13.4523 19.1686 13.6127 19.6497C13.7759 20.1393 14.4684 20.1393 14.6316 19.6497C14.792 19.1686 15.1695 18.7911 15.6506 18.6307C16.1402 18.4675 16.1402 17.775 15.6506 17.6118C15.1695 17.4514 14.792 17.0739 14.6316 16.5928C14.4684 16.1032 13.7759 16.1032 13.6127 16.5928C13.4523 17.0739 13.0748 17.4514 12.5937 17.6118C12.1041 17.775 12.1041 18.4675 12.5937 18.6307Z" fill="black"/>
</svg>
