<svg width="24" height="24" viewBox="0 0 24 24" fill="none" xmlns="http://www.w3.org/2000/svg">
<path d="M7.83534 16.1222C7.9325 16.3399 7.63574 16.5144 7.49271 16.3237L2.98965 10.3196C2.87929 10.1725 3.00934 9.96691 3.18957 10.0036L5.19548 10.4122C5.25873 10.4251 5.31188 10.4678 5.33819 10.5267L7.83534 16.1222Z" fill="black"/>
<path d="M20.8104 10.0036C20.9906 9.96687 21.1206 10.1724 21.0103 10.3196L16.5067 16.3243C16.3637 16.515 16.0669 16.3405 16.1641 16.1228L18.6615 10.5267C18.6878 10.4678 18.741 10.4251 18.8042 10.4122L20.8104 10.0036Z" fill="black"/>
<path d="M17.4183 3.78017C17.378 3.63641 17.5037 3.50076 17.6501 3.53004L18.9376 3.78753C19.6003 3.92008 20.1513 4.37838 20.4023 5.00591L21.4376 7.59417C21.4839 7.71001 21.4141 7.83953 21.2918 7.86443L18.8938 8.35293C18.791 8.37385 18.6896 8.31191 18.6613 8.21097L17.4183 3.78017Z" fill="black"/>
<path d="M8.83934 3.1357C8.85823 3.06837 8.91331 3.01733 8.98189 3.00361C8.9939 3.00121 9.00611 3 9.01835 3H14.9816C14.9938 3 15.006 3.00121 15.018 3.0036C15.0864 3.0173 15.1414 3.06826 15.1603 3.1355L16.6095 8.30154C16.6453 8.42909 16.5494 8.55556 16.4169 8.55556H7.5828C7.45032 8.55556 7.35445 8.42909 7.39023 8.30154L8.83934 3.1357Z" fill="black"/>
<path d="M6.34956 3.53008C6.49597 3.5008 6.62167 3.63645 6.58135 3.78021L5.33843 8.21097C5.31012 8.31191 5.20867 8.37385 5.10594 8.35293L2.70804 7.86446C2.58579 7.83956 2.51593 7.71004 2.56226 7.59421L3.59758 5.00591C3.84859 4.37838 4.39956 3.92008 5.0623 3.78753L6.34956 3.53008Z" fill="black"/>
<path d="M12.1825 20.137C12.112 20.295 11.8877 20.295 11.8172 20.137L7.66683 10.8371C7.60779 10.7048 7.7046 10.5556 7.84947 10.5556H16.1502C16.2951 10.5556 16.3919 10.7048 16.3329 10.8371L12.1825 20.137Z" fill="black"/>
</svg>
