<svg width="24" height="24" viewBox="0 0 24 24" fill="none" xmlns="http://www.w3.org/2000/svg">
<path fill-rule="evenodd" clip-rule="evenodd" d="M12 6.00027C10.6193 6.00027 9.49999 7.11955 9.49999 8.50027C9.49999 9.88098 10.6193 11.0003 12 11.0003C13.3807 11.0003 14.5 9.88098 14.5 8.50027C14.5 7.11955 13.3807 6.00027 12 6.00027ZM11.5 8.50027C11.5 8.22412 11.7239 8.00027 12 8.00027C12.2761 8.00027 12.5 8.22412 12.5 8.50027C12.5 8.77641 12.2761 9.00027 12 9.00027C11.7239 9.00027 11.5 8.77641 11.5 8.50027Z" fill="black"/>
<path fill-rule="evenodd" clip-rule="evenodd" d="M12.5655 1.16256C12.399 1.05417 12.2019 0.996328 12 1.00018C11.7981 0.996328 11.601 1.05417 11.4345 1.16256C10.5253 1.57549 9.22413 2.50864 8.19195 4.84635C7.4583 6.50793 6.86322 8.87127 6.61931 12.2617C6.33913 12.4129 6.08415 12.6157 5.86087 12.84C5.4414 13.2612 5.06459 13.8249 4.75971 14.5024C4.14807 15.8615 3.79424 17.746 4.00397 20.0894C4.05013 20.6051 4.48225 21.0003 4.99999 21.0003C6.17207 21.0003 6.92942 20.4191 7.41946 19.8346C7.64495 19.5657 7.82394 19.2847 7.95374 19.0809L7.96328 19.066C8.04221 18.9421 8.09662 18.859 8.13581 18.8023C8.15548 18.7876 8.17469 18.7722 8.19342 18.756C9.88959 17.2859 11.0166 16.7503 12 16.7503C12.9834 16.7503 14.1104 17.2859 15.8066 18.756C15.8253 18.7722 15.8445 18.7876 15.8642 18.8023C15.9034 18.859 15.9578 18.9421 16.0367 19.066L16.0462 19.0809C16.176 19.2847 16.355 19.5657 16.5805 19.8346C17.0706 20.4191 17.8279 21.0003 19 21.0003C19.5177 21.0003 19.9499 20.6051 19.996 20.0894C20.2057 17.746 19.8519 15.8615 19.2403 14.5024C18.9354 13.8249 18.5586 13.2612 18.1391 12.84C17.9158 12.6157 17.6608 12.4129 17.3807 12.2617C17.1368 8.87127 16.5417 6.50793 15.808 4.84635C14.7759 2.50864 13.4746 1.57549 12.5655 1.16256ZM6.49999 17.6517C6.42232 17.7618 6.35454 17.8685 6.29955 17.9551L6.27659 17.9912C6.15859 18.1764 6.05703 18.334 5.94672 18.4755C5.97701 17.2395 6.20257 16.253 6.49999 15.5188V17.6517ZM17.5 17.6517V15.5188C17.7974 16.253 18.023 17.2395 18.0533 18.4755C17.943 18.334 17.8414 18.1764 17.7234 17.9912L17.7004 17.9551C17.6454 17.8685 17.5777 17.7618 17.5 17.6517ZM12 3.11874C11.4833 3.42152 10.7131 4.08794 10.0215 5.65418C9.19653 7.52269 8.48357 10.6762 8.50029 15.9883C9.66509 15.2061 10.7986 14.7503 12 14.7503C13.2014 14.7503 14.3349 15.2061 15.4997 15.9883C15.5164 10.6762 14.8035 7.52269 13.9784 5.65418C13.2869 4.08794 12.5167 3.42152 12 3.11874Z" fill="black"/>
<path fill-rule="evenodd" clip-rule="evenodd" d="M10.9935 17.7766C11.2465 17.64 11.5961 17.5003 12 17.5003C12.4039 17.5003 12.7535 17.64 13.0065 17.7766C13.2669 17.9172 13.494 18.0922 13.6708 18.2462C13.8507 18.4029 13.9996 18.5564 14.103 18.6696C14.1553 18.7269 14.1975 18.7755 14.2278 18.8113C14.2429 18.8292 14.2552 18.844 14.2644 18.8552L14.2758 18.8692L14.2797 18.8741L14.2812 18.876L14.2818 18.8768C14.282 18.877 14.2824 18.8775 13.5 19.5003L14.2818 18.8768C14.4757 19.1203 14.5456 19.4409 14.4701 19.7428C14.2691 20.547 13.8374 21.3941 13.4932 21.9964C13.3155 22.3075 13.1492 22.5734 13.0271 22.7623C12.9658 22.8569 12.9153 22.9328 12.8794 22.9859C12.8745 22.9931 12.8699 22.9999 12.8656 23.0063C12.8539 23.0234 12.8443 23.0374 12.8369 23.0482L12.8248 23.0657L12.8212 23.071L12.8194 23.0735C12.8193 23.0736 12.8192 23.0737 12 22.5003C11.1679 23.055 11.1679 23.0549 11.1678 23.0548L11.1662 23.0524L11.1626 23.0469L11.1498 23.0275C11.1389 23.011 11.1233 22.9872 11.1037 22.957C11.0645 22.8967 11.0091 22.8104 10.9423 22.7041C10.8091 22.4921 10.629 22.1974 10.4425 21.8683C10.257 21.541 10.0589 21.1686 9.89357 20.8031C9.73521 20.453 9.57705 20.0454 9.5136 19.6647C9.46703 19.3852 9.54116 19.0991 9.71759 18.8775L10.5 19.5003C9.71759 18.8775 9.71745 18.8777 9.71759 18.8775L9.71879 18.876L9.7203 18.8741L9.72422 18.8692L9.73562 18.8552C9.74478 18.844 9.75706 18.8292 9.77222 18.8113C9.80249 18.7755 9.84467 18.7269 9.89698 18.6696C10.0004 18.5564 10.1493 18.4029 10.3291 18.2462C10.506 18.0922 10.733 17.9172 10.9935 17.7766ZM11.6257 19.7693C11.6518 19.8337 11.6818 19.9035 11.7158 19.9787C11.7997 20.1643 11.8979 20.3598 12.0019 20.5543C12.1383 20.2906 12.2648 20.0202 12.3655 19.7616L12.3572 19.7543C12.247 19.6583 12.1431 19.5833 12.0563 19.5364C12.0325 19.5236 12.0138 19.5149 12 19.5091C11.9862 19.5149 11.9675 19.5236 11.9437 19.5364C11.8569 19.5833 11.753 19.6583 11.6428 19.7543L11.6257 19.7693Z" fill="black"/>
<path d="M12 22.5003L12.8194 23.0735C12.6299 23.3441 12.3189 23.504 11.9886 23.5002C11.6583 23.4964 11.3511 23.3297 11.1678 23.0548L12 22.5003Z" fill="black"/>
</svg>
