<svg width="24" height="24" viewBox="0 0 24 24" fill="none" xmlns="http://www.w3.org/2000/svg">
<path d="M6.14927 7.86618C5.93546 7.22474 5.43212 6.7214 4.79067 6.50758C4.13786 6.28998 4.13786 5.36659 4.79067 5.14899C5.43212 4.93517 5.93546 4.43183 6.14927 3.79039C6.36688 3.13758 7.29026 3.13758 7.50787 3.79039C7.72168 4.43183 8.22502 4.93517 8.86646 5.14899C9.51928 5.36659 9.51928 6.28998 8.86646 6.50758C8.22502 6.7214 7.72168 7.22474 7.50787 7.86618C7.29026 8.51899 6.36688 8.51899 6.14927 7.86618Z" fill="black"/>
<path d="M6.2981 20.7325C5.87047 19.4496 4.86379 18.4429 3.58091 18.0153C2.27528 17.5801 2.27528 15.7333 3.58091 15.2981C4.86379 14.8705 5.87047 13.8638 6.2981 12.5809C6.73331 11.2753 8.58008 11.2753 9.01529 12.5809C9.44292 13.8638 10.4496 14.8705 11.7325 15.2981C13.0381 15.7333 13.0381 17.5801 11.7325 18.0153C10.4496 18.4429 9.44292 19.4496 9.01529 20.7325C8.58008 22.0381 6.73331 22.0381 6.2981 20.7325Z" fill="black"/>
<path d="M14.1858 11.2614C15.148 11.5822 15.903 12.3372 16.2237 13.2993C16.5501 14.2786 17.9352 14.2786 18.2616 13.2993C18.5823 12.3372 19.3373 11.5822 20.2995 11.2614C21.2787 10.935 21.2787 9.54996 20.2995 9.22355C19.3373 8.90283 18.5823 8.14782 18.2616 7.18566C17.9352 6.20644 16.5501 6.20644 16.2237 7.18566C15.903 8.14782 15.148 8.90283 14.1858 9.22355C13.2066 9.54996 13.2066 10.935 14.1858 11.2614Z" fill="black"/>
</svg>
