<svg width="24" height="24" viewBox="0 0 24 24" fill="none" xmlns="http://www.w3.org/2000/svg">
<path d="M11.9993 6.00005C12.5516 6.00005 12.9993 6.44776 12.9993 7.00005V14C12.9993 14.5523 12.5516 15 11.9993 15C11.447 15 10.9993 14.5523 10.9993 14V7.00005C10.9993 6.44776 11.447 6.00005 11.9993 6.00005Z" fill="black"/>
<path d="M11.9993 18C11.3089 18 10.7493 17.4404 10.7493 16.75C10.7493 16.0597 11.3089 15.5 11.9993 15.5C12.6896 15.5 13.2493 16.0597 13.2493 16.75C13.2493 17.4404 12.6896 18 11.9993 18Z" fill="black"/>
<path fill-rule="evenodd" clip-rule="evenodd" d="M14.0064 1.00827C12.7652 0.28826 11.2334 0.288259 9.99218 1.00827L6.74356 2.89277L3.48367 4.76596C2.23952 5.48087 1.47363 6.80743 1.47657 8.24236L1.48428 11.998V12.0021L1.47657 15.7577C1.47363 17.1927 2.23952 18.5192 3.48367 19.2341L6.74 21.1053L6.74356 21.1073L9.99218 22.9918C11.2334 23.7118 12.7652 23.7118 14.0064 22.9918L17.255 21.1073L17.2586 21.1053L20.5149 19.2341C21.759 18.5192 22.5249 17.1927 22.522 15.7577L22.5143 12.0021V11.998L22.522 8.24236C22.5249 6.80744 21.759 5.48087 20.5149 4.76596L17.2586 2.89482L17.255 2.89277L14.0064 1.00827ZM10.9957 2.73827C11.6163 2.37826 12.3822 2.37826 13.0028 2.73827L16.255 4.62481L16.2586 4.62686L19.5184 6.50006C20.1405 6.85751 20.5235 7.52079 20.522 8.23826L20.5143 11.998V12.0021L20.522 15.7618C20.5235 16.4793 20.1405 17.1426 19.5184 17.5L16.2586 19.3732L16.255 19.3753L13.0028 21.2618C12.3822 21.6218 11.6163 21.6218 10.9957 21.2618L7.74356 19.3753L4.48012 17.5C3.85804 17.1426 3.4751 16.4793 3.47657 15.7618L3.48428 12.0021V11.998L3.47657 8.23825C3.4751 7.52079 3.85804 6.85751 4.48012 6.50006L7.74 4.62686L7.74355 4.62481L10.9957 2.73827Z" fill="black"/>
</svg>
