<svg width="24" height="24" viewBox="0 0 24 24" fill="none" xmlns="http://www.w3.org/2000/svg">
<path fill-rule="evenodd" clip-rule="evenodd" d="M12.4372 3.04801C10.5982 2.72132 8.85435 4.10107 8.85435 5.99614V13.9657C8.20092 13.7431 7.35484 13.5814 6.27991 13.5814C4.91955 13.5814 3.92488 13.8404 3.22266 14.1551C1.91851 14.7397 1.77229 16.1799 2.26698 17.155C2.57708 17.7663 3.04933 18.5755 3.66789 19.2459C4.26964 19.8981 5.15224 20.5707 6.27991 20.5707C9.11369 20.5707 10.8543 18.0354 10.8543 15.6901V8.2941L19.8684 9.92175L19.6654 14.4114C19.007 14.1808 18.146 14.0105 17.0429 14.0105C15.6826 14.0105 14.6879 14.2695 13.9857 14.5843C12.6815 15.1688 12.5353 16.6091 13.03 17.5841C13.3401 18.1954 13.8124 19.0046 14.4309 19.6751C15.0327 20.3273 15.9153 20.9998 17.0429 20.9998C19.5359 20.9998 21.1919 19.0184 21.5435 16.9773C21.5702 16.8223 21.58 16.6643 21.5727 16.5069L21.9055 9.14496L21.9059 9.13827L21.996 7.40348C22.0751 5.88064 20.9868 4.56687 19.4977 4.30233L12.4372 3.04801ZM8.62788 16.0315C8.70232 16.0684 8.76694 16.1045 8.8224 16.1381C8.63024 17.4779 7.59225 18.5707 6.27991 18.5707C5.98028 18.5707 5.59397 18.3841 5.13781 17.8897C4.69846 17.4135 4.32379 16.7887 4.05057 16.2502C3.99157 16.1339 3.99672 16.047 4.00527 16.0143C4.00551 16.0134 4.00576 16.0125 4.006 16.0116C4.00772 16.0057 4.00934 16.0021 4.01023 16.0003C4.01117 15.9985 4.01171 15.9978 4.01182 15.9977C4.0119 15.9976 4.01296 15.9963 4.01609 15.994C4.01933 15.9915 4.02683 15.9864 4.0407 15.9802C4.46617 15.7895 5.17939 15.5814 6.27991 15.5814C7.47788 15.5814 8.21773 15.8279 8.62788 16.0315ZM19.9671 7.90723L10.8543 6.26175V5.99614C10.8543 5.40091 11.4187 4.89839 12.0873 5.01718L19.1479 6.2715C19.6784 6.36575 20.0236 6.81945 19.9987 7.29974L19.9671 7.90723ZM19.5648 16.5556C19.5649 16.5558 19.5663 16.5573 19.5681 16.5616L19.5621 16.6955C19.3139 17.9977 18.3115 18.9998 17.0429 18.9998C16.7433 18.9998 16.357 18.8132 15.9008 18.3188C15.4615 17.8426 15.0868 17.2178 14.8136 16.6793C14.7546 16.563 14.7598 16.4761 14.7683 16.4434C14.7685 16.4425 14.7688 16.4416 14.769 16.4408C14.7708 16.4348 14.7724 16.4312 14.7733 16.4295C14.7738 16.4285 14.7742 16.4278 14.7744 16.4274M19.5648 16.5556L19.5638 16.5547L19.5648 16.5556ZM19.5638 16.5547C19.5632 16.5542 19.5618 16.5531 19.5592 16.5516L19.5638 16.5547ZM19.5592 16.5516C19.1942 16.3364 18.4205 16.0105 17.0429 16.0105L19.5592 16.5516ZM17.0429 16.0105C15.9424 16.0105 15.2292 16.2186 14.8037 16.4093L17.0429 16.0105ZM14.8037 16.4093C14.7899 16.4155 14.7824 16.4206 14.7791 16.4231L14.8037 16.4093ZM14.7791 16.4231L14.7759 16.4258L14.7791 16.4231ZM14.7759 16.4258L14.7744 16.4274L14.7759 16.4258Z" fill="black"/>
</svg>
