<svg width="24" height="24" viewBox="0 0 24 24" fill="none" xmlns="http://www.w3.org/2000/svg">
<path d="M16 14.0001C16 14.5524 15.5523 15.0001 15 15.0001H14C13.4477 15.0001 13 14.5524 13 14.0001C13 13.4479 13.4477 13.0001 14 13.0001H15C15.5523 13.0001 16 13.4479 16 14.0001Z" fill="black"/>
<path d="M15 12.0001C15.5523 12.0001 16 11.5524 16 11.0001C16 10.4479 15.5523 10.0001 15 10.0001H14C13.4477 10.0001 13 10.4479 13 11.0001C13 11.5524 13.4477 12.0001 14 12.0001H15Z" fill="black"/>
<path d="M11 14.0001C11 14.5524 10.5523 15.0001 10 15.0001H9C8.44772 15.0001 8 14.5524 8 14.0001C8 13.4479 8.44772 13.0001 9 13.0001H10C10.5523 13.0001 11 13.4479 11 14.0001Z" fill="black"/>
<path d="M10 12.0001C10.5523 12.0001 11 11.5524 11 11.0001C11 10.4479 10.5523 10.0001 10 10.0001H9C8.44772 10.0001 8 10.4479 8 11.0001C8 11.5524 8.44772 12.0001 9 12.0001H10Z" fill="black"/>
<path fill-rule="evenodd" clip-rule="evenodd" d="M12.9782 4.39963C12.3667 4.05989 11.622 4.06437 11.0146 4.41146L5.00772 7.84399C4.38457 8.20007 4 8.86276 4 9.58047V19.0001C3.44772 19.0001 3 19.4479 3 20.0001C3 20.5524 3.44772 21.0001 4 21.0001H20C20.5523 21.0001 21 20.5524 21 20.0001C21 19.4479 20.5523 19.0001 20 19.0001V9.56634C20 8.86381 19.6314 8.2128 19.029 7.85135L17.5 6.93396V6.00015C17.5 5.44786 17.0523 5.00015 16.5 5.00015C16.0125 5.00015 15.6065 5.34896 15.5179 5.8106L12.9782 4.39963ZM13 19.0001V17.0001C13 16.4479 12.5523 16.0001 12 16.0001C11.4477 16.0001 11 16.4479 11 17.0001V19.0001H6V9.58047L12.0069 6.14795L15.9998 8.36622L18 9.56634V19.0001H13Z" fill="black"/>
</svg>
