<svg width="24" height="24" viewBox="0 0 24 24" fill="none" xmlns="http://www.w3.org/2000/svg">
<path d="M20.7783 4.22168C20.7783 3.66939 20.3306 3.22168 19.7783 3.22168H15.5356C14.9833 3.22168 14.5356 3.66939 14.5356 4.22168C14.5356 4.77396 14.9833 5.22168 15.5356 5.22168H17.3641L5.22193 17.3638L5.22192 15.5354C5.22192 14.9831 4.77421 14.5354 4.22192 14.5354C3.66964 14.5354 3.22192 14.9831 3.22192 15.5354V19.778C3.22192 20.3303 3.66964 20.778 4.22192 20.778H8.46456C9.01685 20.778 9.46456 20.3303 9.46457 19.778C9.46457 19.2257 9.01685 18.778 8.46457 18.778L6.63614 18.778L18.7783 6.63589V8.46432C18.7783 9.0166 19.226 9.46432 19.7783 9.46432C20.3306 9.46432 20.7783 9.0166 20.7783 8.46432V4.22168Z" fill="black"/>
</svg>
